<svg width="47" height="31" viewBox="0 0 47 31" fill="none" xmlns="http://www.w3.org/2000/svg">
<g clip-path="url(#clip0_1_2195)">
<path d="M0 3.875C0 1.7349 1.7349 0 3.875 0H42.625C44.7651 0 46.5 1.7349 46.5 3.875V27.125C46.5 29.2651 44.7651 31 42.625 31H3.875C1.7349 31 0 29.2651 0 27.125V3.875Z" fill="#E7F3FF"/>
<path fill-rule="evenodd" clip-rule="evenodd" d="M46.5234 16.2203H44.0514C43.3054 16.2203 42.7635 16.3984 42.3797 16.6754V16.2203H38.7232C38.1385 16.2203 37.4521 16.3648 37.1275 16.6754V16.2203H30.598V16.6754C30.0783 16.3017 29.2015 16.2203 28.7968 16.2203H24.4899V16.6754C24.0788 16.2785 23.1645 16.2203 22.6073 16.2203H17.7871L16.6841 17.4104L15.651 16.2203H8.45068V23.9962H15.5155L16.6521 22.7873L17.7227 23.9962L22.0775 24.0001V22.1709H22.5057C23.0835 22.1798 23.7649 22.1566 24.3662 21.8975V23.9961H27.9581V21.9694H28.1314C28.3525 21.9694 28.3742 21.9785 28.3742 22.1988V23.9959H39.2858C39.9786 23.9959 40.7027 23.8191 41.1037 23.4983V23.9959H44.5648C45.285 23.9959 45.9884 23.8952 46.5236 23.6375C46.5236 -18.907 46.5234 34.0335 46.5234 16.2203Z" fill="#006FCF"/>
<path fill-rule="evenodd" clip-rule="evenodd" d="M1.28241 14.4053L1.797 13.1678H2.94908L3.46233 14.4053H7.95281V13.4592L8.35363 14.4093H10.6848L11.0856 13.4451V14.4053H22.2453L22.24 12.3739H22.456C22.6072 12.3792 22.6513 12.3931 22.6513 12.642V14.4053H28.4232V13.9324C28.8887 14.1811 29.6128 14.4053 30.5657 14.4053H32.9939L33.5135 13.1678H34.6656L35.1738 14.4053H39.8531V13.2298L40.5617 14.4053H44.3113V6.63477H40.6004V7.55248L40.0808 6.63477H36.2729V7.55248L35.7958 6.63477H30.6523C29.7913 6.63477 29.0345 6.75458 28.4232 7.0885V6.63477H24.8737V7.0885C24.4847 6.74433 23.9546 6.63477 23.3652 6.63477H10.3977L9.52762 8.64177L8.63411 6.63477H4.54968V7.55248L4.10099 6.63477H0.617624L-1 10.3293V14.4053H1.28241Z" fill="#006FCF"/>
<path fill-rule="evenodd" clip-rule="evenodd" d="M22.5637 21.0244C23.7313 21.0244 24.8898 20.7048 24.8898 19.1567C24.8898 17.6134 23.6988 17.3208 22.6387 17.3208H18.3706L16.6715 19.1475L15.0281 17.3208H9.65576V22.8936H14.9467L16.656 21.0488L18.3008 22.8936H20.897V21.0244H22.5637ZM20.897 19.8926H22.6232C23.1365 19.8926 23.4557 19.6387 23.4557 19.1568C23.4557 18.6694 23.121 18.4735 22.6387 18.4735H20.897V19.8926ZM14.2705 21.7323H10.9863V20.6235H13.9189V19.4865H10.9863V18.4733H14.3352L15.7962 20.0973L14.2705 21.7323ZM19.5666 22.3868L17.5158 20.1168L19.5666 17.9189V22.3868Z" fill="white"/>
<path fill-rule="evenodd" clip-rule="evenodd" d="M30.6023 20.7717C30.4883 20.6093 30.2453 20.4132 29.948 20.3038C30.2996 20.1647 30.8946 19.7108 30.8947 18.8213C30.8947 18.1856 30.6296 17.8377 30.208 17.5838C29.7696 17.3505 29.2771 17.3208 28.6009 17.3208H25.517V22.8936H26.8592V20.8582H28.2867C28.774 20.8582 29.0715 20.9059 29.2666 21.1056C29.4901 21.3388 29.4862 21.7644 29.4832 22.0916C29.4829 22.1278 29.4826 22.1629 29.4826 22.1964V22.8936H30.8236V21.7889C30.8182 21.2977 30.7909 21.0437 30.6023 20.7717ZM29.1412 19.6103C28.9626 19.716 28.7416 19.7251 28.4817 19.7251H26.859V18.4735H28.5038C28.7416 18.4735 28.9796 18.4785 29.1412 18.5741C29.3144 18.6644 29.4178 18.837 29.4178 19.0754C29.4178 19.3139 29.3144 19.506 29.1412 19.6103Z" fill="white"/>
<path d="M41.1943 19.9545C41.4544 20.2228 41.5938 20.5616 41.5938 21.1352C41.5938 22.334 40.8425 22.8936 39.4954 22.8936H36.8938V21.6986H39.485C39.7383 21.6986 39.918 21.6652 40.0306 21.5607C40.1225 21.4744 40.1884 21.3493 40.1884 21.1972C40.1884 21.0348 40.1171 20.9059 40.0254 20.8286C39.9232 20.7436 39.7823 20.705 39.5497 20.705C39.4679 20.7022 39.3848 20.6999 39.3008 20.6976C38.1024 20.6652 36.7362 20.6281 36.7362 18.9801C36.7362 18.1718 37.2456 17.321 38.6459 17.321H41.3237V18.5071H38.8735C38.6306 18.5071 38.4726 18.5161 38.3383 18.6077C38.192 18.698 38.1377 18.8319 38.1377 19.0087C38.1377 19.2189 38.2619 19.3619 38.43 19.4238C38.5709 19.4727 38.7223 19.4869 38.9498 19.4869L39.6689 19.5063C40.394 19.5239 40.8917 19.6489 41.1943 19.9545Z" fill="white"/>
<path d="M46.5225 18.5067H44.088C43.845 18.5067 43.6835 18.5158 43.5475 18.6074C43.4066 18.6976 43.3523 18.8315 43.3523 19.0083C43.3523 19.2186 43.4713 19.3616 43.6444 19.4234C43.7853 19.4723 43.9367 19.4866 44.1592 19.4866L44.8831 19.5059C45.6136 19.5239 46.1013 19.6491 46.3986 19.9544C46.4443 19.9903 46.4746 20.0299 46.5053 20.0701L46.5136 20.081L46.5189 20.0879L46.5225 20.0924V22.1808C46.198 22.6538 45.5658 22.8936 44.7098 22.8936H42.1303V21.6986H44.6994C44.9543 21.6986 45.1326 21.6652 45.24 21.5607C45.333 21.4745 45.3979 21.3493 45.3979 21.1972C45.3979 21.0348 45.333 20.906 45.2347 20.8287C45.1378 20.7436 44.9967 20.705 44.7641 20.705C44.6821 20.7022 44.5987 20.6999 44.5145 20.6977C43.3119 20.6652 41.9452 20.6283 41.9452 18.9801C41.9452 18.1718 42.46 17.321 43.8617 17.321H46.5223L46.5225 18.5067Z" fill="white"/>
<path d="M31.6354 17.3208H36.0935V18.4733H32.9656V19.4864H36.0171V20.6235H32.9656V21.7322L36.0935 21.7373V22.8936H31.6354V17.3208Z" fill="white"/>
<path fill-rule="evenodd" clip-rule="evenodd" d="M3.2833 10.8988L2.36905 8.67771L1.46004 10.8988H3.2833ZM23.424 10.0144C23.2404 10.1255 23.0233 10.1292 22.7632 10.1292H21.1405V8.89169H22.7853C23.0181 8.89169 23.261 8.90211 23.4187 8.99219C23.592 9.07335 23.6992 9.24611 23.6992 9.48474C23.6992 9.72824 23.5972 9.92418 23.424 10.0144ZM35 10.8988L34.0756 8.67771L33.1563 10.8988H35ZM13.4215 13.3029H12.0522L12.0471 8.93938L10.1103 13.3029H8.93747L6.99555 8.93551V13.3029H4.27878L3.76553 12.0602H0.984367L0.465891 13.3029H-0.984863L1.4071 7.73145H3.39167L5.66346 13.0065V7.73145H7.84355L9.59164 11.511L11.1975 7.73145H13.4214V13.3029H13.4215ZM18.8792 13.3029H14.4171V7.73145H18.8792V8.89165H15.7528V9.89591H18.8042V11.038H15.7528V12.1506H18.8792V13.3029ZM25.1707 9.23195C25.1707 10.1203 24.576 10.5792 24.2295 10.717C24.5217 10.8279 24.7714 11.0238 24.8902 11.1862C25.0788 11.4633 25.1114 11.7108 25.1114 12.2084V13.3029H23.7641L23.759 12.6003C23.759 12.265 23.7912 11.7829 23.5482 11.5149C23.353 11.3189 23.0555 11.2764 22.5746 11.2764H21.1407V13.3029H19.8051V7.73145H22.8773C23.56 7.73145 24.0629 7.74943 24.4948 7.99831C24.9173 8.24719 25.1707 8.61051 25.1707 9.23195ZM27.3083 13.3029H25.9454V7.73145H27.3083V13.3029ZM43.1201 13.3029H41.2273L38.6954 9.1212V13.3029H35.9751L35.4553 12.0602H32.6805L32.1762 13.3029H30.6132C29.9639 13.3029 29.1418 13.1597 28.6763 12.6867C28.2069 12.2136 27.9626 11.5729 27.9626 10.5597C27.9626 9.7334 28.1086 8.97803 28.6827 8.38112C29.1145 7.93646 29.7908 7.73145 30.7113 7.73145H32.0044V8.92526H30.7384C30.2509 8.92526 29.9757 8.99752 29.7106 9.25531C29.4828 9.4899 29.3266 9.93338 29.3266 10.5173C29.3266 11.1143 29.4456 11.5446 29.6939 11.8258C29.8995 12.0463 30.2732 12.1131 30.6248 12.1131H31.2247L33.1073 7.73161H35.1087L37.3702 13.0014V7.73161H39.404L41.752 11.6118V7.73161H43.1201V13.3029Z" fill="white"/>
</g>
<defs>
<clipPath id="clip0_1_2195">
<rect width="46.5" height="31" fill="white"/>
</clipPath>
</defs>
</svg>
