<svg width="19" height="15" viewBox="0 0 19 15" fill="none" xmlns="http://www.w3.org/2000/svg">
<path d="M18.5306 1.83622L6.53055 13.8362C6.4609 13.906 6.37818 13.9613 6.28713 13.999C6.19609 14.0368 6.09849 14.0562 5.99993 14.0562C5.90137 14.0562 5.80377 14.0368 5.71272 13.999C5.62168 13.9613 5.53896 13.906 5.4693 13.8362L0.219304 8.58622C0.0785732 8.44549 -0.000488281 8.25462 -0.000488281 8.05559C-0.000488281 7.85657 0.0785732 7.6657 0.219304 7.52497C0.360034 7.38424 0.550906 7.30517 0.749929 7.30517C0.948952 7.30517 1.13982 7.38424 1.28055 7.52497L5.99993 12.2453L17.4693 0.774967C17.61 0.634237 17.8009 0.555176 17.9999 0.555176C18.199 0.555176 18.3898 0.634237 18.5306 0.774967C18.6713 0.915698 18.7503 1.10657 18.7503 1.30559C18.7503 1.50462 18.6713 1.69549 18.5306 1.83622Z" fill="#FF3B7F"/>
</svg>
