<svg width="19" height="15" viewBox="0 0 19 15" fill="none" xmlns="http://www.w3.org/2000/svg">
<path d="M18.5307 1.83622L6.53068 13.8362C6.46102 13.906 6.3783 13.9613 6.28726 13.999C6.19621 14.0368 6.09861 14.0562 6.00005 14.0562C5.90149 14.0562 5.80389 14.0368 5.71285 13.999C5.6218 13.9613 5.53908 13.906 5.46943 13.8362L0.219426 8.58622C0.0786953 8.44549 -0.000366211 8.25462 -0.000366211 8.05559C-0.000366211 7.85657 0.0786953 7.6657 0.219426 7.52497C0.360156 7.38424 0.551028 7.30517 0.750051 7.30517C0.949074 7.30517 1.13995 7.38424 1.28068 7.52497L6.00005 12.2453L17.4694 0.774967C17.6102 0.634237 17.801 0.555176 18.0001 0.555176C18.1991 0.555176 18.3899 0.634237 18.5307 0.774967C18.6714 0.915698 18.7505 1.10657 18.7505 1.30559C18.7505 1.50462 18.6714 1.69549 18.5307 1.83622Z" fill="white"/>
</svg>
