<svg width="64" height="64" viewBox="0 0 64 64" fill="none" xmlns="http://www.w3.org/2000/svg">
<path d="M10.1998 26.6398C9.32559 28.1763 8.65046 29.8177 8.19063 31.5245L7.81348 32.9242M41.2149 5.47514L33.8198 3.48237C25.804 1.3224 17.5547 6.06962 15.3948 14.0855L13.402 21.4807L20.7972 23.4735C28.8131 25.6335 37.0623 20.8864 39.2223 12.8705L41.2149 5.47514Z" stroke="#282135" stroke-opacity="0.6" stroke-width="1.87454" stroke-miterlimit="10"/>
<path d="M27.3082 13.478L17.9215 18.8797C14.7021 20.7323 12.0362 23.4114 10.1995 26.6399M34.9832 58.7501C36.7508 58.7389 38.5099 58.5029 40.2179 58.0478L41.6186 57.6746M1.14648 42.4726L3.11825 49.8733C5.25561 57.8952 13.4913 62.6656 21.5134 60.5283L28.9141 58.5565L26.9423 51.1558C24.805 43.1339 16.5692 38.3635 8.54718 40.5008L1.14648 42.4726Z" stroke="#282135" stroke-opacity="0.6" stroke-width="1.87454" stroke-miterlimit="10"/>
<path d="M15.0293 50.5143L24.4006 55.9425C27.6147 57.8043 31.2679 58.7735 34.9822 58.7498M50.3985 21.2316C49.505 19.7063 48.4211 18.3009 47.1728 17.0493L46.1493 16.0229M53.2201 58.6738L58.6434 53.2657C64.522 47.4038 64.5355 37.8861 58.6734 32.0075L53.2653 26.5842L47.842 31.9923C41.9635 37.8542 41.95 47.3719 47.812 53.2505L53.2201 58.6738Z" stroke="#282135" stroke-opacity="0.6" stroke-width="1.87454" stroke-miterlimit="10"/>
<path d="M53.2437 42.629L53.259 31.799C53.2643 28.0846 52.277 24.4363 50.3994 21.2314" stroke="#282135" stroke-opacity="0.6" stroke-width="1.87454" stroke-miterlimit="10"/>
</svg>
