<svg width="47" height="31" viewBox="0 0 47 31" fill="none" xmlns="http://www.w3.org/2000/svg">
<g clip-path="url(#clip0_1_2202)">
<path d="M0.5 3.875C0.5 1.7349 2.2349 0 4.375 0H43.125C45.2651 0 47 1.7349 47 3.875V27.125C47 29.2651 45.2651 31 43.125 31H4.375C2.2349 31 0.5 29.2651 0.5 27.125V3.875Z" fill="#FFF1E7"/>
<path d="M22.7694 14.8575C22.8525 13.9509 23.1639 12.854 24.1778 12.6083C24.9183 12.3384 26.2678 12.3696 26.5135 13.2485C25.2885 13.8333 24.0221 14.3316 22.7694 14.8575Z" fill="white"/>
<path d="M10.2084 7.30373C11.9317 6.85043 13.8314 6.83659 15.4231 7.73281C17.3713 8.59789 18.5893 10.5218 19.1602 12.508C18.2433 12.7122 17.3263 12.9129 16.4058 13.117C15.8764 10.8021 13.4265 9.32109 11.1289 9.99585C10.8071 9.10309 10.4922 8.20687 10.2084 7.30373Z" fill="#FFCC00"/>
<path d="M5.50255 13.8887C5.44372 11.9128 6.40915 10.0443 7.80019 8.69476C8.42305 9.40758 9.05282 10.1135 9.66876 10.8298C7.98359 12.4734 7.90746 15.3558 9.67568 16.9684C9.05628 17.6881 8.42651 18.4009 7.80019 19.1137C6.36762 17.7746 5.47487 15.8645 5.50255 13.8887Z" fill="#00A0DE"/>
<path d="M30.0187 8.79854C30.6139 8.79854 31.209 8.79854 31.8077 8.79854C31.8077 11.508 31.8077 14.2174 31.8077 16.9303C32.2229 17.1033 32.6382 17.2763 33.0534 17.4528C32.8181 17.9995 32.5793 18.5462 32.344 19.093C31.7316 18.8231 31.0914 18.5981 30.5239 18.2383C29.9737 17.778 30.0429 16.9822 30.0118 16.3351C30.0187 13.8229 30.0187 11.3107 30.0187 8.79854Z" fill="#282135"/>
<path d="M21.669 12.4457C22.7694 10.719 25.2123 10.0996 27.0048 11.0858C28.1432 11.5287 28.6692 12.7018 29.1882 13.7122C26.6172 14.8126 24.0739 15.9718 21.4856 17.0272C20.7797 15.5842 20.7312 13.7987 21.669 12.4457ZM22.7694 14.8575C24.0221 14.3316 25.2885 13.8333 26.5135 13.2485C26.2678 12.3696 24.9183 12.3384 24.1778 12.6083C23.1639 12.854 22.8525 13.9509 22.7694 14.8575Z" fill="#282135"/>
<path d="M35.9981 10.8124C38.358 10.0373 40.9048 11.6187 41.4758 13.9786C40.8633 14.1205 40.2474 14.2658 39.6349 14.4077C39.2646 13.0928 37.9255 12.2139 36.5691 12.591C36.3787 11.9993 36.1884 11.4042 35.9981 10.8124Z" fill="#282135"/>
<path d="M34.5206 18.0756C32.7489 16.3628 32.6624 13.3073 34.5171 11.6222C34.9358 12.0997 35.358 12.5737 35.7766 13.0478C34.8735 14.0859 34.8251 15.605 35.7697 16.6327C35.3545 17.1137 34.9393 17.5946 34.5206 18.0756Z" fill="#282135"/>
<path d="M39.628 15.297C40.2508 15.4458 40.8737 15.5946 41.5 15.7434C41.154 16.5877 40.7699 17.4528 40.0709 18.0618C38.9878 19.0757 37.3649 19.2521 35.9808 18.875C36.1815 18.2763 36.3822 17.6812 36.5864 17.086C37.9463 17.3974 39.1989 16.5946 39.628 15.297Z" fill="#282135"/>
<path d="M27.1086 16.214C27.6172 16.5462 28.119 16.8853 28.6242 17.2244C27.2851 18.9961 24.6552 19.6293 22.7555 18.3767C23.0946 17.8542 23.4337 17.3317 23.7694 16.8092C24.8767 17.6189 26.2504 17.1275 27.1086 16.214Z" fill="#282135"/>
<path d="M11.0735 17.8646C13.3607 18.4355 15.8522 17.003 16.4058 14.6915C17.3263 14.8922 18.2467 15.0929 19.1637 15.2936C18.6066 17.3836 17.2398 19.3421 15.1878 20.1795C13.6445 20.9754 11.8417 20.927 10.198 20.5013C10.4956 19.6259 10.7828 18.7435 11.0735 17.8646Z" fill="#EC3413"/>
</g>
<defs>
<clipPath id="clip0_1_2202">
<rect width="46.5" height="31" fill="white" transform="translate(0.5)"/>
</clipPath>
</defs>
</svg>
