<svg width="234" height="261" viewBox="0 0 234 261" fill="none" xmlns="http://www.w3.org/2000/svg">
<g clip-path="url(#clip0_29_881)">
<path opacity="0.39" d="M143.459 0H149.441L148.98 0.471808C144.904 1.61619 140.718 2.24862 136.572 3.10188C131.854 4.05554 127.528 6.29412 122.85 7.39835C128.923 3.07177 136.522 2.23858 143.459 0Z" fill="#282135"/>
<path opacity="0.78" d="M149.443 0H155.386C153.599 1.59612 150.869 2.40923 148.981 0.471808L149.443 0Z" fill="#5F1F34"/>
<path d="M155.386 0H162.835C164.662 1.53588 167.392 2.41927 169.3 0.481846C173.646 1.75673 178.143 2.43935 182.651 2.86096C199.134 7.50877 214.362 17.3264 224.381 31.3501C227.663 36.0381 230.283 41.248 231.709 46.8194C233.546 56.376 233.606 66.1535 231.719 75.7101C228.215 89.1215 218.468 100.023 207.486 108.034C192.358 118.775 173.435 123.714 154.985 122.419C152.736 121.947 150.417 120.542 148.108 121.265C146.733 122.349 145.81 123.865 144.705 125.2C133.362 135.479 117.672 139.685 102.644 140.157C101.59 141.854 100.556 143.58 99.5724 145.317C98.5183 144.072 97.4743 142.817 96.4303 141.572C95.5168 144.453 94.7338 147.465 92.9068 149.934C92.8165 144.735 93.208 139.484 92.1339 134.355C87.225 133.24 82.0753 132.076 78.1202 128.763C74.7874 126.254 72.8299 122.399 69.6276 119.759C62.8717 119.106 56.3066 121.365 49.6712 122.258C49.6109 121.506 49.4804 120 49.4202 119.247C50.6047 118.715 51.7993 118.193 52.9939 117.671C49.7414 107.311 46.5893 96.9314 43.4172 86.5516C43.1562 85.6983 42.6342 83.9717 42.3732 83.1185C42.1624 83.4598 41.7408 84.1424 41.53 84.4837C38.1068 89.0612 36.6513 94.6326 34.3826 99.7924C33.961 100.666 33.5092 101.529 33.0274 102.372C30.5178 102.673 27.9981 102.954 25.4785 103.296C24.0831 103.095 22.6777 102.844 21.3025 102.533C21.1318 102.342 20.8005 101.971 20.6299 101.79C23.782 101.419 26.934 101.067 30.0962 100.836C34.0915 95.1345 35.798 88.2582 39.3115 82.2953C41.3593 82.4359 43.4072 82.5965 45.445 82.7671C47.8642 91.7214 50.8958 100.505 53.2449 109.49C54.0178 112.531 55.122 115.482 56.2965 118.404C63.5845 117.038 70.8624 115.513 77.9495 113.324C83.1394 111.788 88.9015 110.704 94.1315 112.692C99.4419 115.322 102.132 121.044 103.427 126.545C106.358 124.989 108.406 122.339 109.571 119.257L109.671 119.046C111.528 115.944 112.141 112.381 112.191 108.817C104.652 103.025 97.2936 96.5499 92.5254 88.208C88.9115 82.0745 86.1208 75.3387 85.5285 68.1913C84.3842 60.9636 85.7092 53.7058 86.3517 46.4982C91.7223 28.6397 106.519 15.3789 122.852 7.39835C127.529 6.29412 131.856 4.05554 136.574 3.10188C140.72 2.24862 144.906 1.61619 148.982 0.471808C150.869 2.40923 153.599 1.59612 155.386 0ZM153.318 4.79838C147.024 5.85242 140.439 5.81227 134.466 8.30181C133.994 8.42227 133.041 8.65315 132.559 8.77361C130.491 9.51646 128.393 10.169 126.295 10.8315C122.048 13.2307 117.591 15.2585 113.566 18.0492C103.668 25.4977 94.7639 35.0342 91.0597 47.1105C88.1185 57.2995 88.4196 68.392 92.2142 78.3201C92.957 79.9965 93.7099 81.6629 94.4929 83.3192C97.9361 89.8844 102.945 95.4357 108.416 100.375C110.795 102.302 113.275 104.109 115.664 106.026C115.774 109.409 115.724 112.792 115.734 116.185L115.544 116.516C114.58 119.367 113.174 122.038 111.659 124.628C109.661 127.027 107.593 129.356 105.365 131.534C104.501 132.016 103.608 132.447 102.785 133.01C100.385 133.18 98.9299 135.088 97.5847 136.834C100.064 137.045 102.544 137.115 105.023 137.115C105.385 136.684 106.107 135.82 106.469 135.389C110.203 135.359 113.867 134.535 117.491 133.722C123.082 132.267 128.604 130.49 133.553 127.448C137.096 125.421 140.61 123.242 143.481 120.301C145.006 119.086 146.593 117.942 148.249 116.898C149.614 117.591 151.06 117.962 152.585 118.022C163.347 118.514 174.339 117.751 184.578 114.208C187.64 113.003 190.822 112.11 193.834 110.754C195.149 109.971 196.514 109.269 197.889 108.586L198.12 108.405C203.27 106.819 208.178 103.416 211.23 98.9491C214.954 95.8773 217.956 92.0627 220.847 88.218C222.794 85.0157 224.722 81.8034 226.177 78.3301C226.268 77.8382 226.459 76.8545 226.549 76.3626C230.173 67.1172 229.47 56.7273 227.221 47.2008C225.485 43.7275 224.672 39.7623 222.082 36.7608C221.57 33.8296 219.793 31.3602 217.233 29.8745C213.971 25.7487 210.096 21.9943 205.599 19.2437C205.348 18.9024 204.866 18.2098 204.625 17.8685C202.989 17.0252 201.382 16.1318 199.806 15.1882C195.41 12.4377 190.621 10.3998 185.702 8.78365C184.719 8.60296 183.755 8.39215 182.801 8.15123C178.214 6.14354 173.114 5.58138 168.155 5.43081L168.135 4.52735C163.196 4.54742 158.227 4.00535 153.318 4.79838Z" fill="#580320"/>
<path opacity="0.78" d="M162.834 0H168.827L169.299 0.481846C167.391 2.41927 164.661 1.53588 162.834 0Z" fill="#5E1D33"/>
<path opacity="0.39" d="M168.827 0H174.82C177.53 0.6525 180.11 1.72662 182.65 2.86096C178.143 2.43935 173.646 1.75673 169.299 0.481846L168.827 0Z" fill="#282135"/>
<path d="M63.0312 30.5002C63.6934 30.1687 64.4053 29.9416 65.1415 29.8622C67.0025 29.6615 68.4258 29.6851 70.1232 30.0791C71.5322 30.4062 72.6957 31.3361 73.6926 32.3842C74.8941 33.6475 75.8756 35.1782 75.9628 36.9194C76.0551 38.7604 75.836 40.5952 74.9181 42.2622C74.8985 42.2979 74.881 42.3295 74.8654 42.3576C74.6309 42.7796 74.3887 43.1965 74.105 43.5873C72.6937 46.1995 71.7096 48.7531 70.1096 51.171C69.7383 51.7322 69.2924 52.239 68.8166 52.7149C68.6168 52.9147 68.3921 53.1393 68.1242 53.4072C67.7308 53.8007 67.3923 54.2457 67.1182 54.7299C66.4606 56.1017 65.2889 57.8642 64.1227 59.4819C61.9791 62.455 60.6546 65.9819 60.6936 69.6471C60.6811 70.2774 61.142 71.2996 61.4876 72.224C61.8286 73.1359 61.5672 74.2365 60.6936 74.6663C60.1691 74.9089 59.5864 74.9968 59.0139 74.9176C58.9473 74.9084 58.8796 74.8991 58.8114 74.8896C57.778 74.7465 56.8534 74.1778 56.2332 73.339C56.0598 73.1045 55.8851 72.8713 55.7089 72.6391C55.0903 71.8237 54.6636 70.8704 54.5719 69.851C54.1918 65.6283 54.7183 61.2792 57.6319 57.9724C58.0312 57.5002 57.5668 58.0469 58.0312 57.5002C58.3669 57.0593 58.6622 56.5893 58.9717 56.1297C59.7532 54.969 60.7759 53.8778 61.4365 52.6821C63.8424 49.1751 66.6992 45.9763 68.6415 42.1928C69.1352 41.2312 69.5545 40.2334 69.8186 39.1603C70.1923 37.1216 67.6951 35.7809 65.6225 35.766C64.5301 35.7581 63.481 35.9898 62.5312 36.4198C61.1086 37.0639 59.8745 38.0587 58.5543 38.8929C57.5542 39.5249 56.574 40.2111 55.5037 40.656C54.439 41.1564 53.4585 41.9704 52.4275 42.6348C51.044 43.5264 49.1763 43.0226 48.9044 41.3994C48.5487 39.2759 49.8387 37.1098 51.7193 36.0614C52.8772 35.4158 54.0419 34.7832 55.1925 34.131C56.869 33.3279 58.4575 32.3325 60.2218 31.7619C61.0312 31.5002 62.0312 31.0002 63.0312 30.5002Z" fill="#FA3D80"/>
<path opacity="0.53" d="M217.232 29.8742C219.792 31.3599 221.569 33.8294 222.081 36.7606C220.314 34.5722 218.718 32.2533 217.232 29.8742Z" fill="#3C1421"/>
<path opacity="0.35" d="M87.9973 81.8434C83.6406 70.7207 81.4321 57.8213 86.351 46.4979C85.7085 53.7055 84.3834 60.9634 85.5278 68.191C86.1201 75.3384 88.9108 82.0742 92.5246 88.2077C97.2929 96.5497 104.651 103.025 112.19 108.817C112.14 112.38 111.527 115.944 109.67 119.046C110.122 115.834 110.483 112.621 110.895 109.409C107.03 106.096 103.055 102.904 99.4913 99.2701C94.5424 94.3011 90.8683 88.1977 87.9973 81.8434Z" fill="#331922"/>
<path opacity="0.35" d="M0 106.979C2.58992 137.567 1.11427 168.294 1.23473 198.952C0.923539 184.155 1.46562 169.358 1.08415 154.572C0.672577 146.862 2.27873 138.982 0 131.453V106.979Z" fill="#331922"/>
<path opacity="0.25" d="M231.707 46.8192C232.45 47.7026 233.183 48.6061 233.895 49.5196V72.9493C233.183 73.8829 232.46 74.8064 231.717 75.7099C233.604 66.1533 233.544 56.3758 231.707 46.8192Z" fill="#1C060D"/>
<path d="M59.3489 82.86C58.9994 81.1016 61.1338 79.5145 62.9026 79.8071C63.579 79.919 64.2719 80.274 64.5788 80.887C64.7275 81.184 64.842 81.4927 64.922 81.8071C65.2446 83.0738 64.4346 84.3603 63.1808 84.7298C62.0486 85.0634 60.8164 85.0014 60.0559 84.104C59.8806 83.8971 59.7097 83.6815 59.5706 83.4487C59.4602 83.264 59.39 83.0666 59.3489 82.86Z" fill="#F5407E"/>
<path opacity="0.08" d="M0 131.454C2.27873 138.983 0.672577 146.863 1.08415 154.573C1.46562 169.359 0.923539 184.156 1.23473 198.953C1.53588 214.091 0.170654 229.219 0.873346 244.367L0 244.045V131.454Z" fill="#150D10"/>
<path opacity="0.41" d="M35.4962 86.7226C36.5904 84.474 37.7548 81.8339 40.2243 80.81C42.1717 80.2378 44.9022 80.298 46.0366 82.2957C48.2852 85.9798 48.7771 90.3766 50.0419 94.4322C52.3608 101.79 54.5793 109.169 56.6974 116.587C64.5876 115.714 72.1968 113.415 79.9164 111.678C84.3534 110.233 89.3324 108.968 93.7293 111.287C99.4813 113.425 102.603 119.056 104.4 124.578C106.127 122.811 107.894 121.074 109.57 119.257C108.406 122.339 106.358 124.989 103.426 126.545C102.131 121.044 99.4412 115.322 94.1308 112.692C88.9008 110.705 83.1387 111.789 77.9488 113.325C70.8617 115.513 63.5838 117.039 56.2959 118.404C55.1214 115.483 54.0171 112.531 53.2442 109.49C50.8952 100.505 47.8636 91.7218 45.4443 82.7675C43.4065 82.5968 41.3586 82.4362 39.3108 82.2957C35.7973 88.2585 34.0908 95.1348 30.0955 100.837C26.9334 101.068 23.7813 101.419 20.6292 101.79C18.1597 98.6383 15.7606 95.4159 13.3513 92.2137C11.9058 90.2562 10.5807 88.1983 9.33594 86.1002C14.2046 89.8446 16.9451 95.5464 21.0107 100.044C24.0423 99.7726 27.0639 99.5116 30.0955 99.2506C32.0831 95.1549 33.7194 90.9087 35.4962 86.7226Z" fill="#2E121C"/>
<path d="M41.5292 84.4836C41.74 84.1423 42.1616 83.4597 42.3725 83.1184C42.6335 83.9716 43.1555 85.6983 43.4165 86.5515C42.2219 91.2295 38.7185 95.0541 38.4173 100.033C37.9656 100.013 37.0521 99.9529 36.6003 99.9228C36.0482 99.8926 34.944 99.8224 34.3818 99.7923C36.6505 94.6325 38.1061 89.0611 41.5292 84.4836Z" fill="#FED6EC"/>
<path opacity="0.93" d="M3.17215 85.2367C5.20996 84.2831 7.38831 85.4676 9.33577 86.1C10.5805 88.1981 11.9056 90.256 13.3512 92.2135C12.1465 92.0127 10.9419 91.8119 9.73731 91.6011C8.46242 89.7942 6.68562 87.2946 4.13585 88.0575C3.03162 89.9247 2.70035 92.1131 2.66019 94.2412C2.39919 104.842 3.22235 115.432 4.21615 125.973C5.11962 164.229 3.87485 202.516 4.49723 240.773C7.01689 237.169 9.68712 233.675 12.5581 230.353C12.5882 230.062 12.6485 229.479 12.6786 229.198C14.9673 227.06 17.1156 224.781 19.1433 222.402C24.2429 222.292 29.3424 222.312 34.4319 222.382C34.8335 223.105 35.235 223.828 35.6365 224.561C37.8952 230.604 41.0874 236.245 44.1391 241.907C44.7214 241.355 45.9059 240.241 46.4982 239.678C47.2812 238.956 47.9738 238.143 48.536 237.239C49.0881 237.841 50.1923 239.056 50.7444 239.658C49.4997 242.429 47.1707 244.407 44.4001 245.561C43.2758 245.029 42.1515 244.507 41.0272 243.995C38.0658 238.112 35.1246 232.22 32.2335 226.297C28.3687 226.217 24.4939 226.187 20.619 226.116C15.4793 231.557 11.6446 238.082 6.50492 243.513C5.12965 245.22 2.7405 244.467 0.873346 244.366C0.170654 229.218 1.53588 214.09 1.23473 198.952C1.11427 168.295 2.58992 137.567 0 106.98V90.1355C0.682615 88.3286 1.11427 85.9996 3.17215 85.2367Z" fill="#560F27"/>
<path d="M43.417 86.5514C46.5891 96.9312 49.7412 107.311 52.9936 117.671C51.7991 118.193 50.6045 118.715 49.42 119.247C49.4802 120 49.6107 121.505 49.6709 122.258C56.3063 121.365 62.8715 119.106 69.6274 119.759C72.8296 122.399 74.7871 126.254 78.1199 128.763C82.0751 132.076 87.2248 133.24 92.1336 134.355C93.2077 139.484 92.8162 144.734 92.9066 149.934C87.0441 157.212 78.8728 162.553 69.6575 164.39C58.5449 165.996 46.4486 166.628 36.1491 161.388C33.1275 159.973 30.3971 158.045 27.6265 156.218C30.1863 154.191 32.7762 152.213 35.336 150.195C33.6596 149.503 31.7924 148.178 29.9755 149.272C24.4643 152.052 19.3849 157.082 19.405 163.677C22.4065 163.556 23.6512 160.946 24.9863 158.738C29.4033 162.031 34.041 165.143 39.3012 166.899C48.7173 170.312 58.8963 169.128 68.6838 168.867C69.4868 172.782 70.2196 176.787 71.7856 180.481C72.2575 181.736 73.442 182.449 74.5864 182.991C85.8495 187.679 97.4841 191.493 108.667 196.392C109.781 202.737 111.879 208.85 113.134 215.164C114.861 223.215 118.234 230.985 118.304 239.327C114.891 237.048 111.819 234.308 108.928 231.406C106.76 229.369 104.481 227.04 101.419 226.518C94.4525 225.253 87.3553 224.932 80.3284 224.139C72.5887 223.255 64.8792 221.88 57.0693 222.101C54.4894 227.301 50.745 231.848 48.5366 237.239C47.9744 238.142 47.2818 238.955 46.4988 239.678C47.9142 236.827 46.6694 234.026 45.6053 231.306L44.742 231.376C44.6517 230.784 44.471 229.6 44.3806 229.007C43.939 227.803 43.5274 226.588 43.1359 225.363C41.068 224.098 36.9321 221.207 35.6371 224.56C35.2356 223.827 34.8341 223.105 34.4325 222.382C29.343 222.312 24.2435 222.292 19.144 222.402C17.1162 224.781 14.968 227.06 12.6792 229.198L12.8599 227.491L11.6151 227.431C10.3703 209.191 10.6313 190.881 10.2599 172.601C10.531 150.868 9.35645 129.135 9.3163 107.391C9.40665 102.563 8.09161 97.4331 10.5209 92.956C13.1811 97.2926 16.1525 101.589 19.8768 105.082C25.6188 106.016 31.4511 106.257 37.1831 107.281C37.6248 104.872 38.0263 102.452 38.4178 100.033C38.719 95.054 42.2224 91.2293 43.417 86.5514ZM36.651 110.664C36.6711 113.746 35.7476 117.339 37.9661 119.919C42.2525 121.355 41.7004 115.803 41.8108 113.173C40.3954 111.738 38.7591 110.604 36.651 110.664ZM28.4596 123.352C30.2063 119.909 30.1863 112.822 24.7253 113.655C22.015 116.938 23.6211 123.212 28.4596 123.352Z" fill="#FF3B7F"/>
<path opacity="0.46" d="M2.66018 94.2408C2.70034 92.1126 3.0316 89.9243 4.13584 88.0571C6.6856 87.2942 8.46241 89.7938 9.7373 91.6007C9.92803 91.942 10.3296 92.6146 10.5203 92.9559C8.09099 97.433 9.40603 102.563 9.31568 107.391C9.35583 129.134 10.5303 150.868 10.2593 172.601C8.02072 153.638 8.66318 134.455 8.10103 115.392C8.42226 107.602 6.6053 99.6013 8.9543 91.9922C7.55895 90.637 6.0331 89.4023 4.37676 88.3583C2.5598 100.836 4.84857 113.424 4.21614 125.972C3.22233 115.432 2.39918 104.841 2.66018 94.2408Z" fill="#562435"/>
<path d="M9.7373 91.6009C10.9419 91.8117 12.1465 92.0124 13.3512 92.2132C15.7604 95.4155 18.1596 98.6378 20.629 101.79C20.7997 101.971 21.131 102.342 21.3016 102.533C22.6769 102.844 24.0823 103.095 25.4776 103.296C24.3734 103.828 23.2591 104.36 22.1649 104.912C21.5927 104.952 20.4483 105.042 19.8762 105.083C16.1519 101.589 13.1805 97.2927 10.5203 92.9561C10.3296 92.6147 9.92804 91.9422 9.7373 91.6009Z" fill="#7E0A34"/>
<path opacity="0.57" d="M198.119 108.405C202.406 105.133 206.873 102.121 211.229 98.9492C208.178 103.416 203.269 106.819 198.119 108.405Z" fill="#3C1120"/>
<path opacity="0.81" d="M36.601 99.9224C37.0528 99.9526 37.9663 100.013 38.418 100.033C38.0265 102.452 37.625 104.871 37.1833 107.281C31.4513 106.257 25.619 106.016 19.877 105.082C20.4491 105.042 21.5935 104.952 22.1657 104.912C25.0769 105.042 27.988 105.293 30.9092 105.434C32.7864 105.524 34.6736 105.624 36.5609 105.725C36.581 103.787 36.601 101.86 36.601 99.9224Z" fill="#C74674"/>
<path opacity="0.51" d="M25.4777 103.296C27.9974 102.955 30.517 102.674 33.0267 102.373C32.3541 103.417 31.6213 104.421 30.9085 105.435C27.9873 105.294 25.0762 105.043 22.165 104.913C23.2592 104.36 24.3735 103.828 25.4777 103.296Z" fill="#582034"/>
<path opacity="0.29" d="M115.664 106.027C115.955 106.278 116.537 106.76 116.829 107.011C117.009 109.52 116.979 112.05 116.658 114.539C116.427 114.951 115.965 115.774 115.734 116.186C115.724 112.793 115.774 109.41 115.664 106.027Z" fill="#241016"/>
<path d="M36.6504 110.664C38.7585 110.604 40.3948 111.738 41.8102 113.174C41.6998 115.804 42.2519 121.355 37.9654 119.92C35.7469 117.34 36.6705 113.746 36.6504 110.664Z" fill="#670021"/>
<path d="M28.4595 123.352C23.621 123.212 22.0148 116.938 24.7252 113.655C30.1861 112.822 30.2062 119.909 28.4595 123.352Z" fill="#6D0024"/>
<path opacity="0.73" d="M148.108 121.264C150.417 120.542 152.736 121.947 154.984 122.419C151.351 122.308 147.486 122.539 144.705 125.199C145.809 123.864 146.733 122.348 148.108 121.264Z" fill="#4D1125"/>
<path opacity="0.76" d="M97.584 136.835C98.9291 135.088 100.385 133.181 102.784 133.01C102.342 133.612 101.469 134.817 101.027 135.419C102.834 135.419 104.651 135.429 106.468 135.389C106.107 135.821 105.384 136.684 105.022 137.116C102.543 137.116 100.063 137.045 97.584 136.835Z" fill="#53152A"/>
<path d="M96.4296 141.572C97.4736 142.817 98.5176 144.072 99.5717 145.317C94.1108 156.349 83.7009 164.591 71.7752 167.572C72.5883 170.825 73.1504 174.157 74.1643 177.36C75.2184 180.341 78.6816 180.994 81.2916 181.987C87.0939 183.754 92.4343 186.976 98.5176 187.749C100.094 185.109 101.76 182.509 103.055 179.719C105.635 175.262 106.609 168.957 102.955 164.801C102.543 162.523 102.111 160.254 101.79 157.965C103.818 158.206 106.328 157.403 107.984 158.979C111.066 161.9 112.963 165.815 114.398 169.76C115.834 173.264 114.459 177.048 115.071 180.682C115.693 185.621 112.551 189.908 112.009 194.686C112.1 198.481 113.334 202.124 114.258 205.778C116.185 213.287 118.494 220.696 120.11 228.285C121.576 233.736 123.433 239.247 122.74 244.979C116.436 245.109 112.933 239.176 108.496 235.683C105.785 233.284 103.236 230.182 99.4412 229.6C95.737 229.098 91.9826 229.218 88.2583 229.198C85.7286 232.28 82.958 235.141 80.2978 238.112C79.6353 237.972 78.3102 237.691 77.6477 237.55C77.7179 236.978 77.8585 235.854 77.9187 235.282C80.2677 233.143 82.4159 230.784 84.3734 228.285C82.4862 228.014 80.5889 227.763 78.7118 227.431C76.9851 227.11 75.2686 226.769 73.5319 226.548C72.3574 226.438 71.1829 226.347 70.0084 226.287C66.4046 226.066 62.8409 225.444 59.2371 225.143C56.4063 229.981 53.5152 234.78 50.7446 239.658C50.1925 239.056 49.0882 237.841 48.5361 237.239C50.7446 231.848 54.4889 227.301 57.0688 222.101C64.8787 221.88 72.5883 223.255 80.3279 224.139C87.3549 224.932 94.4521 225.253 101.419 226.518C104.48 227.04 106.759 229.369 108.928 231.407C111.819 234.308 114.89 237.048 118.303 239.327C118.233 230.985 114.86 223.215 113.134 215.164C111.879 208.85 109.781 202.737 108.667 196.393C97.4837 191.494 85.8491 187.679 74.5859 182.991C73.4416 182.449 72.257 181.736 71.7852 180.482C70.2192 176.787 69.4864 172.782 68.6833 168.867C68.9443 167.351 69.2957 165.866 69.6571 164.39C78.8724 162.553 87.0437 157.212 92.9061 149.935C94.7331 147.465 95.5161 144.454 96.4296 141.572ZM106.689 163.577C106.809 168.957 107.482 174.428 106.267 179.739C105.504 183.202 103.487 186.183 101.549 189.095C103.517 191.303 106.418 191.564 109.189 191.644C111.859 185.38 113.284 178.384 111.588 171.658C110.704 169.198 109.49 166.879 108.416 164.51C107.984 164.279 107.121 163.808 106.689 163.577Z" fill="#660628"/>
<path opacity="0.44" d="M132.046 153.468C136.915 150.015 142.607 147.345 148.529 146.441C153.559 145.678 158.477 150.647 157.203 155.687C155.265 164.771 147.315 170.694 143.319 178.745C141.924 181.335 144.434 183.794 145.237 186.153C143.44 187.639 140.85 189.175 138.571 187.679C135.148 184.718 135.429 179.397 137.286 175.643C140.438 169.6 145.327 164.691 148.841 158.879C149.724 157.333 149.523 155.446 149.854 153.759C143.5 153.93 138.34 157.785 132.94 160.626C131.354 158.668 129.416 155.466 132.046 153.468ZM133.642 153.599C131.364 154.623 132.297 157.313 132.307 159.21C138.652 157.162 144.092 151.079 151.26 153.006C151.089 154.833 151.32 156.811 150.336 158.457C147.134 164.37 142.285 169.208 138.983 175.061C137.236 178.293 136.212 182.529 138.561 185.752C139.113 187.549 142.446 188.472 142.908 186.103C143.159 182.64 141.422 178.785 143.58 175.673C147.084 170.533 151.29 165.856 154.342 160.415C155.918 157.785 156.098 154.552 155.617 151.591C155.315 148.74 151.922 147.947 149.553 147.776C143.801 147.937 138.481 150.718 133.642 153.599Z" fill="#101010"/>
<path d="M133.642 153.599C138.481 150.718 143.801 147.937 149.553 147.776C151.922 147.947 155.315 148.74 155.616 151.591C156.098 154.552 155.918 157.785 154.342 160.415C151.29 165.856 147.084 170.534 143.58 175.673C141.422 178.785 143.159 182.64 142.908 186.103C142.446 188.472 139.113 187.549 138.561 185.752C136.212 182.53 137.236 178.293 138.983 175.061C142.285 169.209 147.134 164.37 150.336 158.457C151.32 156.811 151.089 154.833 151.26 153.006C144.092 151.079 138.651 157.162 132.307 159.21C132.297 157.313 131.363 154.623 133.642 153.599Z" fill="#010001"/>
<path d="M29.9749 149.272C31.7918 148.177 33.659 149.502 35.3354 150.195C32.7756 152.213 30.1857 154.19 27.6259 156.218C30.3965 158.045 33.1269 159.973 36.1485 161.388C46.448 166.628 58.5443 165.996 69.6569 164.39C69.2955 165.865 68.9442 167.351 68.6832 168.867C58.8957 169.128 48.7167 170.312 39.3006 166.899C34.0404 165.142 29.4027 162.03 24.9857 158.738C23.6506 160.946 22.4059 163.556 19.4044 163.677C19.3843 157.082 24.4637 152.052 29.9749 149.272Z" fill="#81022C"/>
<path d="M188.211 160.425C193.933 158.889 200.609 156.902 206.04 160.355C207.806 161.479 209.091 163.095 209.513 165.183L210.376 164.993C210.587 168.757 210.507 172.522 210.276 176.286L209.493 176.025C208.84 180.402 206.009 183.855 203.891 187.579C201.522 190.771 199.083 193.914 196.975 197.286L196.533 197.246C194.716 200.298 192.638 203.199 190.41 205.97C190.37 206.191 190.279 206.612 190.229 206.823C189.055 208.088 188.282 209.604 187.93 211.29L187.127 211.31C186.796 215.888 189.717 219.652 190.44 223.999C189.316 224.471 188.201 224.952 187.097 225.434L187.278 226.348C185.702 226.358 184.126 226.398 182.55 226.438C181.716 225.605 180.863 224.792 180.01 223.989L180.452 223.246L179.307 223.366C178.835 221.67 178.344 219.973 177.952 218.267L177.159 218.438C176.938 214.261 177.922 210.166 179.498 206.341C180.943 204.032 182.389 201.703 183.453 199.184L183.935 199.425C186.204 194.707 190.4 191.374 193.01 186.887C195.379 183.443 198.491 180.331 199.605 176.176L200.318 176.256C200.398 173.867 200.428 171.478 200.378 169.088C197.196 168.064 193.883 168.556 190.831 169.771C189.406 170.353 187.97 170.946 186.515 171.447C185.581 172.01 184.658 172.592 183.744 173.184C183.363 173.104 182.61 172.963 182.228 172.883V173.927C177.892 175.011 175.031 179.629 170.273 179.097C170.222 178.735 170.122 178.023 170.072 177.661C168.476 175.423 168.897 172.642 168.968 170.072L170.343 170.353L170.112 169.44C171.829 168.657 173.505 167.814 175.171 166.94C177.119 165.766 179.157 164.732 181.235 163.818L181.225 162.885C181.706 162.985 182.65 163.176 183.122 163.266L183.212 162.322C184.919 161.851 186.615 161.359 188.332 160.937L188.211 160.425Z" fill="#FD3D7F"/>
<path d="M106.689 163.576C107.12 163.807 107.983 164.279 108.415 164.51C109.489 166.879 110.704 169.198 111.587 171.657C113.284 178.383 111.858 185.38 109.188 191.644C106.417 191.563 103.516 191.302 101.549 189.094C103.486 186.183 105.504 183.201 106.267 179.738C107.482 174.428 106.809 168.957 106.689 163.576Z" fill="#F13F7E"/>
<path opacity="0.72" d="M102.954 164.801C106.608 168.957 105.634 175.262 103.054 179.719C103.556 174.76 103.717 169.75 102.954 164.801Z" fill="#531C2D"/>
<path opacity="0.2" d="M115.804 175.171C117.39 176.064 117.21 180.17 115.754 181.124C115.031 179.317 115.192 176.988 115.804 175.171Z" fill="#282023"/>
<path opacity="0.46" d="M141.733 191.985C144.443 190.791 147.194 192.236 148.519 194.696C147.324 196.864 145.256 198.49 142.646 197.737C139.605 197.868 138.882 192.768 141.733 191.985ZM140.638 194.736C141.823 195.77 143.7 198.671 145.377 196.804C147.184 195.87 146.872 192.437 144.543 192.618C142.807 192.276 141.773 193.712 140.638 194.736Z" fill="#0F0F0F"/>
<path opacity="0.95" d="M140.639 194.736C141.773 193.712 142.807 192.276 144.544 192.618C146.873 192.437 147.184 195.87 145.377 196.804C143.7 198.671 141.823 195.77 140.639 194.736Z" fill="#040404"/>
<path opacity="0.88" d="M70.0088 226.286C71.1833 226.346 72.3578 226.437 73.5323 226.547C73.2914 231.215 73.1609 235.883 72.92 240.551C73.7432 240.42 74.5563 240.29 75.3794 240.159C75.54 239.557 75.8713 238.342 76.042 237.74L76.1725 237.228L77.6481 237.549C78.3107 237.69 79.6357 237.971 80.2983 238.112C78.7122 239.918 77.1462 241.735 75.5601 243.552C73.8837 243.552 72.1972 243.552 70.5208 243.552C69.256 237.861 70.1293 232.038 70.0088 226.286Z" fill="#511428"/>
<path d="M73.5313 226.548C75.2679 226.768 76.9845 227.11 78.7111 227.431C78.4602 230.051 78.2092 232.671 77.9181 235.281C77.8579 235.853 77.7173 236.978 77.6471 237.55L76.1714 237.228C76.2818 234.177 77.6571 230.844 76.3822 227.943C74.9568 227.883 74.1436 228.515 73.9429 229.85C73.4409 232.832 73.5313 235.873 73.4811 238.895C74.1236 238.604 75.3984 238.022 76.0409 237.74C75.8703 238.343 75.539 239.557 75.3784 240.16C74.5552 240.29 73.7421 240.421 72.9189 240.551C73.1599 235.883 73.2904 231.215 73.5313 226.548Z" fill="#C9889F"/>
<path d="M73.9432 229.851C74.144 228.516 74.9571 227.883 76.3826 227.943C77.6574 230.845 76.2822 234.177 76.1718 237.229L76.0413 237.741C75.3988 238.022 74.1239 238.604 73.4814 238.895C73.5316 235.874 73.4413 232.832 73.9432 229.851Z" fill="#FEE3F3"/>
<path d="M78.712 227.431C80.5892 227.763 82.4864 228.014 84.3737 228.285C82.4162 230.784 80.2679 233.143 77.9189 235.281C78.2101 232.671 78.461 230.051 78.712 227.431Z" fill="#E54079"/>
<path d="M184.396 235.683C185.159 234.96 185.912 234.237 186.655 233.514C189.576 233.133 192.477 233.535 195.128 234.799C195.198 236.506 195.499 238.253 195.057 239.939C194.124 240.863 193.05 241.626 192.016 242.429C190.47 242.399 188.924 242.388 187.378 242.378C186.394 241.595 185.41 240.822 184.427 240.05C184.407 238.584 184.407 237.128 184.396 235.683Z" fill="#FC3D81"/>
<path d="M107.766 56V50.276H101.772V56H99.2344V42.914H101.772V48.8H107.766V42.914H110.304V56H107.766ZM123.126 51.248C123.126 54.272 120.966 56.18 118.014 56.18C115.062 56.18 112.902 54.29 112.902 51.248C112.902 48.26 115.062 46.316 118.014 46.316C120.948 46.316 123.126 48.26 123.126 51.248ZM115.296 51.248C115.296 53.246 116.052 54.974 118.014 54.974C119.958 54.974 120.732 53.246 120.732 51.248C120.732 49.286 119.958 47.522 118.014 47.522C116.088 47.522 115.296 49.304 115.296 51.248ZM126.484 46.496L128.59 53.768L131.092 46.496H133.36L135.808 53.858L137.968 46.496H139.372L136.582 56H134.224L131.758 48.8L129.292 56H126.934L124.054 46.496H126.484ZM154.137 56L153.849 54.434C153.291 55.388 152.103 56.18 150.501 56.18C147.693 56.18 146.055 54.092 146.055 51.248C146.055 48.512 147.801 46.316 150.519 46.316C152.067 46.316 153.237 46.982 153.849 47.9V42.194H156.171V56H154.137ZM148.449 51.212C148.449 53.084 149.295 54.776 151.149 54.776C152.967 54.776 153.849 53.048 153.849 51.212C153.849 49.376 152.967 47.666 151.149 47.666C149.313 47.666 148.449 49.376 148.449 51.212ZM168.584 51.248C168.584 54.272 166.424 56.18 163.472 56.18C160.52 56.18 158.36 54.29 158.36 51.248C158.36 48.26 160.52 46.316 163.472 46.316C166.406 46.316 168.584 48.26 168.584 51.248ZM160.754 51.248C160.754 53.246 161.51 54.974 163.472 54.974C165.416 54.974 166.19 53.246 166.19 51.248C166.19 49.286 165.416 47.522 163.472 47.522C161.546 47.522 160.754 49.304 160.754 51.248ZM179.063 43.346C179.063 44.138 178.415 44.768 177.623 44.768C176.831 44.768 176.201 44.138 176.201 43.346C176.201 42.572 176.831 41.942 177.623 41.942C178.415 41.942 179.063 42.572 179.063 43.346ZM176.471 56V46.496H178.793V56H176.471ZM194.509 56L194.221 54.452C193.843 55.37 192.601 56.18 191.125 56.18C188.407 56.18 187.129 54.416 187.129 51.68V46.496H189.451V51.554C189.451 53.372 190.081 54.614 191.791 54.614C193.411 54.614 194.221 53.282 194.221 51.662V46.496H196.543V56H194.509ZM203.289 54.992C204.315 54.992 205.179 54.578 205.179 53.516C205.179 52.418 203.739 52.202 202.605 51.968C200.715 51.554 199.113 50.924 199.113 49.16C199.113 47.198 201.147 46.298 203.145 46.298C205.377 46.298 207.375 47.126 207.375 49.178V49.358H205.107C205.107 48.152 204.333 47.486 203.109 47.486C202.209 47.486 201.381 47.954 201.381 48.854C201.381 49.79 202.317 50.078 203.721 50.384C205.197 50.708 207.501 51.068 207.501 53.21C207.501 55.352 205.413 56.18 203.271 56.18C200.967 56.18 198.969 55.334 198.969 53.084V52.85H201.291C201.291 54.164 201.957 54.992 203.289 54.992ZM218.717 52.904C218.717 55.208 216.557 56.18 214.253 56.18C211.193 56.18 209.195 54.326 209.195 51.266C209.195 48.278 211.121 46.316 214.109 46.316C217.007 46.316 218.843 48.026 218.843 50.924C218.843 51.194 218.825 51.446 218.807 51.752H211.589C211.715 53.462 212.543 54.974 214.253 54.974C215.585 54.974 216.377 54.236 216.377 52.904H218.717ZM214.109 47.522C212.471 47.522 211.751 48.926 211.607 50.564H216.557C216.557 48.818 215.855 47.522 214.109 47.522ZM113.895 76V62.914H119.025C121.905 62.914 123.669 64.624 123.669 67.072C123.669 69.718 121.761 71.356 118.881 71.356H116.433V76H113.895ZM118.557 64.39H116.433V69.88H118.593C120.231 69.88 121.131 68.71 121.131 67.072C121.131 65.488 120.159 64.39 118.557 64.39ZM134.571 72.904C134.571 75.208 132.411 76.18 130.107 76.18C127.047 76.18 125.049 74.326 125.049 71.266C125.049 68.278 126.975 66.316 129.963 66.316C132.861 66.316 134.697 68.026 134.697 70.924C134.697 71.194 134.679 71.446 134.661 71.752H127.443C127.569 73.462 128.397 74.974 130.107 74.974C131.439 74.974 132.231 74.236 132.231 72.904H134.571ZM129.963 67.522C128.325 67.522 127.605 68.926 127.461 70.564H132.411C132.411 68.818 131.709 67.522 129.963 67.522ZM142.205 75.784C141.737 76 140.981 76.144 140.279 76.144C138.173 76.144 137.327 75.28 137.327 73.192V67.684H136.013V66.496H137.327V64.786L139.631 64.21V66.496H141.917V67.684H139.631V72.85C139.631 74.02 139.667 74.668 140.819 74.74C141.197 74.758 141.755 74.722 142.205 74.596V75.784ZM153.206 66.496L147.644 79.852H146.15L147.554 76.468L142.964 66.496H145.538L148.76 73.786L151.712 66.496H153.206ZM170.799 72.328C170.799 74.848 168.819 76 166.407 76H160.863V62.914H166.245C168.639 62.914 170.403 63.976 170.385 66.118C170.385 67.594 169.467 68.656 167.991 69.16C169.629 69.484 170.799 70.564 170.799 72.328ZM163.365 64.39V68.53H165.669C167.073 68.53 167.937 67.756 167.937 66.442C167.937 65.146 167.145 64.39 165.795 64.39H163.365ZM163.365 74.524H165.741C167.253 74.524 168.351 73.858 168.351 72.256C168.351 70.78 167.289 70.006 165.777 70.006H163.365V74.524ZM179.747 76L179.351 74.542C178.883 75.514 177.695 76.18 175.985 76.18C174.005 76.18 172.565 75.298 172.565 73.426C172.565 72.382 173.069 71.644 173.897 71.14C174.833 70.564 175.985 70.402 177.821 70.402C178.343 70.402 178.883 70.42 179.333 70.438V69.61C179.333 68.314 178.631 67.522 177.353 67.522C176.093 67.522 175.355 68.17 175.355 69.43H173.087V69.232C173.087 67.45 174.653 66.316 177.353 66.316C179.765 66.316 181.655 67.45 181.655 69.862V76H179.747ZM174.941 73.3C174.941 74.272 175.625 74.848 176.813 74.848C178.361 74.848 179.333 73.768 179.333 72.22V71.572H178.577C177.299 71.572 176.111 71.662 175.481 72.166C175.139 72.436 174.941 72.796 174.941 73.3ZM188.854 80.032C186.01 80.032 184.174 78.79 184.174 76.612V76.468H186.496C186.478 77.98 187.396 78.826 188.926 78.826C190.798 78.808 191.572 77.674 191.572 75.64V74.11C191.014 75.082 189.898 75.748 188.278 75.748C185.47 75.748 183.76 73.732 183.76 71.032C183.76 68.44 185.452 66.316 188.206 66.316C189.682 66.316 190.96 66.946 191.572 67.99L191.86 66.496H193.894V75.424C193.894 78.556 191.878 80.032 188.854 80.032ZM188.854 74.344C190.744 74.344 191.572 72.796 191.572 71.014C191.572 69.286 190.708 67.684 188.836 67.684C186.982 67.684 186.154 69.286 186.154 71.014C186.154 72.76 187.018 74.344 188.854 74.344ZM198.17 66.244H195.74V66.028C195.74 63.796 197.558 62.536 200.024 62.536C202.274 62.536 204.362 63.67 204.362 65.92C204.362 67.36 203.264 68.314 202.274 69.16C201.194 70.06 200.546 70.51 200.546 71.662V71.95H198.44V71.662C198.44 70.366 198.872 69.484 200.096 68.422C200.996 67.648 201.86 67.036 201.86 65.83C201.86 64.804 201.158 63.958 200.024 63.958C198.692 63.958 198.17 64.93 198.17 66.244ZM200.96 74.722C200.96 75.532 200.312 76.18 199.484 76.18C198.674 76.18 198.044 75.532 198.044 74.722C198.044 73.894 198.674 73.246 199.484 73.246C200.312 73.246 200.96 73.894 200.96 74.722Z" fill="#FF3B7F"/>
</g>
<defs>
<clipPath id="clip0_29_881">
<rect width="233.896" height="261" fill="white"/>
</clipPath>
</defs>
</svg>
