<svg width="64" height="64" viewBox="0 0 64 64" fill="none" xmlns="http://www.w3.org/2000/svg">
<path d="M32.2276 40.7206C27.4411 40.7206 23.5469 36.7991 23.5469 31.9795C23.5469 27.1593 27.4411 23.2378 32.2276 23.2378C37.0142 23.2378 40.9084 27.1593 40.9084 31.9795C40.9084 36.7991 37.0142 40.7206 32.2276 40.7206ZM32.2276 25.3023C28.5791 25.3023 25.6114 28.2974 25.6114 31.9795C25.6114 35.661 28.5791 38.6561 32.2276 38.6561C35.8762 38.6561 38.8439 35.661 38.8439 31.9795C38.8439 28.2979 35.8762 25.3023 32.2276 25.3023Z" fill="#282135" fill-opacity="0.6"/>
<path d="M34.8302 53.8371H29.6245C29.4889 53.8371 29.3546 53.8105 29.2293 53.7586C29.104 53.7068 28.9902 53.6308 28.8943 53.5349C28.7983 53.439 28.7223 53.3252 28.6704 53.2C28.6185 53.0747 28.5917 52.9404 28.5917 52.8048V49.0536C26.5334 48.6068 24.5738 47.7884 22.809 46.6386L20.1819 49.2853C19.785 49.6853 19.113 49.6853 18.7156 49.2853L15.0351 45.5769C14.8432 45.3837 14.7355 45.1223 14.7355 44.85C14.7355 44.5776 14.8432 44.3163 15.0351 44.123L17.671 41.4675C16.524 39.6829 15.7097 37.7054 15.2673 35.6306H11.5533C11.4177 35.6307 11.2834 35.604 11.1581 35.5522C11.0328 35.5003 10.9189 35.4243 10.823 35.3285C10.7271 35.2326 10.651 35.1188 10.5991 34.9935C10.5472 34.8682 10.5205 34.734 10.5205 34.5984V29.3535C10.5205 29.2179 10.5472 29.0836 10.5991 28.9583C10.651 28.833 10.7271 28.7192 10.823 28.6234C10.9189 28.5275 11.0328 28.4515 11.1581 28.3996C11.2834 28.3478 11.4177 28.3211 11.5533 28.3212H15.2673C15.7099 26.2465 16.5243 24.269 17.671 22.4843L15.0351 19.8288C14.8432 19.6355 14.7355 19.3742 14.7355 19.1018C14.7355 18.8295 14.8432 18.5682 15.0351 18.3749L18.7156 14.6665C19.1032 14.2758 19.7938 14.2758 20.1819 14.6665L22.809 17.3132C24.5738 16.1634 26.5334 15.345 28.5917 14.8982V11.147C28.5917 11.0114 28.6185 10.8771 28.6704 10.7519C28.7223 10.6266 28.7983 10.5128 28.8943 10.4169C28.9902 10.321 29.104 10.245 29.2293 10.1932C29.3546 10.1413 29.4889 10.1147 29.6245 10.1147H34.8302C34.9658 10.1147 35.1001 10.1413 35.2254 10.1932C35.3507 10.245 35.4645 10.321 35.5604 10.4169C35.6563 10.5128 35.7324 10.6266 35.7843 10.7519C35.8362 10.8771 35.863 11.0114 35.863 11.147V14.8982C37.9213 15.345 39.8809 16.1634 41.6457 17.3132L44.2728 14.6665C44.6604 14.2758 45.351 14.2758 45.7391 14.6665L49.4196 18.3749C49.8191 18.7775 49.8191 19.4262 49.4196 19.8288L46.7837 22.4843C47.9306 24.2689 48.745 26.2464 49.1873 28.3212H52.9014C53.037 28.3211 53.1713 28.3478 53.2966 28.3996C53.4219 28.4515 53.5358 28.5275 53.6317 28.6234C53.7276 28.7192 53.8037 28.833 53.8556 28.9583C53.9075 29.0836 53.9342 29.2179 53.9342 29.3535V34.5978C53.9342 34.7334 53.9075 34.8677 53.8556 34.993C53.8037 35.1183 53.7276 35.2321 53.6317 35.3279C53.5358 35.4238 53.4219 35.4998 53.2966 35.5517C53.1713 35.6035 53.037 35.6302 52.9014 35.6301H49.1873C48.7448 37.7048 47.9304 39.6823 46.7837 41.467L49.4196 44.1225C49.8191 44.5251 49.8191 45.1738 49.4196 45.5764L45.7391 49.2848C45.3515 49.6755 44.6609 49.6755 44.2728 49.2848L41.6457 46.6381C39.8809 47.7879 37.9213 48.6063 35.863 49.0531V52.8043C35.8628 53.0782 35.754 53.3408 35.5603 53.5344C35.3667 53.7281 35.1041 53.8369 34.8302 53.8371ZM30.6573 51.7725H33.7979V48.1984C33.798 47.9532 33.8853 47.716 34.0443 47.5293C34.2032 47.3426 34.4235 47.2186 34.6655 47.1795C37.0137 46.7952 39.2389 45.8655 41.1626 44.4652C41.3621 44.3201 41.6069 44.2511 41.8528 44.2707C42.0987 44.2903 42.3295 44.3972 42.5035 44.572L45.0052 47.0928L47.2312 44.8497L44.7182 42.3176C44.5462 42.1445 44.4412 41.916 44.4218 41.6727C44.4025 41.4295 44.47 41.1872 44.6124 40.9891C46.0062 39.0427 46.9293 36.7994 47.3092 34.4358C47.3479 34.1932 47.4718 33.9723 47.6587 33.8129C47.8457 33.6535 48.0833 33.566 48.329 33.5661H51.8686V30.3857H48.329C48.0834 30.3857 47.8458 30.2982 47.6588 30.1388C47.4719 29.9794 47.3479 29.7586 47.3092 29.516C46.9295 27.1523 46.0063 24.909 44.6124 22.9627C44.4701 22.7645 44.4026 22.5223 44.422 22.2791C44.4414 22.0359 44.5463 21.8074 44.7182 21.6342L47.2312 19.1021L45.0052 16.859L42.5035 19.3798C42.1442 19.7426 41.5744 19.7875 41.1626 19.4866C39.239 18.0862 37.0137 17.1565 34.6655 16.7723C34.4235 16.7332 34.2032 16.6092 34.0443 16.4225C33.8853 16.2358 33.798 15.9987 33.7979 15.7535V12.1793H30.6573V15.7535C30.6572 15.9987 30.5699 16.2358 30.4109 16.4225C30.252 16.6092 30.0317 16.7332 29.7897 16.7723C27.4416 17.1566 25.2163 18.0863 23.2926 19.4866C23.0933 19.632 22.8484 19.7012 22.6024 19.6816C22.3564 19.662 22.1256 19.5549 21.9517 19.3798L19.4501 16.859L17.224 19.1021L19.737 21.6342C20.0921 21.9919 20.137 22.5535 19.8428 22.9627C18.4489 24.909 17.5257 27.1523 17.1461 29.516C17.1074 29.7586 16.9834 29.9795 16.7965 30.1389C16.6095 30.2983 16.3719 30.3858 16.1262 30.3857H12.5866V33.5661H16.1262C16.6341 33.5661 17.0661 33.9351 17.1461 34.4358C17.5258 36.7995 18.4489 39.0428 19.8428 40.9891C19.9851 41.1873 20.0526 41.4295 20.0332 41.6727C20.0138 41.9159 19.9089 42.1444 19.737 42.3176L17.224 44.8497L19.4501 47.0928L21.9517 44.572C22.1256 44.3969 22.3564 44.2898 22.6024 44.2702C22.8484 44.2506 23.0933 44.3198 23.2926 44.4652C25.2162 45.8656 27.4415 46.7953 29.7897 47.1795C30.0317 47.2186 30.252 47.3426 30.4109 47.5293C30.5699 47.716 30.6572 47.9532 30.6573 48.1984V51.7725Z" fill="#282135" fill-opacity="0.6"/>
<path d="M60.0784 10.9646C60.067 9.64077 58.0025 9.64852 58.0133 10.9812L58.0247 12.3768C51.8244 4.87484 41.8962 0 32.3715 0C22.5197 0 13.4028 4.48361 7.3594 12.3019C6.54701 13.3538 8.17849 14.6168 8.99346 13.5644C14.643 6.256 23.1638 2.06452 32.3715 2.06452C41.6422 2.06452 51.3248 6.99613 57.0781 14.4986H54.2219C52.8923 14.4986 52.8897 16.5631 54.2219 16.5631H59.0822C59.6459 16.5631 60.1197 16.0862 60.115 15.5226L60.0784 10.9646ZM64.0004 31.7172C64.0004 27.7966 63.2954 23.969 61.9049 20.3412C61.4296 19.0999 59.5003 19.8359 59.9767 21.0797C61.2771 24.4752 61.9411 28.0812 61.9354 31.7172C61.9354 43.2439 54.0381 54.3102 42.7875 59.0663L43.5839 57.8276C44.3029 56.7097 42.5671 55.5923 41.8466 56.7117L39.3842 60.5425C39.0482 61.0648 39.2634 61.7884 39.8301 62.0418L43.9788 63.9019C45.1942 64.447 46.0371 62.5621 44.8237 62.0186L43.0177 61.2088C55.3155 56.273 64.0004 44.2529 64.0004 31.7172ZM33.5958 61.345C33.1901 61.3616 32.7818 61.3698 32.372 61.3698C16.0706 61.3698 2.80868 48.0676 2.80868 31.7172C2.80868 28.8217 4.00404 25.2052 5.14314 22.1517L6.05101 24.1941C6.59088 25.407 8.47939 24.5729 7.93798 23.3554L6.01281 19.0255C5.77694 18.4945 5.12043 18.2612 4.60068 18.5249L0.548555 20.5879C-0.635961 21.1912 0.298232 23.0297 1.48585 22.4274L3.15294 21.5788C1.97101 24.7587 0.743136 28.5342 0.743136 31.7172C0.743136 49.2062 14.9315 63.4343 32.3715 63.4343C32.8097 63.4343 33.2458 63.4256 33.6794 63.408C35.0074 63.3533 34.9284 61.2939 33.5958 61.345C34.1728 61.3228 33.1896 61.3621 33.5958 61.345Z" fill="#282135" fill-opacity="0.6"/>
</svg>
