<svg width="182" height="186" viewBox="0 0 182 186" fill="none" xmlns="http://www.w3.org/2000/svg">
<path d="M116.714 0.831724L131.147 0.0536525C131.808 0.0179725 132.478 0.0471567 133.133 0.149155C138.802 1.03212 137.08 1.33748 138.499 2C129.103 1.20311 117.827 0.708344 108.668 3.30561C102.893 4.76165 96.2128 8.17646 90.9986 11C90.4985 10 94.0093 8.17548 95.2292 7.62454C101.929 4.11233 108.999 1.5 116.775 0.826402L116.714 0.831724Z" fill="#5A0321"/>
<path d="M136.499 1.5004C134.499 -0.000225782 140.495 1.46626 141.882 1.87946C151.13 4.16191 159.984 8.46116 167.028 14.9248C174.466 21.5655 178.999 29.9996 181.225 40.681C181.225 40.681 181.223 40.7211 181.225 40.7466C181.499 44.4996 181.235 49.7319 181.235 49.7319C179.499 62.9996 170.747 74.1208 159.935 81.1648C147.342 89.301 131.906 91.6326 117.179 90.1766C108.964 98.657 97.3056 103.094 85.6573 103.881C83.7782 104.166 81.2006 103.743 80.3447 105.937C76.0553 113.139 68.9915 118.432 61.0423 120.97C64.0626 124.699 67.7814 127.876 70.3688 131.93C70.054 132.569 69.4244 133.838 69.1194 134.468C72.8775 135.786 76.5668 137.311 80.3348 138.61C85.067 133.415 86.7493 125.692 84.4865 119.012C84.0536 117.359 83.0797 115.382 84.2799 113.818C87.3396 112.234 89.4941 115.323 90.9502 117.546C95.7216 123.99 95.8495 132.864 92.9768 140.125C92.3669 141.846 91.3043 143.607 91.9635 145.486C94.8559 156.84 97.6893 168.213 100.621 179.566C101.044 181.169 100.936 182.842 100.798 184.485C99.5487 184.544 98.0926 185.203 96.9809 184.308C92.3865 180.795 88.5201 176.398 83.9258 172.905C80.3152 172.069 76.6062 171.843 72.9267 171.577C69.6113 175.404 66.1384 179.093 62.6853 182.793C61.4752 184.386 58.1696 184.288 57.6383 182.114C57.4711 178.06 57.9728 174.007 58.2581 169.964C55.1197 169.413 51.942 169.009 48.7643 168.763C45.9211 173.476 43.1369 178.228 40.1855 182.871C38.9655 185.429 34.5482 185.734 33.4169 182.989C30.9967 178.493 28.9208 173.82 26.3924 169.383C23.2344 169.383 20.0764 169.364 16.9183 169.334C13.0618 174.066 9.55942 179.084 5.59466 183.717C4.60101 185.065 2.82031 184.691 1.39378 184.652C1.22653 182.783 1.0888 180.914 1.0888 179.054C1.24621 156.397 1.20686 133.75 1.42329 111.092C1.55119 98.6472 1.05928 86.202 0.370616 73.7764C0.24272 68.2376 -0.445948 62.5807 0.773979 57.1107C1.24621 54.1986 4.98469 52.772 7.19827 54.8282C11.2122 58.4782 13.8587 63.3677 17.4594 67.4112C20.0567 66.9586 22.6638 66.6339 25.2906 66.4569C27.1401 62.4232 28.7831 58.2912 30.6622 54.2576C31.341 52.6835 32.5708 51.0405 34.4302 50.893C36.506 50.3322 37.9719 52.3982 38.3359 54.1691C40.9529 63.1021 43.6485 72.0252 46.2851 80.9582C53.8703 79.4924 61.4063 77.8297 68.8341 75.6949C75.1797 73.7371 82.2631 77.8494 84.0832 84.1458C85.8147 87.963 84.5947 92.1343 85.185 96.1089C83.5814 98.2635 82.9419 100.91 81.8893 103.34C93.4786 102.543 105.481 99.6507 114.355 91.7408C115.723 90.7472 116.874 88.7697 118.831 89.2419C131.09 90.5406 143.751 88.5533 154.809 83.0144C165.966 77.5739 175.558 67.9719 179.149 55.8907C182.376 45.4033 180.398 33.6172 174.368 24.517C168.209 14.9543 158.292 8.35295 147.687 4.61446C144.391 3.37486 139.736 2.92693 136.499 1.5004ZM26.8056 69.1033C24.4543 69.2312 21.9948 69.1427 19.7714 70.0871C18.5416 70.1068 17.3119 70.1462 16.0723 70.2052C13.8095 66.752 10.8089 63.8104 8.78221 60.1801L8.69366 60.3572C7.42455 58.6946 6.06689 56.4909 3.67622 56.5007C2.23002 62.1478 3.00723 68.0506 3.09577 73.8158C3.22367 83.9687 3.97137 94.1118 4.06975 104.275C3.9812 130.178 3.568 156.082 3.61719 181.976C6.26365 178.877 8.66415 175.581 11.1237 172.335C12.6191 170.436 14.1243 168.547 15.6689 166.688C19.8599 166.668 24.051 166.727 28.2322 166.786C30.9475 172.099 33.3086 177.637 36.4667 182.714C37.9227 181.75 38.8573 180.294 39.6936 178.808C42.0449 174.588 44.6225 170.495 47.1902 166.402C53.7818 166.452 60.3241 167.258 66.8369 168.242C73.035 169.068 79.4888 168.822 85.4999 170.603C89.8778 174.174 93.7245 178.415 98.2402 181.858C97.6204 177.942 96.3119 174.174 95.5249 170.288C93.0162 161.759 91.6093 152.895 88.7071 144.512C80.994 142.486 73.9794 138.246 66.1384 136.74C58.9074 143.381 51.5288 149.855 44.2781 156.466C43.3533 157.105 40.837 160.041 39.499 159.5C48.8354 150.695 60.4914 141.03 69.6211 132.018C65.9712 127.729 62.1343 123.606 58.3762 119.415C61.2095 117.851 64.4266 117.113 67.1518 115.342C75.888 110.207 81.9975 100.674 82.5287 90.4914C81.0727 91.9179 79.2428 92.9411 77.8753 94.4561C77.9245 96.0991 78.1508 97.7322 78.1704 99.3752C77.8064 101.077 78.928 104.501 76.0356 104.304C76.4783 101.048 76.7046 97.7126 75.8683 94.4955C67.8306 93.7675 60.8849 88.3663 57.2153 81.3223C51.9715 82.6799 46.6196 83.6441 41.2382 84.2639C39.1033 82.9357 41.6317 81.2829 43.1369 81.2042C43.0484 79.6793 42.8516 78.1544 42.2908 76.7279C39.969 70.0773 38.7098 63.0529 35.8665 56.6089C36.6438 55.33 35.0992 54.1592 34.5679 53.1459C31.1442 57.9961 29.8259 63.9973 26.8056 69.1033ZM86.8673 116.228C88.4414 122.318 88.953 129.145 85.9426 134.891C85.2834 136.494 83.8864 137.832 83.7191 139.593C85.2342 141.138 87.5757 141.246 89.5827 141.62C92.0422 136.357 92.9375 130.414 91.6684 124.718C90.5566 121.639 88.6579 118.933 86.8673 116.228ZM60.4717 170.347C60.5307 173.978 60.2651 177.598 59.9601 181.219L60.4225 181.307C61.5047 180.176 62.5574 179.025 63.5805 177.844L63.4625 177.067C65.7056 175.778 68.5783 173.742 68.5881 170.908C65.863 170.918 63.1968 170.131 60.4717 170.347Z" fill="#5A0321"/>
<path d="M91.4123 9.97559C91.5106 10.0936 91.7271 10.3298 91.8255 10.4478C87.6246 13.6944 83.2466 16.8524 80.0591 21.1812C73.8315 28.973 70.4669 39.1653 71.6376 49.151C72.769 60.5435 79.4393 71.0014 88.6379 77.6618C89.7201 78.5473 91.0483 79.2753 91.7861 80.5149C92.6125 85.3257 91.0679 90.7072 87.2803 93.9242C89.061 90.3432 91.3926 86.7227 91.0483 82.5415C91.5303 80.0033 88.8839 79.0785 87.3688 77.6717C82.1743 73.4216 77.511 68.3451 74.4907 62.2947C69.9455 53.3715 69.1093 42.5693 72.4641 33.1148C75.7795 23.4636 83.0007 15.544 91.4123 9.97559Z" fill="#5A0321"/>
<path d="M30.1697 76.2845C30.3468 74.4743 33.3671 74.7301 33.5934 76.5502C34.9806 78.626 35.0593 81.9808 32.5604 83.2401C29.8648 82.2661 29.6582 78.685 30.1697 76.2845Z" fill="#5A0321"/>
<path d="M20.283 77.2886C24.6314 76.3638 25.3201 83.2997 22.7031 85.5723C19.1319 84.3622 19.7615 80.2302 20.283 77.2886Z" fill="#5A0321"/>
<path d="M17.056 114.437C19.2204 110.482 23.0573 106.547 27.8091 106.33C28.9109 109.508 24.1493 110.138 22.4768 112.056C26.6088 115.411 31.3311 118.126 36.4666 119.621C28.4485 126.764 20.1649 133.68 12.6387 141.334C19.8304 148.939 26.353 157.242 33.9481 164.444C36.3289 162.26 38.7491 160.115 41.1987 158C40.9134 160.351 38.4933 161.443 37.0077 162.998C35.7189 164.021 33.9481 166.254 32.2854 164.523C26.1563 157.882 20.1944 151.074 14.0652 144.433C13.0716 143.125 10.8678 141.098 12.7764 139.622C19.1122 133.405 26.0972 127.856 32.4231 121.638C32.3149 121.402 32.0886 120.93 31.9804 120.694C27.8583 119.051 24.0903 116.719 20.4502 114.201C19.5942 115.352 19.6631 118.303 17.7152 117.929C15.5213 118.382 16.3378 115.401 17.056 114.437Z" fill="#5A0321"/>
<path d="M108.668 3.30601C117.828 0.708749 127.42 0.767778 136.815 1.56467C137.012 1.55483 137.405 1.54499 137.592 1.54499C140.829 2.97152 144.39 3.37488 147.686 4.61448C158.292 8.35297 168.209 14.9543 174.367 24.517C180.398 33.6173 182.375 45.4033 179.149 55.8908C175.558 67.972 165.965 77.574 154.809 83.0144C143.751 88.5533 131.089 90.5406 118.831 89.242C116.873 88.7697 115.722 90.7472 114.355 91.7409C105.481 99.6507 93.4782 102.543 81.8889 103.34C82.9416 100.91 83.5811 98.2635 85.1847 96.109C85.8734 95.3711 86.5719 94.6431 87.2802 93.9249C91.0679 90.7079 92.6125 85.3264 91.7861 80.5156C91.0482 79.276 89.7201 78.5479 88.6379 77.6625C79.4392 71.0021 72.769 60.5442 71.6376 49.1516C70.4669 39.166 73.8315 28.9737 80.059 21.1819C83.2466 16.8531 87.6245 13.6951 91.8254 10.4485C91.9435 10.3895 92.1796 10.2616 92.2977 10.2025C97.5119 7.37899 102.893 4.76205 108.668 3.30601ZM118.457 34.847C113.922 36.5588 113.036 41.9797 112.82 46.2396C112.918 50.6175 113.745 55.9399 118.093 58.1338C122.078 59.7079 127.626 59.216 130.056 55.2513C132.565 51.2865 131.945 46.3871 131.837 41.9403C132.555 42.0092 134.001 42.1567 134.72 42.2256C135.959 44.9212 138.281 47.066 139.363 49.7714C137.494 52.8704 135.29 55.7629 133.549 58.9307C135.635 59.0783 137.73 59.1078 139.816 59.0783C140.77 57.4944 141.705 55.9104 142.629 54.3167C144.017 55.8317 145.158 57.5436 146.388 59.1767C148.503 59.1078 150.618 59.0586 152.733 58.9898C150.933 55.8908 148.572 53.1459 146.821 50.0174C148.04 46.5445 150.962 43.78 152.468 40.3662C150.5 40.258 148.503 40.0612 146.555 40.3859C145.158 41.7435 144.43 43.662 143.131 45.118C142.118 43.3963 140.996 41.7337 139.688 40.2186C137.632 40.2481 135.566 40.2285 133.51 40.1498C132.86 40.7499 132.201 41.3303 131.542 41.9206C131.168 35.6537 123.819 32.3383 118.457 34.847ZM99.6566 34.7683C99.6566 36.431 99.6664 38.1034 99.6762 39.7759C100.444 39.7956 101.978 39.8251 102.746 39.8448C102.805 46.1707 102.864 52.4966 102.716 58.8225C104.802 59.1767 106.927 59.1668 109.032 58.9111C108.845 50.8536 109.18 42.7864 108.826 34.729C105.766 34.6994 102.716 34.6896 99.6566 34.7683Z" fill="white"/>
<path d="M121.321 39.6675C123.033 39.2149 124.902 39.8741 125.502 41.6449C126.417 44.8915 126.358 48.3742 125.443 51.6011C124.685 53.9819 121.085 54.2967 119.865 52.152C118.566 49.4072 118.625 46.2098 119.029 43.2584C119.235 41.8417 119.766 40.1102 121.321 39.6675Z" fill="white"/>
<path d="M26.8057 69.1029C29.826 63.9969 31.1443 57.9957 34.5679 53.1455C35.0992 54.1588 36.6438 55.3296 35.8666 56.6085C32.374 60.7504 31.0754 66.1318 30.1113 71.3263C25.6054 70.8049 21.0602 70.7361 16.5347 71.0214C16.4264 70.8148 16.1903 70.4016 16.0723 70.2048C17.3119 70.1458 18.5416 70.1064 19.7714 70.0867C21.9948 69.1423 24.4543 69.2308 26.8057 69.1029Z" fill="white"/>
<path d="M3.09618 73.8161C3.00763 68.051 2.23042 62.1481 3.67662 56.501C6.06729 56.4912 7.42495 58.6949 8.69407 60.3575C6.27389 63.7025 7.62171 67.9821 7.39543 71.7894C7.51349 103.635 9.26468 135.452 9.48111 167.308C9.30403 169.167 10.3174 170.751 11.1241 172.335C8.66455 175.582 6.26405 178.877 3.6176 181.976C3.56841 156.082 3.98161 130.179 4.07015 104.275C3.97177 94.1121 3.22407 83.969 3.09618 73.8161Z" fill="white"/>
<path d="M36.4666 119.622C43.6386 121.717 51.1844 120.724 58.3761 119.415C62.1342 123.606 65.9711 127.728 69.6211 132.018C60.4913 141.029 50.5351 149.195 41.1987 158C38.749 160.115 36.3289 162.26 33.948 164.444C26.353 157.243 19.8303 148.939 12.6387 141.334C20.1648 133.68 28.4485 126.764 36.4666 119.622ZM34.5678 129.558C36.1813 132.352 32.7576 135.461 35.2467 137.93C36.8896 139.603 39.113 138.639 40.9921 138.009C41.9661 139.052 43.0581 140.114 43.2942 141.6C42.0055 141.393 40.7363 141.138 39.4672 140.872C39.113 145.604 44.888 142.279 47.4656 143.577C46.954 140.488 49.6595 135.54 45.2816 134.31C42.6843 134.831 39.5262 135.058 38.6998 131.85C40.2248 132.077 41.7497 132.126 43.2746 131.998C42.2317 127.866 37.3914 130.817 34.5678 129.558ZM33.5939 158.413C35.6795 157.41 37.657 155.875 38.4342 153.622C35.9058 153.189 32.9052 155.767 33.5939 158.413Z" fill="white"/>
<path d="M36.4965 134.144C37.6968 133.652 39.4873 135.452 38.8675 136.652C37.4606 137.784 35.3454 135.492 36.4965 134.144Z" fill="white"/>
<path d="M43.5997 136.623C44.9672 135.324 47.4071 137.941 45.9412 139.191C44.5442 140.096 42.8815 137.902 43.5997 136.623Z" fill="white"/>
<path d="M28.2324 166.786C30.8002 166.737 33.8401 166.796 35.4339 169.186C37.0375 172.305 37.9525 175.738 39.6938 178.808C38.8576 180.293 37.923 181.749 36.4669 182.714C33.3089 177.637 30.9477 172.098 28.2324 166.786Z" fill="white"/>
<path d="M60.6592 170.524C61.4758 170.574 63.1286 170.652 63.9451 170.692C63.6008 172.797 62.9515 174.932 63.4631 177.067L63.5811 177.844C62.558 179.025 61.5053 180.176 60.4231 181.307C60.3444 177.706 60.4624 174.115 60.6592 170.524Z" fill="white"/>
<path d="M30.1114 71.3263C31.0755 66.1317 32.3742 60.7503 35.8667 56.6084C38.7099 63.0524 39.9692 70.0768 42.291 76.7274C42.8518 78.1539 43.0485 79.6788 43.1371 81.2037C41.6318 81.2824 39.1034 82.9352 41.2383 84.2634C46.6198 83.6436 51.9717 82.6794 57.2154 81.3218C60.885 88.3659 67.8307 93.767 75.8685 94.495C76.7047 97.7121 76.4784 101.047 76.0357 104.304C78.9281 104.5 77.8066 101.077 78.1706 99.3747C78.1509 97.7318 77.9247 96.0986 77.8755 94.4557C79.243 92.9406 81.0728 91.9174 82.5289 90.4909C81.9976 100.673 75.8882 110.206 67.1519 115.342C64.4268 117.113 61.2097 117.851 58.3763 119.415C51.1846 120.723 43.6388 121.717 36.4668 119.622C31.3313 118.126 26.609 115.411 22.477 112.056C24.1495 110.138 28.9111 109.508 27.8093 106.33C23.0575 106.547 19.2206 110.482 17.0562 114.437C16.338 115.401 15.5215 118.382 17.7154 117.929C19.6633 118.303 19.5944 115.352 20.4504 114.201C24.0905 116.719 27.8585 119.051 31.9806 120.694C32.0889 120.93 32.3151 121.402 32.4234 121.638C26.0974 127.856 19.1124 133.405 12.7766 139.622C10.868 141.098 13.0718 143.125 14.0654 144.433C20.1946 151.074 26.1565 157.882 32.2856 164.523C33.9483 166.254 35.7191 164.021 37.0079 162.998C38.4935 161.443 40.9136 160.351 41.199 158C42.5369 158.541 43.3535 157.105 44.2783 156.465C51.529 149.854 58.9076 143.381 66.1386 136.74C73.9796 138.245 80.9941 142.485 88.7072 144.512C91.6095 152.894 93.0163 161.758 95.525 170.288C96.3121 174.174 97.6206 177.942 98.2404 181.858C93.7247 178.414 89.878 174.174 85.5 170.603C79.4889 168.822 73.0351 169.068 66.8371 168.242C60.3243 167.258 53.7819 166.451 47.1904 166.402C44.6226 170.494 42.045 174.587 39.6937 178.808C37.9524 175.738 37.0374 172.305 35.4338 169.186C33.84 166.795 30.8001 166.736 28.2323 166.785C24.0511 166.726 19.8601 166.667 15.669 166.687C14.1245 168.547 12.6192 170.435 11.1238 172.334C10.3171 170.75 9.30377 169.166 9.48086 167.307C9.26442 135.451 7.51324 103.635 7.39518 71.7886C7.62146 67.9813 6.27363 63.7017 8.69381 60.3567L8.78235 60.1797C10.809 63.8099 13.8096 66.7515 16.0724 70.2047C16.1905 70.4015 16.4266 70.8147 16.5348 71.0213C21.0603 70.736 25.6055 70.8048 30.1114 71.3263ZM30.1704 76.2847C29.6588 78.6852 29.8654 82.2662 32.5611 83.2402C35.06 81.9809 34.9813 78.6261 33.5941 76.5503C33.3678 74.7302 30.3475 74.4744 30.1704 76.2847ZM20.2831 77.2881C19.7617 80.2297 19.1321 84.3618 22.7033 85.5718C25.3202 83.2992 24.6316 76.3634 20.2831 77.2881Z" fill="#FF3B7F"/>
<path d="M86.8679 116.228C88.6585 118.933 90.5572 121.639 91.6689 124.718C92.938 130.414 92.0428 136.356 89.5832 141.62C87.5763 141.246 85.2348 141.138 83.7197 139.593C83.887 137.832 85.284 136.494 85.9431 134.89C88.9536 129.145 88.442 122.317 86.8679 116.228Z" fill="#FF3B7F"/>
<path d="M34.5687 129.559C37.3922 130.818 42.2326 127.866 43.2754 131.998C41.7505 132.126 40.2256 132.077 38.7007 131.851C39.5271 135.058 42.6851 134.832 45.2824 134.31C49.6603 135.54 46.9549 140.489 47.4664 143.578C44.8888 142.279 39.1139 145.605 39.468 140.872C40.7372 141.138 42.0063 141.394 43.2951 141.6C43.059 140.115 41.9669 139.052 40.9929 138.01C39.1139 138.639 36.8905 139.603 35.2475 137.931C32.7584 135.461 36.1821 132.353 34.5687 129.559ZM36.4969 134.143C35.3459 135.491 37.4611 137.783 38.8679 136.652C39.4877 135.452 37.6972 133.651 36.4969 134.143ZM43.6001 136.622C42.8819 137.901 44.5445 140.095 45.9415 139.19C47.4074 137.941 44.9676 135.324 43.6001 136.622Z" fill="#FF3B7F"/>
<path d="M60.4725 170.347C63.1977 170.131 65.8638 170.918 68.589 170.908C68.5791 173.741 65.7064 175.778 63.4633 177.067C62.9517 174.932 63.601 172.797 63.9454 170.692C63.1288 170.652 61.476 170.574 60.6594 170.524C60.4627 174.115 60.3446 177.706 60.4233 181.307L59.9609 181.218C60.2659 177.598 60.5315 173.978 60.4725 170.347Z" fill="#FF3B7F"/>
<rect width="83" height="43" transform="translate(84 23)" fill="white"/>
<path d="M95.2357 38.24C98.4037 38.168 101.752 36.476 103.732 32.444C103.768 32.372 103.804 32.3 103.84 32.228H107.584V57.5H101.896V40.292C99.7357 41.732 97.3597 42.308 95.2357 42.308V38.24ZM133.43 45.008C133.43 52.244 129.866 57.86 122.738 57.86C115.61 57.86 112.046 52.244 112.046 45.008C112.046 37.34 116.042 31.868 122.738 31.868C129.434 31.868 133.43 37.34 133.43 45.008ZM118.274 45.008C118.274 50.516 119.714 54.692 122.738 54.692C125.762 54.692 127.202 50.516 127.202 45.008C127.202 39.716 126.05 35.036 122.738 35.036C119.426 35.036 118.274 39.716 118.274 45.008ZM149.094 57.5L144.45 51.164L139.266 57.5H135.018L142.434 48.428L135.09 38.384H142.362L146.826 44.468L151.686 38.384H155.934L148.842 47.204L156.366 57.5H149.094Z" fill="#FF3B7F"/>
</svg>
