<svg width="230" height="185" viewBox="0 0 230 185" fill="none" xmlns="http://www.w3.org/2000/svg">
<g clip-path="url(#clip0_29_1419)">
<path d="M162.824 1.28601C162.518 1.16654 162.899 1.08902 163.227 1.06692L175.953 0.209079C178.017 0.0699617 180.092 0.0939019 182.139 0.389355C193.181 1.98278 204.078 5.74839 212.747 12.9304C220.418 19.0483 226.309 27.3471 228.413 37.0278C228.419 37.0581 228.423 37.0813 228.423 37.1123C228.42 37.6061 227.766 37.6602 227.641 37.1825C225.668 29.6444 221.951 22.5034 216.241 17.1101C203.748 4.73937 184.234 0.147927 166.894 1.63841C165.943 1.72017 163.713 1.6332 162.824 1.28601Z" fill="#5A0320"/>
<path d="M159.527 1.65424C161.573 1.21377 163.805 0.577524 165.841 1.48784C151.334 3.42594 136.985 10.131 127.97 21.9455C121.607 30.3439 118.69 41.4244 120.824 51.8098C122.253 59.8363 126.687 66.9328 132.12 72.8548C130.544 72.3752 129.634 70.9461 128.557 69.8204C123.751 64.1334 120.423 57.1151 119.473 49.7053C117.848 38.9479 121.754 27.799 128.831 19.6746C136.632 10.3953 147.762 4.27752 159.527 1.65424Z" fill="#5A0320"/>
<path d="M227.091 38.1423C227.091 37.9931 227.175 37.8583 227.309 37.7916C227.557 37.6675 227.852 37.832 227.877 38.1083L228.524 45.2193C228.547 45.4786 228.552 45.7393 228.537 45.9993L228.182 52.1468C227.458 56.2537 224.796 63.1979 221.526 67.9061C220.739 68.9369 220.252 68.4058 220.884 67.273C225.507 58.9838 227.064 47.3836 227.091 38.1423Z" fill="#5A0320"/>
<path d="M80.33 52.8716C81.5536 50.0623 86.2911 49.5827 87.27 52.8422C89.9226 61.9454 92.4774 71.1268 95.4628 80.1321C103.108 79.1044 110.566 77.1467 117.976 75.0324C122.694 73.8284 128.107 75.5903 130.955 79.6036C134 83.7538 134.577 89.1766 133.716 94.1393C137.954 90.4882 140.342 84.7327 139.432 79.1631C136.75 77.2935 133.667 75.4827 132.13 72.507C134.822 74.8268 137.719 76.8824 140.411 79.2022C141.39 84.8991 138.737 90.6644 134.479 94.3742C132.267 96.3417 132.6 99.6893 130.985 102.038C137.083 101.246 143.299 100.737 149.074 98.4266C155.505 96.3514 160.947 92.2697 165.929 87.8356C185.163 90.5469 208.543 80.8467 221.816 66.4382C221.082 70.843 211.083 77.9787 206.287 80.9837C194.198 88.0607 179.633 90.7623 165.782 88.8731C156.581 98.1721 143.514 102.44 130.662 102.9C126.678 110.27 120.178 116.349 112.269 119.266C110.831 119.844 109.167 119.99 107.933 121.008C108.853 124.131 109.48 127.351 110.645 130.405C116.596 133.136 122.929 135.045 128.968 137.609C134.998 131.981 135.761 122.349 132.316 115.135C132.257 112.825 134.939 111.915 136.691 112.972C142.525 118.454 145.197 127.058 143.073 134.839C142.936 137.952 140.45 140.507 140.656 143.61C143.602 156.07 147.175 168.364 149.867 180.893C150.141 183.135 147.488 184.339 145.824 183.027C141.38 179.386 137.298 175.314 132.913 171.604C129.262 171.095 125.591 170.41 121.891 170.371C118.593 174.12 115.137 177.722 111.751 181.402C110.556 183.086 107.287 182.92 106.602 180.825C106.543 176.714 107.052 172.622 106.925 168.511C103.891 168.315 100.905 167.718 97.861 167.572C95.0223 172.221 92.2033 176.89 89.3647 181.549C88.1803 184.026 83.8244 184.447 82.6401 181.784C80.3398 177.311 78.0493 172.838 75.8274 168.325C72.8223 168.012 69.8075 168.159 66.7927 168.159C66.3718 173.621 67.5562 179.298 66.1565 184.633H1.31836C1.11281 184.456 0.691906 184.094 0.476562 183.918V126.157C17.1853 126.118 33.8842 126.177 50.593 126.118C51.1607 105.464 50.221 84.8403 49.4184 64.2065C49.7218 60.9372 49.066 57.1001 51.3467 54.3985C53.1575 53.1065 55.9864 53.4882 57.4057 55.211C60.7043 58.8327 63.4647 62.9046 66.4501 66.7808C69.2006 66.5948 71.9707 66.4774 74.6821 65.8901C76.3657 61.4755 78.343 57.1589 80.33 52.8716ZM76.0623 68.6014C72.4895 68.6014 68.9363 69.0909 65.5202 70.1578C63.5234 66.585 60.5967 63.6877 58.267 60.3596C57.1218 58.7739 55.9961 57.1197 54.2832 56.1017C52.3255 55.6612 52.5702 58.1377 52.1983 59.2927C51.934 70.1089 52.6289 80.8956 53.0988 91.6922C53.7644 103.164 53.275 114.656 53.3924 126.137C54.8998 126.137 56.417 126.147 57.9244 126.167C60.861 126.206 63.8072 126.245 66.7438 126.216C66.8221 139.273 66.7242 152.321 66.8025 165.379C70.3165 165.633 73.8403 165.35 77.3543 165.614C80.2419 170.743 82.3464 176.42 85.6549 181.226C87.3874 180.551 88.0139 178.779 88.8067 177.262L88.9438 177.507C90.226 174.825 91.8901 172.358 93.4464 169.842C94.5819 168.071 95.2964 165.819 97.3324 164.86C107.796 165.966 118.26 167.151 128.724 168.355C130.779 168.599 133.07 168.364 134.832 169.676C139.011 173.17 142.75 177.184 147.038 180.551C144.532 168.364 140.861 156.383 138.14 144.207C128.547 139.792 118.279 136.67 108.54 132.51C107.082 128.996 106.524 125.217 105.32 121.625C101.698 121.204 98.0567 122.163 94.435 122.183C91.6747 121.791 88.8948 121.576 86.1247 121.322C80.0951 119.961 74.6136 116.956 69.6705 113.334C69.0245 115.106 68.535 117.808 65.9411 116.936C65.1972 112.375 69.7586 108.861 73.2237 106.57C74.4864 105.455 78.0004 104.623 77.3348 107.481C75.5631 108.724 73.5173 109.546 71.9414 111.073C80.8977 119.628 94.7874 120.891 106.455 118.228C114.07 116.77 120.776 112.189 125.542 106.159C124.192 102.215 126.6 97.6729 124.681 93.875C117.144 92.7591 109.989 88.2271 106.661 81.2186C100.905 81.0816 95.4824 83.8517 89.6975 83.4993C89.4234 81.757 90.2848 80.8271 92.2718 80.7194C90.7546 71.8218 87.0644 63.3745 85.1165 54.5356L85.0969 55.025C84.7837 54.4866 84.1572 53.4001 83.844 52.852C80.1734 57.3742 79.0673 63.5898 76.0623 68.6014ZM126.854 93.6694C127.275 97.1639 127.441 100.697 126.159 104.045C130.074 100.58 130.809 94.6091 131.494 89.6073C130.211 91.2615 128.205 92.1522 126.854 93.6694ZM135.83 115.155C136.036 116.819 136.133 118.512 136.554 120.137C137.709 126.216 136.378 132.754 132.649 137.727C132.874 140.37 136.378 140.203 138.365 140.468C140.92 135.671 141.566 129.994 140.705 124.659C139.794 121.155 137.533 118.277 135.83 115.155ZM2.65937 128.173C2.31677 130.092 2.38529 132.05 2.60064 133.988C23.1758 134.105 43.7509 133.958 64.3162 134.076C65.3538 132.353 64.5707 130.102 64.7665 128.164C44.0641 128.183 23.3617 128.183 2.65937 128.173ZM26.3961 135.965C26.7094 138.099 25.8676 140.634 26.7485 142.523C31.4176 142.592 36.0866 142.562 40.7655 142.552C40.9612 140.37 40.785 138.187 40.8633 136.004C36.0475 135.867 31.2218 135.926 26.3961 135.965ZM2.51254 136.259C2.48318 151.695 2.35593 167.16 2.52233 182.597C21.4139 182.988 40.325 182.665 59.2263 182.792C61.0861 182.841 62.9557 182.753 64.7959 182.46C64.8057 168.492 64.8057 154.514 64.8057 140.546C64.6686 139.068 65.158 137.453 64.4533 136.082C57.3959 136.288 50.3287 136.229 43.2713 136.141C42.3316 138.715 43.144 141.632 42.8112 144.344C36.6641 144.451 30.4975 144.579 24.3602 144.236C24.4385 141.593 24.4483 138.941 24.3797 136.298C17.0972 136.102 9.80487 136.19 2.51254 136.259ZM109.499 169.167C109.499 169.891 109.509 171.34 109.519 172.064C109.313 174.786 109.333 177.507 109.235 180.228C110.351 179.141 111.428 178.006 112.446 176.822C113.865 174.257 117.761 172.789 117.604 169.686C114.854 169.999 112.191 168.619 109.499 169.167Z" fill="#5A0320"/>
<path d="M79.518 81.3217C79.2342 79.0116 78.0791 74.4796 81.8379 74.7341C83.5117 77.005 84.6765 81.2923 81.7498 83.0151C81.1918 82.5942 80.076 81.7426 79.518 81.3217Z" fill="#5A0320"/>
<path d="M69.6898 77.0637C73.6541 75.8891 74.8189 83.5436 71.8628 84.914C68.2998 84.405 68.985 79.6087 69.6898 77.0637Z" fill="#5A0320"/>
<path d="M166.155 1.46824C183.97 -0.557954 203.272 4.26771 216.242 17.11C222.594 23.1103 226.48 31.2738 228.242 39.7407C228.242 39.8484 228.252 40.0735 228.252 40.1812L228.262 40.4651C229.427 51.0659 225.658 61.5883 219.218 69.8987C219.178 69.9378 219.11 70.0161 219.071 70.0455C205.798 84.454 185.164 90.9143 165.93 88.2029C160.947 92.637 155.505 96.7188 149.074 98.7939C143.299 101.104 137.083 101.613 130.985 102.406C132.6 100.057 132.267 96.709 134.48 94.7415C138.738 91.0317 141.39 85.2664 140.411 79.5696C137.72 77.2497 134.822 75.1942 132.13 72.8743C132.13 72.8645 132.13 72.8645 132.121 72.8548C126.688 66.9328 122.254 59.8362 120.825 51.8098C118.691 41.4243 121.608 30.3439 127.97 21.9455C136.985 10.1309 151.335 3.42591 165.842 1.48781C165.92 1.47803 166.076 1.46824 166.155 1.46824ZM169.463 39.7603C171.538 39.4862 173.33 38.3116 175.248 37.5677C175.415 36.5301 175.522 35.473 175.571 34.4256C173.105 35.5219 168.582 36.0407 169.463 39.7603ZM191.154 36.2169C189.813 38.527 192.857 38.7521 193.415 40.377C192.916 40.514 191.918 40.7979 191.419 40.9349C190.968 45.232 191.37 49.6074 191.242 53.9338C192.72 53.8947 194.257 54.1394 195.657 53.5129C195.559 49.7346 195.657 45.9563 195.647 42.178C196.195 40.1812 193.22 41.3167 193.239 39.5352C193.856 39.31 195.099 38.8598 195.716 38.6249C197.487 35.6786 192.681 33.4762 191.154 36.2169ZM182.727 37.3915C182.521 38.8598 182.736 40.8077 180.867 41.1992C180.847 41.8354 180.798 43.1079 180.779 43.7442C181.19 43.891 182.022 44.1749 182.443 44.3217C182.815 47.1211 181.591 50.4688 183.637 52.818C185.34 54.0122 187.542 54.0513 189.549 53.8849C189.549 53.0431 189.549 51.3693 189.549 50.5373C188.913 50.4786 187.65 50.3611 187.014 50.3122C186.612 48.3251 186.828 46.2794 186.681 44.263C187.396 44.2042 188.805 44.077 189.52 44.0182C189.95 42.041 189.441 39.7701 186.877 40.5923C186.906 39.5156 186.769 38.4682 186.446 37.46C185.203 37.4503 183.96 37.4209 182.727 37.3915ZM140.353 43.0003C137.475 47.1897 139.814 54.1296 145.355 54.296C146.607 53.787 147.88 53.3368 149.172 52.9354C148.849 54.2275 149.015 56.3222 147.234 56.5571C145.736 57.2032 144.552 56.1558 143.475 55.2846C142.584 55.2749 140.803 55.2651 139.912 55.2553C140.176 61.8624 152.03 62.1267 153.029 55.6664C153.567 50.7233 153.175 45.692 153.244 40.7196C151.658 40.7587 149.564 39.9561 148.565 41.718C146.098 39.8386 142.026 40.2693 140.353 43.0003ZM155.818 40.7783C155.877 45.1243 155.769 49.4704 155.867 53.8164C157.287 53.9436 158.716 53.973 160.135 53.8947C160.419 51.1931 159.675 48.3545 160.673 45.7704C161.652 44.7719 163.111 44.8111 164.383 44.6055C164.344 43.6463 164.266 41.7278 164.226 40.7685C162.807 40.514 161.593 40.9447 160.585 42.041C160.282 41.6592 159.685 40.886 159.391 40.4944C158.5 40.5629 156.709 40.7098 155.818 40.7783ZM166.311 51.4868C167.789 54.0317 171.636 55.0106 173.976 53.0823C175.61 53.8164 177.411 54.3645 179.154 53.5815C179.046 49.2746 179.252 44.9775 179.036 40.6804C177.578 40.9153 175.317 39.7407 174.749 41.7278C172.997 40.651 170.912 40.3672 168.915 40.7881C164.902 42.4423 164.05 48.1294 166.311 51.4868ZM198.623 42.4521C196.812 44.6055 198.515 47.9042 201.158 48.237C202.528 48.8831 205.279 48.5209 204.995 50.6939C204.369 50.7037 203.125 50.7233 202.499 50.7331C201.745 48.5307 199.23 49.6857 197.585 49.4018C197.781 55.314 208.587 55.9307 209.243 49.9108C208.832 46.5632 204.966 46.1227 202.382 45.3592C202.421 44.86 202.499 43.8616 202.538 43.3624C204.046 43.245 204.623 45.0167 206.003 45.1928C206.786 45.1341 208.352 45.0069 209.135 44.9481C208.489 40.0833 201.481 39.1436 198.623 42.4521Z" fill="white"/>
<path d="M144.699 44.537C148.829 42.3053 150.679 49.1767 146.891 50.459C143.749 50.968 142.389 46.25 144.699 44.537Z" fill="white"/>
<path d="M171.078 44.3902C174.934 42.6968 176.452 49.4997 172.84 50.459C169.472 51.0071 168.21 45.8291 171.078 44.3902Z" fill="white"/>
<path d="M76.0626 68.9688C79.0676 63.9571 80.1737 57.7415 83.8443 53.2193C84.1575 53.7674 84.784 54.854 85.0972 55.3923C85.1657 56.6354 84.0009 57.4674 83.5115 58.5148C81.1134 62.3029 80.1345 66.7664 79.2732 71.1124C74.7216 70.3685 70.1015 70.6034 65.5205 70.5251C68.9366 69.4582 72.4898 68.9688 76.0626 68.9688Z" fill="white"/>
<path d="M52.1988 59.66C52.5708 58.505 52.3261 56.0285 54.2837 56.469C55.9967 57.487 57.1224 59.1412 58.2676 60.727C57.8761 61.0598 57.093 61.7352 56.7015 62.068C56.5644 83.5534 57.3377 105.049 57.925 126.534C56.4176 126.515 54.9004 126.505 53.393 126.505C53.2755 115.023 53.7649 103.531 53.0993 92.0595C52.6295 81.2629 51.9345 70.4762 52.1988 59.66Z" fill="white"/>
<path d="M24.1455 157.181C24.5468 154.578 27.6008 153.286 29.8717 152.552C29.1474 153.99 28.3447 155.4 27.8455 156.937C26.9156 157.005 25.0656 157.123 24.1455 157.181Z" fill="white"/>
<path d="M29.0879 157.172C29.2934 154.92 30.9673 152.375 33.3263 151.954C33.3165 153.658 33.3263 155.351 33.336 157.054C32.2691 157.084 30.145 157.142 29.0879 157.172Z" fill="white"/>
<path d="M34.1978 151.886C36.4687 152.552 38.074 154.96 38.3873 157.221C37.3399 157.181 35.255 157.113 34.2076 157.074C34.188 155.341 34.188 153.619 34.1978 151.886Z" fill="white"/>
<path d="M37.79 152.561C40.0609 153.472 42.743 154.705 43.5456 157.211C42.5668 157.123 40.6091 156.966 39.64 156.888C39.131 155.4 38.0837 154.118 37.79 152.561Z" fill="white"/>
<path d="M22.882 158.141C24.4089 158.102 25.9359 158.053 27.4727 157.984C27.2182 159.766 26.9539 161.557 26.6798 163.338C25.0256 163.348 23.3812 163.358 21.7367 163.387C21.0515 161.616 22.2751 159.775 22.882 158.141Z" fill="white"/>
<path d="M28.452 158.17C30.0769 158.082 31.692 158.043 33.3168 158.072C33.3364 159.912 33.3168 161.753 33.2287 163.583C31.4962 163.622 29.7735 163.612 28.0507 163.583C27.4928 161.772 28.2073 159.952 28.452 158.17Z" fill="white"/>
<path d="M34.2169 158.043C35.8124 158.033 37.3981 158.053 38.9936 158.102C39.3069 159.893 39.4733 161.713 39.5026 163.534C37.7897 163.681 36.0767 163.632 34.3637 163.563C34.0897 161.733 34.2071 159.883 34.2169 158.043Z" fill="white"/>
<path d="M40.041 158.072C41.568 158.004 43.0852 158.033 44.6024 158.151C45.1114 159.883 46.286 161.684 45.7672 163.544C44.1228 163.73 42.4587 163.681 40.8339 163.358C40.4717 161.606 40.1193 159.854 40.041 158.072Z" fill="white"/>
<path d="M34.1095 165.012C35.8322 164.386 37.7507 164.787 39.5518 164.65C39.4931 166.363 39.3365 168.086 39.0917 169.799C37.4571 170.278 35.7148 170.2 34.0703 169.828C34.2465 168.223 34.2563 166.617 34.1095 165.012Z" fill="white"/>
<path d="M40.7851 164.679C42.547 164.66 44.3089 164.699 46.0708 164.797C45.875 166.461 45.4639 168.086 44.8179 169.632C43.4769 170.611 41.5388 169.867 39.9727 169.897C40.2565 168.154 40.511 166.422 40.7851 164.679Z" fill="white"/>
<path d="M21.3945 164.748C23.0879 165.022 25.212 164.053 26.6705 165.12C26.9152 166.686 27.2088 168.242 27.5514 169.799C25.9755 170.317 24.2527 170.122 22.6474 169.857C22.0601 168.193 21.5414 166.51 21.3945 164.748Z" fill="white"/>
<path d="M27.6689 164.836C29.5483 164.572 31.4473 164.67 33.3462 164.738C33.307 166.51 33.307 168.281 33.3462 170.053C31.7213 170.102 30.1062 170.102 28.4814 170.043C28.1779 168.311 27.8647 166.578 27.6689 164.836Z" fill="white"/>
<path d="M77.3545 165.981C80.1344 165.658 83.4135 166.197 84.9307 168.839C86.1738 171.786 87.0939 174.889 88.8069 177.629C88.014 179.147 87.3876 180.918 85.655 181.594C82.3466 176.788 80.2421 171.11 77.3545 165.981Z" fill="white"/>
<path d="M109.735 169.74C110.557 169.769 112.201 169.838 113.014 169.877C112.485 172.275 112.084 174.722 112.446 177.189C111.428 178.373 110.351 179.509 109.235 180.595C109.333 177.874 109.314 175.153 109.519 172.432C109.568 171.756 109.676 170.415 109.735 169.74Z" fill="white"/>
<path d="M23.832 171.052C24.6836 170.993 26.3672 170.866 27.2188 170.797C28.0998 172.412 29.4016 173.9 29.5484 175.809C27.3167 174.761 24.8011 173.499 23.832 171.052Z" fill="white"/>
<path d="M28.9121 171.257C30.2923 170.856 31.7214 170.778 33.2092 170.993C33.2386 172.774 33.6399 174.634 33.0722 176.376C30.8013 175.613 29.6462 173.371 28.9121 171.257Z" fill="white"/>
<path d="M34.3636 170.973C35.7536 170.944 37.1337 170.964 38.5237 171.032C37.8972 173.176 36.752 175.633 34.4321 176.298C33.8938 174.566 34.2364 172.725 34.3636 170.973Z" fill="white"/>
<path d="M39.6205 171.228C40.9615 170.778 42.3025 170.778 43.6631 171.228C42.3515 173.322 40.3057 174.752 38.0935 175.76C37.8293 174.047 39.2779 172.813 39.6205 171.228Z" fill="white"/>
<path d="M169.463 39.7603C168.582 36.0407 173.104 35.522 175.571 34.4257C175.522 35.473 175.414 36.5302 175.248 37.5677C173.329 38.3116 171.538 39.4862 169.463 39.7603Z" fill="#FF3B7F"/>
<path d="M191.154 36.2169C192.681 33.4762 197.488 35.6786 195.716 38.6249C195.099 38.8598 193.856 39.3101 193.239 39.5352C193.22 41.3167 196.195 40.1812 195.647 42.178C195.657 45.9563 195.559 49.7347 195.657 53.513C194.257 54.1394 192.721 53.8947 191.243 53.9339C191.37 49.6074 190.968 45.232 191.419 40.9349C191.918 40.7979 192.916 40.514 193.416 40.377C192.858 38.7521 189.813 38.527 191.154 36.2169Z" fill="#FF3B7F"/>
<path d="M182.726 37.3915C183.96 37.4209 185.203 37.4503 186.446 37.4601C186.769 38.4683 186.906 39.5156 186.876 40.5923C189.441 39.7701 189.95 42.041 189.519 44.0183C188.805 44.077 187.395 44.2042 186.681 44.263C186.828 46.2794 186.612 48.3251 187.014 50.3122C187.65 50.3611 188.912 50.4786 189.549 50.5373C189.549 51.3693 189.549 53.0431 189.549 53.8849C187.542 54.0513 185.34 54.0122 183.637 52.818C181.591 50.4688 182.814 47.1212 182.442 44.3217C182.021 44.1749 181.189 43.891 180.778 43.7442C180.798 43.1079 180.847 41.8355 180.866 41.1992C182.736 40.8077 182.521 38.8598 182.726 37.3915Z" fill="#FF3B7F"/>
<path d="M140.353 43.0003C142.027 40.2693 146.099 39.8386 148.565 41.718C149.564 39.9561 151.658 40.7587 153.244 40.7196C153.176 45.6921 153.567 50.7233 153.029 55.6664C152.03 62.1267 140.177 61.8624 139.912 55.2553C140.803 55.2651 142.585 55.2749 143.475 55.2847C144.552 56.1558 145.736 57.2032 147.234 56.5571C149.016 56.3222 148.849 54.2275 149.172 52.9355C147.88 53.3368 146.608 53.787 145.355 54.296C139.814 54.1296 137.475 47.1897 140.353 43.0003ZM144.699 44.537C142.389 46.25 143.749 50.968 146.891 50.459C150.68 49.1767 148.83 42.3053 144.699 44.537Z" fill="#FF3B7F"/>
<path d="M155.818 40.7783C156.709 40.7098 158.5 40.563 159.391 40.4944C159.685 40.886 160.282 41.6593 160.585 42.041C161.594 40.9447 162.807 40.514 164.227 40.7685C164.266 41.7278 164.344 43.6463 164.383 44.6056C163.111 44.8111 161.652 44.772 160.673 45.7704C159.675 48.3545 160.419 51.1931 160.135 53.8947C158.716 53.973 157.287 53.9437 155.867 53.8164C155.769 49.4704 155.877 45.1243 155.818 40.7783Z" fill="#FF3B7F"/>
<path d="M166.312 51.4868C164.05 48.1293 164.902 42.4423 168.915 40.7881C170.912 40.3672 172.997 40.651 174.749 41.7278C175.317 39.7407 177.578 40.9153 179.036 40.6804C179.252 44.9775 179.046 49.2746 179.154 53.5815C177.412 54.3645 175.611 53.8164 173.976 53.0823C171.636 55.0106 167.79 54.0317 166.312 51.4868ZM171.079 44.3902C168.211 45.8291 169.473 51.0071 172.84 50.459C176.452 49.4997 174.935 42.6968 171.079 44.3902Z" fill="#FF3B7F"/>
<path d="M198.623 42.4521C201.481 39.1436 208.489 40.0833 209.135 44.9481C208.352 45.0069 206.786 45.1341 206.003 45.1929C204.623 45.0167 204.045 43.245 202.538 43.3624C202.499 43.8616 202.42 44.86 202.381 45.3593C204.965 46.1227 208.832 46.5632 209.243 49.9108C208.587 55.9307 197.781 55.314 197.585 49.4018C199.229 49.6857 201.745 48.5307 202.499 50.7331C203.125 50.7233 204.368 50.7037 204.995 50.6939C205.279 48.5209 202.528 48.8831 201.158 48.237C198.515 47.9042 196.812 44.6056 198.623 42.4521Z" fill="#FF3B7F"/>
<path d="M85.0976 55.3923L85.1171 54.9029C87.065 63.7418 90.7552 72.1892 92.2724 81.0868C90.2854 81.1945 89.424 82.1244 89.6981 83.8667C95.483 84.2191 100.906 81.449 106.661 81.586C109.989 88.5945 117.145 93.1265 124.682 94.2423C126.6 98.0402 124.192 102.582 125.543 106.527C120.776 112.556 114.071 117.137 106.456 118.596C94.788 121.258 80.8984 119.996 71.942 111.44C73.5179 109.914 75.5637 109.091 77.3354 107.848C78.001 104.99 74.487 105.822 73.2243 106.938C69.7592 109.228 65.1978 112.742 65.9417 117.304C68.5356 118.175 69.0251 115.473 69.6711 113.702C74.6142 117.323 80.0957 120.328 86.1253 121.689C88.8954 121.943 91.6753 122.159 94.4356 122.55C98.0573 122.531 101.699 121.571 105.32 121.992C106.524 125.585 107.082 129.363 108.541 132.877C118.28 137.037 128.548 140.16 138.141 144.574C140.862 156.751 144.532 168.732 147.038 180.918C142.751 177.551 139.012 173.538 134.832 170.043C133.07 168.732 130.78 168.967 128.724 168.722C118.261 167.518 107.797 166.334 97.333 165.228C95.297 166.187 94.5825 168.438 93.447 170.21C91.8907 172.725 90.2267 175.192 88.9444 177.874L88.8073 177.629C87.0944 174.889 86.1743 171.786 84.9312 168.839C83.414 166.197 80.1349 165.658 77.355 165.981C73.8409 165.717 70.3171 166.001 66.8031 165.746C66.7248 152.689 66.8227 139.641 66.7444 126.583C63.8079 126.612 60.8616 126.573 57.9251 126.534C57.3378 105.049 56.5645 83.5535 56.7015 62.068C57.0931 61.7352 57.8761 61.0598 58.2677 60.727C60.5973 64.055 63.524 66.9524 65.5208 70.5252C70.1018 70.6035 74.7219 70.3685 79.2735 71.1124C80.1349 66.7664 81.1137 62.3029 83.5118 58.5148C84.0013 57.4675 85.1661 56.6355 85.0976 55.3923ZM79.5182 81.3217C80.0761 81.7426 81.192 82.5942 81.7499 83.0151C84.6767 81.2923 83.5118 77.005 81.838 74.7341C78.0793 74.4796 79.2343 79.0117 79.5182 81.3217ZM69.6907 77.0638C68.9859 79.6087 68.3007 84.405 71.8637 84.914C74.8198 83.5437 73.655 75.8892 69.6907 77.0638Z" fill="#FF3B7F"/>
<path d="M126.854 94.0368C128.205 92.5196 130.212 91.6288 131.494 89.9746C130.809 94.9765 130.075 100.947 126.159 104.412C127.441 101.065 127.275 97.5312 126.854 94.0368Z" fill="#FF3B7F"/>
<path d="M135.83 115.522C137.533 118.645 139.794 121.522 140.704 125.027C141.566 130.361 140.92 136.039 138.365 140.835C136.378 140.571 132.874 140.737 132.648 138.094C136.378 133.122 137.709 126.583 136.554 120.504C136.133 118.88 136.035 117.186 135.83 115.522Z" fill="#FF3B7F"/>
<path d="M2.65951 128.541C23.3619 128.551 44.0643 128.551 64.7667 128.531C64.5709 130.469 65.354 132.72 64.3164 134.443C43.751 134.326 23.1759 134.472 2.60078 134.355C2.38543 132.417 2.31691 130.459 2.65951 128.541Z" fill="#FF3B7F"/>
<path d="M2.51266 136.626C9.80499 136.557 17.0973 136.469 24.3799 136.665C24.4484 139.308 24.4386 141.961 24.3603 144.603C30.4976 144.946 36.6642 144.819 42.8113 144.711C43.1441 142 42.3317 139.083 43.2714 136.508C50.3288 136.597 57.396 136.655 64.4534 136.45C65.1582 137.82 64.6687 139.435 64.8058 140.913C64.8058 154.881 64.8058 168.859 64.796 182.827C62.9558 183.121 61.0862 183.209 59.2264 183.16C40.3251 183.033 21.414 183.356 2.52245 182.964C2.35605 167.528 2.4833 152.062 2.51266 136.626ZM24.1449 157.181C25.065 157.123 26.915 157.005 27.8449 156.937C28.3441 155.4 29.1468 153.99 29.8711 152.552C27.6002 153.286 24.5463 154.578 24.1449 157.181ZM29.0881 157.172C30.1452 157.142 32.2693 157.084 33.3362 157.054C33.3264 155.351 33.3166 153.658 33.3264 151.954C30.9674 152.375 29.2936 154.92 29.0881 157.172ZM34.1976 151.886C34.1878 153.618 34.1878 155.341 34.2074 157.074C35.2547 157.113 37.3396 157.181 38.387 157.221C38.0738 154.959 36.4685 152.552 34.1976 151.886ZM37.7899 152.561C38.0836 154.118 39.1309 155.4 39.6399 156.888C40.609 156.966 42.5666 157.123 43.5455 157.211C42.7428 154.705 40.0608 153.472 37.7899 152.561ZM22.8822 158.141C22.2754 159.775 21.0518 161.616 21.737 163.387C23.3814 163.358 25.0259 163.348 26.6801 163.338C26.9542 161.557 27.2185 159.766 27.473 157.984C25.9362 158.053 24.4092 158.102 22.8822 158.141ZM28.4518 158.17C28.2071 159.952 27.4926 161.772 28.0505 163.583C29.7732 163.612 31.496 163.622 33.2285 163.583C33.3166 161.753 33.3362 159.912 33.3166 158.072C31.6918 158.043 30.0767 158.082 28.4518 158.17ZM34.2172 158.043C34.2074 159.883 34.0899 161.733 34.364 163.563C36.0769 163.632 37.7899 163.681 39.5029 163.534C39.4735 161.713 39.3071 159.893 38.9939 158.102C37.3984 158.053 35.8127 158.033 34.2172 158.043ZM40.0412 158.072C40.1195 159.854 40.4719 161.606 40.8341 163.358C42.459 163.681 44.123 163.73 45.7674 163.544C46.2862 161.684 45.1116 159.883 44.6026 158.151C43.0854 158.033 41.5682 158.004 40.0412 158.072ZM34.1095 165.012C34.2563 166.617 34.2465 168.223 34.0703 169.828C35.7148 170.2 37.4571 170.278 39.0918 169.799C39.3365 168.086 39.4931 166.363 39.5518 164.65C37.7508 164.787 35.8322 164.386 34.1095 165.012ZM40.7851 164.679C40.5111 166.422 40.2566 168.154 39.9727 169.897C41.5389 169.867 43.4769 170.611 44.818 169.632C45.464 168.086 45.8751 166.461 46.0709 164.797C44.309 164.699 42.5471 164.66 40.7851 164.679ZM21.3944 164.748C21.5412 166.51 22.06 168.193 22.6473 169.857C24.2526 170.122 25.9754 170.317 27.5513 169.799C27.2087 168.242 26.915 166.686 26.6703 165.12C25.2119 164.053 23.0878 165.022 21.3944 164.748ZM27.6687 164.836C27.8645 166.578 28.1777 168.311 28.4812 170.043C30.106 170.102 31.7211 170.102 33.346 170.053C33.3068 168.281 33.3068 166.51 33.346 164.738C31.4471 164.67 29.5481 164.572 27.6687 164.836ZM23.8317 171.052C24.8008 173.499 27.3164 174.761 29.5481 175.809C29.4013 173.9 28.0994 172.412 27.2185 170.797C26.3669 170.866 24.6833 170.993 23.8317 171.052ZM28.9119 171.257C29.646 173.371 30.801 175.613 33.0719 176.376C33.6396 174.634 33.2383 172.774 33.209 170.993C31.7211 170.777 30.292 170.856 28.9119 171.257ZM34.364 170.973C34.2367 172.725 33.8941 174.566 34.4325 176.298C36.7523 175.633 37.8976 173.176 38.524 171.032C37.1341 170.963 35.7539 170.944 34.364 170.973ZM39.6203 171.228C39.2777 172.813 37.8291 174.047 38.0933 175.76C40.3055 174.752 42.3513 173.322 43.6629 171.228C42.3023 170.777 40.9613 170.777 39.6203 171.228Z" fill="#FF3B7F"/>
<path d="M109.499 169.534C112.191 168.986 114.853 170.366 117.604 170.053C117.76 173.156 113.865 174.624 112.445 177.189C112.083 174.722 112.484 172.275 113.013 169.877C112.201 169.838 110.556 169.769 109.734 169.74C109.675 170.415 109.568 171.756 109.519 172.432C109.509 171.707 109.499 170.259 109.499 169.534Z" fill="#FF3B7F"/>
</g>
<defs>
<clipPath id="clip0_29_1419">
<rect width="229.048" height="185" fill="white" transform="translate(0.476562)"/>
</clipPath>
</defs>
</svg>
