<svg width="17" height="18" viewBox="0 0 17 18" fill="none" xmlns="http://www.w3.org/2000/svg">
<path d="M8.3 1.94043C10.5 1.94043 10.8 1.94043 11.7 1.94043C12.5 1.94043 12.9 2.14043 13.2 2.24043C13.6 2.44043 13.9 2.54043 14.2 2.84043C14.5 3.14043 14.7 3.44043 14.8 3.84043C14.9 4.14043 15 4.54043 15.1 5.34043C15.1 6.24043 15.1 6.44043 15.1 8.74043C15.1 11.0404 15.1 11.2404 15.1 12.1404C15.1 12.9404 14.9 13.3404 14.8 13.6404C14.6 14.0404 14.5 14.3404 14.2 14.6404C13.9 14.9404 13.6 15.1404 13.2 15.2404C12.9 15.3404 12.5 15.4404 11.7 15.5404C10.8 15.5404 10.6 15.5404 8.3 15.5404C6 15.5404 5.8 15.5404 4.9 15.5404C4.1 15.5404 3.7 15.3404 3.4 15.2404C3 15.0404 2.7 14.9404 2.4 14.6404C2.1 14.3404 1.9 14.0404 1.8 13.6404C1.7 13.3404 1.6 12.9404 1.5 12.1404C1.5 11.2404 1.5 11.0404 1.5 8.74043C1.5 6.44043 1.5 6.24043 1.5 5.34043C1.5 4.54043 1.7 4.14043 1.8 3.84043C2 3.44043 2.1 3.14043 2.4 2.84043C2.7 2.54043 3 2.34043 3.4 2.24043C3.7 2.14043 4.1 2.04043 4.9 1.94043C5.8 1.94043 6.1 1.94043 8.3 1.94043ZM8.3 0.44043C6 0.44043 5.8 0.44043 4.9 0.44043C4 0.44043 3.4 0.64043 2.9 0.84043C2.4 1.04043 1.9 1.34043 1.4 1.84043C0.900001 2.34043 0.700001 2.74043 0.400001 3.34043C0.200001 3.84043 0.1 4.44043 0 5.34043C0 6.24043 0 6.54043 0 8.74043C0 11.0404 0 11.2404 0 12.1404C0 13.0404 0.200001 13.6404 0.400001 14.1404C0.600001 14.6404 0.900001 15.1404 1.4 15.6404C1.9 16.1404 2.3 16.3404 2.9 16.6404C3.4 16.8404 4 16.9404 4.9 17.0404C5.8 17.0404 6.1 17.0404 8.3 17.0404C10.5 17.0404 10.8 17.0404 11.7 17.0404C12.6 17.0404 13.2 16.8404 13.7 16.6404C14.2 16.4404 14.7 16.1404 15.2 15.6404C15.7 15.1404 15.9 14.7404 16.2 14.1404C16.4 13.6404 16.5 13.0404 16.6 12.1404C16.6 11.2404 16.6 10.9404 16.6 8.74043C16.6 6.54043 16.6 6.24043 16.6 5.34043C16.6 4.44043 16.4 3.84043 16.2 3.34043C16 2.84043 15.7 2.34043 15.2 1.84043C14.7 1.34043 14.3 1.14043 13.7 0.84043C13.2 0.64043 12.6 0.54043 11.7 0.44043C10.8 0.44043 10.6 0.44043 8.3 0.44043Z" fill="white"/>
<path d="M8.3 4.44043C5.9 4.44043 4 6.34043 4 8.74043C4 11.1404 5.9 13.0404 8.3 13.0404C10.7 13.0404 12.6 11.1404 12.6 8.74043C12.6 6.34043 10.7 4.44043 8.3 4.44043ZM8.3 11.5404C6.8 11.5404 5.5 10.3404 5.5 8.74043C5.5 7.24043 6.7 5.94043 8.3 5.94043C9.8 5.94043 11.1 7.14043 11.1 8.74043C11.1 10.2404 9.8 11.5404 8.3 11.5404Z" fill="white"/>
<path d="M12.7 5.34043C13.2523 5.34043 13.7 4.89271 13.7 4.34043C13.7 3.78815 13.2523 3.34043 12.7 3.34043C12.1477 3.34043 11.7 3.78815 11.7 4.34043C11.7 4.89271 12.1477 5.34043 12.7 5.34043Z" fill="white"/>
</svg>
