<svg width="47" height="31" viewBox="0 0 47 31" fill="none" xmlns="http://www.w3.org/2000/svg">
<g clip-path="url(#clip0_1_2206)">
<path d="M0.5 3.875C0.5 1.7349 2.2349 0 4.375 0H43.125C45.2651 0 47 1.7349 47 3.875V27.125C47 29.2651 45.2651 31 43.125 31H4.375C2.2349 31 0.5 29.2651 0.5 27.125V3.875Z" fill="#FDEACE"/>
<path d="M28.6034 6.3235L18.5972 6.35791L18.9004 24.6768L28.9066 24.6424L28.6034 6.3235Z" fill="#FF5F00"/>
<path d="M19.2559 15.554C19.194 11.8281 20.8631 8.5175 23.4774 6.37008C21.5041 4.82158 19.0301 3.89042 16.3484 3.8996C9.99507 3.92136 4.94166 9.15525 5.04881 15.6027C5.15595 22.0502 10.3827 27.2488 16.736 27.2271C19.4178 27.2179 21.8605 26.2699 23.7821 24.7081C21.0973 22.6112 19.3178 19.28 19.2559 15.554Z" fill="#EB001B"/>
<path d="M42.454 15.3975C42.5611 21.8449 37.5077 27.0788 31.1544 27.1006C28.4727 27.1098 25.9987 26.1786 24.0254 24.6301C26.6717 22.4826 28.3088 19.172 28.2469 15.4461C28.185 11.7202 26.4061 8.42139 23.7207 6.29211C25.6423 4.73028 28.085 3.78227 30.7668 3.77309C37.1201 3.75133 42.3474 8.98241 42.454 15.3975Z" fill="#F79E1B"/>
</g>
<defs>
<clipPath id="clip0_1_2206">
<rect width="46.5" height="31" fill="white" transform="translate(0.5)"/>
</clipPath>
</defs>
</svg>
