<svg width="242" height="94" viewBox="0 0 242 94" fill="none" xmlns="http://www.w3.org/2000/svg">
<g clip-path="url(#clip0_1_1189)">
<path opacity="0.5" d="M153.85 0H156.43C154.06 1.71 151.33 3.21 149.82 5.81C148.29 8.73 148.62 12.15 148.73 15.32C145.69 9.67 149.19 3.44 153.85 0Z" fill="#282135"/>
<path d="M156.43 0H161.76C166.39 1.12 170.01 5.29 170.45 10.03C170.95 15.62 166.7 21.22 161.11 22.05C156.01 23.14 150.94 19.81 148.73 15.32C148.62 12.15 148.29 8.73 149.82 5.81C151.33 3.21 154.06 1.71 156.43 0Z" fill="#282135"/>
<path d="M105.35 31.72C106.62 32.28 108.1 32.69 108.77 34.04C111.86 38.66 114.83 43.57 119.43 46.87C119.46 48.23 120.19 49.87 118.87 50.88C116.06 53.96 113.21 57.09 109.65 59.33C108.86 57.7 108.01 56.11 107.22 54.48C104.57 55.95 102.08 58.22 98.9599 58.52C95.9399 58.01 92.0099 55.87 92.7499 52.24C97.0899 47.98 101.39 43.69 105.48 39.2C105.41 36.7 105.35 34.21 105.35 31.72Z" fill="#282135"/>
<path d="M80.45 91.77C82.28 88.6 83.35 82.16 88.33 83.43C88.63 86.45 88.83 89.48 88.96 92.51C86.12 92.39 83.28 92.14 80.45 91.77Z" fill="#282135"/>
<path opacity="0.55" d="M179.48 11.34C192.18 9.33997 205.16 9.97997 217.97 8.99997C221.4 8.96997 225.23 7.99997 228.28 10.08C212.01 9.91997 195.75 11.51 179.48 11.34Z" fill="#282135"/>
<path d="M179.48 11.3401C195.75 11.5101 212.01 9.92006 228.28 10.0801C229.06 10.5401 229.83 11.0301 230.59 11.5401C230.46 13.9401 231.14 17.2301 228.3 18.3301C223.74 19.9201 218.9 20.6001 214.32 22.1701C213.93 22.2801 213.15 22.5201 212.76 22.6401C215.38 24.5501 218.34 26.1001 220.48 28.5801C222.98 31.7901 223.08 36.0601 223.12 39.9501C223.04 46.6201 223.22 53.3001 222.95 59.9701C222.91 62.2901 222.64 64.8601 224.2 66.8001C227.16 71.0801 229.85 75.6001 233.44 79.4001C234.84 81.5401 236.55 83.5901 237.23 86.1001C237.72 89.0001 235.71 91.8201 232.76 92.1501C231.53 92.1001 230.32 91.9501 229.1 91.8801L228.52 91.9601C223.48 85.2901 219.05 78.1801 214.18 71.3901C210.03 64.5801 213.16 56.5101 211.1 49.2101C210.33 50.4001 209.57 51.5901 208.85 52.8201C206.34 57.8501 202.38 62.0001 199.93 67.0501C198.71 75.0801 200.88 83.4601 198.65 91.3501C196.42 91.6701 194.19 91.9701 191.96 92.2601C188.62 87.8201 189.98 82.1001 189.86 76.9701C190.04 72.4201 189.4 67.8001 190.22 63.2901C191.33 60.3101 193.15 57.6601 194.5 54.7801C196.72 50.5801 201.13 47.1901 201.77 42.3701C197.05 39.2601 191.97 36.7101 187.27 33.5601C185.25 31.9101 179.9 33.1001 177.5 33.4801C176.83 32.8801 178.15 32.1199 177.5 31.4999C178.15 31.3499 180.23 30.2701 180.89 30.1101C180.24 29.5001 179.61 28.8801 178.97 28.2701C178.43 28.3901 177.35 28.6301 176.81 28.7501C176.73 29.5901 176.64 30.4401 176.56 31.2801L181 29.9999C180.91 30.5799 180.59 31.9199 180.5 32.4999C179.27 33.0199 175.07 33.9201 174.45 35.3501C170.16 42.3701 168.44 50.9101 162.91 57.1501C159.56 56.9201 156.11 54.7101 156.31 50.9601C157.39 48.2301 158.95 45.7101 160 42.9601C160.64 41.4101 161.23 39.8501 161.83 38.2801C150.42 41.1701 139.2 44.7901 127.84 47.8401C126.52 47.7901 125.31 47.2701 124.24 46.5201C136.25 42.6901 148.48 39.5801 160.52 35.8501C161.71 35.3801 163.28 35.2401 163.9 33.9401C167.25 28.1101 169.34 21.6401 172.7 15.8201C174.11 13.3501 176.73 11.8201 179.48 11.3401ZM209.16 19.3201C206.07 21.8901 215.23 22.4001 212.79 19.2601C211.57 18.9901 210.35 19.0101 209.16 19.3201Z" fill="#282135"/>
<path d="M112.22 62.1901C115.61 57.8801 119.79 54.2501 123.74 50.4601C132.5 53.1401 141.77 52.1201 150.64 54.1201C150.82 53.2101 150.99 52.3001 151.16 51.3901C151.42 51.5401 151.93 51.8401 152.19 51.9901C153.18 56.0301 153.2 60.4301 155.64 63.9701C155.81 67.2101 154.11 70.0201 152.82 72.8601C150.47 77.5101 154.14 82.3901 153.33 87.2601C152.26 88.7601 151 90.0801 149.84 91.5001C146.66 91.9901 143.33 92.5101 140.16 91.7801C139.91 90.7101 139.81 89.6301 139.89 88.5301C141.65 87.8101 143.88 87.6701 145.2 86.1601C146.69 84.0001 145.35 81.4901 144.44 79.4101C142.9 76.2101 142.03 72.7401 140.45 69.5701C135.31 68.0701 129.8 69.2601 124.58 69.7101C122.1 74.7101 123.27 80.6101 122.29 85.9801C121.84 88.0801 121.83 91.5501 119.12 91.9801C116.25 92.0501 112.35 93.0301 110.75 89.8601C112.72 88.6301 114.74 87.4801 116.8 86.4301C116.81 79.8501 116.55 73.0301 113.81 66.9301C113.23 65.3701 112.29 63.8801 112.22 62.1901Z" fill="#282135"/>
<path d="M40.36 56.1201C41.32 53.1301 44.95 54.7201 46.31 56.5601C50.86 62.1901 52.8 69.3001 55.18 76.0001C56.36 71.5701 57.18 66.7701 60.12 63.0901C61.38 61.3801 64.22 61.9601 65.05 63.8001C68.36 69.3501 68.92 75.9701 70.13 82.1801C71.59 80.3801 72.55 76.5301 75.52 77.3901C77.72 82.0501 77.41 87.3801 77.88 92.3901C51.93 92.1601 25.96 92.4101 0 92.2701V84.3901C2.24 85.1901 4.53 85.8501 6.8 86.5701C4.84 83.4801 2.61 80.1901 3.24 76.3301C7.82 75.9701 11.96 78.0801 15.46 80.8401C14.48 76.7001 13.82 72.3301 15.43 68.2401C17.16 68.4901 19.16 68.1501 20.62 69.3301C24.24 72.1301 26.7 76.0901 29.32 79.7801C29.23 78.0401 29.15 76.3001 29.07 74.5601C33.54 72.1901 37.94 75.3201 41.62 77.6801C40.64 70.5801 38.75 63.2301 40.36 56.1201Z" fill="#282135"/>
<path d="M94.0601 91.6401C97.3301 89.2301 101.09 87.5201 105.21 87.4601C105.8 89.0801 106.37 90.7101 106.94 92.3401C102.63 92.4401 98.3201 92.3401 94.0601 91.6401Z" fill="#282135"/>
<path opacity="0.7" d="M209.16 19.3199C210.35 19.0099 211.57 18.9899 212.79 19.2599C215.23 22.3999 206.07 21.8899 209.16 19.3199Z" fill="#282135"/>
<path opacity="0.42" d="M212.76 22.64C213.15 22.52 213.93 22.28 214.32 22.17C218.02 25.12 222.98 27.85 223.47 33.11C224.03 39.73 223.5 46.39 223.61 53.02C223.74 56.89 223.09 60.93 224.3 64.67C226.95 69.82 231.1 74.0601 233.44 79.4001C229.85 75.6001 227.16 71.0801 224.2 66.8001C222.64 64.8601 222.91 62.2901 222.95 59.9701C223.22 53.3001 223.04 46.62 223.12 39.95C223.08 36.06 222.98 31.79 220.48 28.58C218.34 26.1 215.38 24.55 212.76 22.64Z" fill="#282135"/>
<path opacity="0.75" d="M154.41 49.41C156.72 47.7 158.6 45.46 160 42.96C158.95 45.71 157.39 48.23 156.31 50.96C156.11 54.71 159.56 56.92 162.91 57.15C162.51 57.55 161.69 58.34 161.29 58.73C161.89 59.93 162.51 61.12 163.15 62.3C161.98 60.36 160.48 58.66 158.77 57.19C156.06 55 154.74 51.7 152.85 48.87L154.41 49.41Z" fill="#420925"/>
<path opacity="0.43" d="M123.2 50.23C123.56 49 123.89 47.76 124.24 46.52C125.31 47.27 126.52 47.79 127.84 47.84C127.17 48.58 126.5 49.32 125.84 50.06C133.56 51.81 141.58 50.99 149.3 52.69C149.74 52.28 150.62 51.48 151.06 51.08L151.16 51.39C150.99 52.3 150.82 53.21 150.64 54.12C141.77 52.12 132.5 53.14 123.74 50.46C119.79 54.25 115.61 57.88 112.22 62.19C112.29 63.88 113.23 65.37 113.81 66.93C116.55 73.03 116.81 79.85 116.8 86.43C114.74 87.48 112.72 88.63 110.75 89.86L110.84 88.95C112.15 87.18 114.49 86.55 116.07 85.02C115.65 74.85 113.49 64.03 106.41 56.28C103.43 58.18 99.79 60.58 96.17 58.8C93.64 57.93 90.16 54.85 92.75 52.24C92.01 55.87 95.94 58.01 98.96 58.52C102.08 58.22 104.57 55.95 107.22 54.48C108.01 56.11 108.86 57.7 109.65 59.33C113.21 57.09 116.06 53.96 118.87 50.88C120.19 49.87 119.46 48.23 119.43 46.87C120.73 47.95 121.96 49.09 123.2 50.23Z" fill="#282135"/>
<path d="M151.06 51.08C149.84 49.24 151.01 47.87 152.85 48.87C154.74 51.7 156.06 55 158.77 57.19C160.48 58.66 161.98 60.36 163.15 62.3C164.73 65.11 166.57 67.88 166.97 71.17C165.26 72.03 163.57 72.93 161.79 73.62C159.2 70.79 157.66 67.2 155.64 63.97C153.2 60.43 153.18 56.03 152.19 51.99C151.93 51.84 151.42 51.54 151.16 51.39L151.06 51.08Z" fill="#FE0180"/>
<path opacity="0.69" d="M208.85 52.82C209.57 51.59 210.33 50.4 211.1 49.21C213.16 56.51 210.03 64.58 214.18 71.39C213.02 69.69 211.15 68.21 211.05 65.99C210.69 61.36 211.01 56.71 210.96 52.07C210.43 52.26 209.38 52.63 208.85 52.82Z" fill="#0C0C0C"/>
<path opacity="0.59" d="M189.39 62.33C190.24 59.34 192.63 57.15 194.5 54.78C193.15 57.66 191.33 60.31 190.22 63.29C189.4 67.8 190.04 72.42 189.86 76.97C189.98 82.1 188.62 87.82 191.96 92.26C194.19 91.97 196.42 91.67 198.65 91.35L198.33 92.44C178.91 92.98 159.43 92.1 140 92.97C129.03 92.95 118.04 93.1 107.09 92.35C107.86 92.32 109.41 92.28 110.18 92.26C110.38 91.15 110.6 90.05 110.84 88.95L110.75 89.86C112.35 93.03 116.25 92.05 119.12 91.98C121.83 91.55 121.84 88.08 122.29 85.98C123.27 80.61 122.1 74.71 124.58 69.71C129.8 69.26 135.31 68.07 140.45 69.57C142.03 72.74 142.9 76.21 144.44 79.41C145.35 81.49 146.69 84 145.2 86.16C143.88 87.67 141.65 87.81 139.89 88.53C139.81 89.63 139.91 90.71 140.16 91.78C143.33 92.51 146.66 91.99 149.84 91.5C151.18 91.85 152.57 91.98 153.96 92.02C165.89 92.06 177.82 92.44 189.76 92.18C188.66 85.82 189.19 79.35 189.12 72.93C189.21 69.4 188.88 65.84 189.39 62.33ZM124.71 70.49C123.53 77.66 124.31 85.12 122 92.08C127.48 92.5 132.99 92.38 138.48 92.08C138.56 90.68 138.66 89.29 138.75 87.89C140.57 87.17 142.45 86.56 144.37 86.14C144.56 84.71 145.18 83.17 144.37 81.82C142.69 78.15 140.9 74.48 140.23 70.45C135.08 69.74 129.88 70.42 124.71 70.49Z" fill="#18080D"/>
<path opacity="0.4" d="M153.33 87.26C154.14 82.39 150.47 77.51 152.82 72.86C151.69 77.74 156.35 82.81 153.33 87.26Z" fill="#0A0909"/>
<path d="M77.88 92.39C78.77 92.29 79.62 92.09 80.45 91.77C83.28 92.14 86.12 92.39 88.96 92.51C90.69 92.41 92.42 92.21 94.06 91.64C98.32 92.34 102.63 92.44 106.94 92.34L107.09 92.35C118.04 93.1 129.03 92.95 140 92.97C159.43 92.1 178.91 92.98 198.33 92.44C208.39 92.02 218.5 92.97 228.52 91.96L229.1 91.88C230.32 91.95 231.53 92.1 232.76 92.15C235.84 92.35 238.92 92.4 242 92.44V94H0V92.27C25.96 92.41 51.93 92.16 77.88 92.39Z" fill="#500A22"/>
</g>
<defs>
<clipPath id="clip0_1_1189">
<rect width="242" height="94" fill="white"/>
</clipPath>
</defs>
</svg>
