<svg width="242" height="113" viewBox="0 0 242 113" fill="none" xmlns="http://www.w3.org/2000/svg">
<g clip-path="url(#clip0_1_1225)">
<path d="M79.3 0H84.34C91.92 1.67 94.43 12.63 88.53 17.53C84.42 21.66 77.11 20.86 73.78 16.18C68.97 10.88 72.37 1.36 79.3 0Z" fill="#282135"/>
<path d="M73.37 22.59C79.25 22.5 85.14 22.42 91.02 22.53C94.21 22.42 96.66 25.03 98.3 27.47C101.07 32.83 103.42 38.41 106.56 43.58C111.24 43.6 115.93 43.3 120.6 43.65C124.14 44.88 124.07 49.97 120.85 51.36C113.89 51.52 106.87 51.85 99.94 51.07C106.92 50.05 114 50.74 121.03 50.51C114.02 50.38 107.02 50.59 100.02 50.14C98.55 46.64 96.78 43.28 94.79 40.06C94.54 63.13 94.85 86.22 94.65 109.29C94.32 109.72 93.67 110.56 93.34 110.99C96.65 109 100.12 106.84 104.09 106.68C106.26 107.3 106.5 109.79 107.31 111.53C115.83 111.39 124.35 111.66 132.87 111.37C131.71 109.99 130.55 108.6 129.42 107.2C129.53 105.08 129.59 102.95 129.57 100.82C126.65 100.19 123.73 99.6 120.77 99.23C119.15 95.38 117.08 91.68 114.01 88.79C116.08 85.57 117.27 81.72 120.1 79.03C123.71 75.52 128.35 73.22 133.16 71.83C137.75 70.89 142.48 71.38 147.13 71.53C150.92 75.78 155.21 79.55 158.91 83.87C155.04 86.99 154.64 92.15 151.96 96.07C149.73 99.47 149.44 103.66 149.12 107.6C150.16 108.02 151.2 108.43 152.24 108.84C152.76 109.71 153.29 110.59 153.81 111.46C183.21 111.54 212.6 111.47 242 111.5V113H0V111.85C0.39 109.05 0.46 106.23 0.45 103.41C2.88 104.17 5.32 104.91 7.75 105.67C5.94 102.6 2.61 99.11 4.63 95.34C9.06 95.27 13.04 97.38 16.39 100.1C15.46 95.93 14.01 91.17 16.78 87.36C23.24 87.45 26.63 94.1 29.53 98.96C29.56 96.81 29.07 93.84 31.54 92.83C35.55 92.33 39.21 94.65 42.32 96.9C40.97 90.37 39.93 83.64 40.56 76.96C40.58 75.37 41.91 74.32 42.81 73.18C44.97 74.2 47.05 75.55 48.26 77.68C51.52 83.07 53.95 88.99 55.37 95.13C57.09 90.93 57.51 86.05 60.47 82.46C61.6 80.71 64.27 80.97 65.18 82.8C68.74 88.33 69.28 95.13 70.88 101.37C71.22 99.6 71.42 97.81 71.41 96C71.33 77.84 71.43 59.68 71.32 41.52C70.87 41.49 69.95 41.42 69.5 41.39C69.5 49.36 69.4 57.34 69.55 65.31C68.34 68.29 65.23 67.83 62.64 67.38C61.98 57.93 62.51 48.44 62.33 38.98C62.45 35.58 61.88 31.9 63.61 28.8C65.68 25.41 69.27 22.66 73.37 22.59ZM82.55 75.05C82.46 85.77 82.34 96.51 82.61 107.23C84.04 103.99 83.47 100.41 83.56 96.99C83.45 89.84 83.77 82.68 83.4 75.55C83.19 75.42 82.76 75.17 82.55 75.05ZM138.4 95.88C139.07 97.12 139.69 98.45 139.58 99.91C139.96 103.06 136.53 105.09 137.2 108.34C140.95 107.51 140.78 113.31 144.82 111.53C144.29 108.38 143.35 105.26 143.5 102.04C143.38 98.77 145.41 95.41 143.32 92.38C140.92 92.18 139.53 94.1 138.4 95.88Z" fill="#282135"/>
<path d="M127.12 50.0699C127.66 50.2099 128.73 50.4899 129.27 50.6299C134.9 55.8399 139.77 61.8499 145.59 66.8499C145.65 67.9099 145.58 68.9599 145.38 69.9999C139.26 64.2599 133.89 57.7599 127.57 52.2299C127.46 51.6899 127.23 50.6099 127.12 50.0699Z" fill="#282135"/>
<path d="M163.59 65.73C165.22 64.7 166.83 63.26 168.93 63.5C168.47 65.1 167.75 66.61 167.26 68.21C172.57 68.65 174.12 75.26 179.46 75.86C179.79 76.96 179.81 78.11 179.77 79.26C178.22 80.45 177.16 82.72 174.98 82.78C171.47 83.34 168.43 80.91 164.99 80.88C163.28 81.28 161.59 81.74 159.83 81.84C157.08 78.19 152.25 75.8 150.99 71.31C155.54 70.4 159.81 68.41 163.59 65.73Z" fill="#282135"/>
<path d="M111.28 89.14C111.92 91.07 112.36 93.07 112.91 95.04L113.23 95.69C108.87 95.77 104.19 94.23 101.73 90.41C104.88 90.07 108.6 91.39 111.28 89.14Z" fill="#282135"/>
<path d="M110.57 87.05C111.38 86.68 112.22 86.45 113.09 86.34C113.32 86.95 113.78 88.18 114.01 88.79C117.08 91.68 119.15 95.38 120.77 99.23C120.94 99.96 121.28 101.43 121.45 102.16C120.15 102.99 118.71 103.92 117.1 103.29C115.8 100.76 114.63 98.17 113.23 95.69L112.91 95.04C112.72 92.21 113.19 88.95 110.57 87.05Z" fill="#F7017B"/>
</g>
<defs>
<clipPath id="clip0_1_1225">
<rect width="242" height="113" fill="white"/>
</clipPath>
</defs>
</svg>
