<svg width="242" height="113" viewBox="0 0 242 113" fill="none" xmlns="http://www.w3.org/2000/svg">
<g clip-path="url(#clip0_1_1238)">
<path d="M99.3101 0H103.65C110.18 1.68 114 9.97 109.95 15.68C106.52 21.54 97.4501 21.87 93.4701 16.43C88.6901 10.82 92.3401 1.64 99.3101 0Z" fill="#282135"/>
<path d="M65.03 24.09C66.61 22.56 68.9301 22.63 70.9701 22.59C83.3201 22.62 95.6701 22.58 108.01 22.52C110.17 22.58 112.54 22.44 114.41 23.72C117.33 25.55 118.74 28.83 120.2 31.78C122.03 35.72 124.02 39.57 125.98 43.44C130.79 43.74 135.65 43.15 140.44 43.75C143.42 44.69 142.8 48.17 142.15 50.51C135.15 50.02 128.1 50.08 121.1 50.47L120.4 50.45C119.39 49.11 118.6 47.62 117.94 46.09C117.27 43.99 116.49 41.83 114.45 40.69C114.14 63.66 114.35 86.63 114.35 109.59C114.15 109.84 113.75 110.34 113.55 110.59C110.71 111.57 107.62 111.06 104.83 110.15C103.57 109.69 103.65 108.13 103.55 107.06C103.42 97.36 103.63 87.66 103.51 77.97C103.8 76.53 102.38 75.76 101.67 74.77C101.96 85.18 101.73 95.59 101.83 106.01C101.97 108.07 101.13 109.95 100.22 111.73C97.84 111.98 95.4401 112.14 93.0501 111.91C90.8801 106.52 91.82 100.65 91.68 95.01C91.5401 74.29 91.8401 53.57 91.5101 32.86C90.4601 47.88 91.02 62.96 90.85 78C90.82 88.35 90.71 98.71 90.99 109.06C90.39 83.53 90.93 57.98 90.74 32.44C83.48 31.95 76.1901 32.62 68.93 32.19C66.83 32.13 65.22 30.69 63.55 29.6C63.78 27.73 63.2 25.34 65.03 24.09Z" fill="#282135"/>
<path d="M207.99 84.0499C208.86 83.0999 211.21 82.6199 211.54 84.3099C212.81 89.7199 211.43 95.2899 210.46 100.63C213.09 98.8999 216.5 96.4099 219.68 98.2299C220 99.3899 220.27 100.57 220.5 101.75C222.37 97.8699 225.37 92.8999 230.37 93.4999C230.97 96.5699 230.79 99.6899 230.14 102.73C232.79 100.94 235.86 98.6399 239.24 99.8799C239.85 102.46 237.81 104.69 236.89 106.96C238.6 106.48 240.3 105.97 242 105.43V111.7C222.54 111.29 203.06 111.89 183.6 111.44C183.62 107.49 184.09 103.53 185.3 99.7499C187.16 100.53 188.43 102.07 189.49 103.72C190.28 98.2399 190.9 92.1899 194.96 88.0199C198.66 90.4999 199.37 95.0499 200.51 99.0099C202.53 93.8499 203.8 87.9899 207.99 84.0499Z" fill="#282135"/>
<path opacity="0.64" d="M90.85 78C91.02 62.96 90.46 47.88 91.51 32.86C91.84 53.57 91.54 74.29 91.68 95.01C91.82 100.65 90.88 106.52 93.05 111.91C88.67 111.51 84.25 111.52 79.87 111.86C82.7 100.04 83.62 87.87 84.99 75.81L85.81 76.29C85.53 84.94 83.71 93.43 82.83 102.02C82.52 105.16 82.09 108.28 81.45 111.36C84.7 111.43 87.95 111.41 91.2 111.3C91.15 110.74 91.04 109.62 90.99 109.06C90.71 98.71 90.82 88.35 90.85 78Z" fill="#282135"/>
<path d="M64.05 38.9C65.3 38.05 66.51 37.13 67.84 36.42C69.97 35.73 71.39 37.74 72.85 38.86C72.38 39.5 71.4401 40.79 70.9801 41.43C69.35 41.21 67.73 41.02 66.12 40.75C65.6 40.29 64.57 39.36 64.05 38.9Z" fill="#FB0081"/>
<path opacity="0.71" d="M66.12 40.75C67.73 41.02 69.35 41.21 70.98 41.43C70.83 42.47 70.88 43.5 71.1 44.52C69.48 44.35 67.83 44.21 66.23 44.62C66.2 43.33 66.16 42.04 66.12 40.75Z" fill="#B4005A"/>
<path opacity="0.36" d="M114.45 40.6899C116.49 41.8299 117.27 43.9899 117.94 46.0899C117.36 45.9299 116.22 45.6099 115.65 45.4499C115.2 66.3599 115.85 87.2899 115.35 108.2C115.1 108.55 114.6 109.25 114.35 109.59C114.35 86.6299 114.14 63.6599 114.45 40.6899Z" fill="#282135"/>
<path d="M66.23 44.6201C67.83 44.2101 69.48 44.3501 71.1 44.5201C74.81 48.4201 77.86 55.7501 72.38 59.5401C69.77 59.8301 67.15 59.8001 64.55 59.5301C62.2 57.4001 60.53 54.1401 62.15 51.0401C63.06 48.6701 64.01 46.0801 66.23 44.6201Z" fill="#FE0080"/>
<path opacity="0.49" d="M120.4 50.45L121.1 50.47C127.8 51.48 134.62 50.47 141.37 51.06C138.87 52.69 135.75 52.04 132.94 52.16C128.8 51.99 124.6 52.54 120.49 51.77C120.47 51.44 120.43 50.78 120.4 50.45Z" fill="#282135"/>
<path d="M143.96 50.7501C145.57 49.7901 147.04 50.6801 148.06 51.9501C154.14 58.2001 160.43 64.2401 166.46 70.5201C166.55 71.1501 166.72 72.4201 166.8 73.0601C165.58 72.3801 164.44 71.5501 163.5 70.5201C157.06 63.8601 150.36 57.4501 143.96 50.7501Z" fill="#282135"/>
<path d="M176.15 67.0601C178.92 64.3001 179.91 59.9001 183.57 58.0801C183.77 60.3401 183.41 62.6801 183.98 64.8901C187.46 69.3701 191.67 73.2301 195.38 77.5001C196.16 80.2301 192.85 81.2401 191.04 82.3101C187.44 83.7301 185.03 80.0401 181.84 79.2201C181.34 80.5901 180.75 81.9401 180.24 83.3101C176.14 81.1801 173.32 77.2101 170.14 73.9701C171.42 71.2101 174.51 69.6801 176.15 67.0601Z" fill="#282135"/>
<path d="M135.89 71.7401C138.68 73.4201 140.63 76.0701 143.11 78.1201C151.82 77.9201 160.4 76.1901 169.07 75.6501C172.05 79.2601 175.6 82.3301 178.73 85.8101C177.84 87.4701 176.92 89.1101 176.08 90.7901C173.47 95.3601 173.61 100.86 173.49 105.96C173.31 107.23 174.99 107.46 175.65 108.24C175.68 107.6 175.74 106.31 175.77 105.67C176.3 105.33 177.36 104.65 177.9 104.32C179.75 106.32 180.8 108.86 181.78 111.37C175.56 112.78 169.31 111.45 163.05 111.13C162.96 110.62 162.78 109.59 162.69 109.08C163.46 108.33 164.46 108.01 165.69 108.13C166.79 108.42 167.89 108.72 168.99 109.04C168.72 103.45 168.17 97.8701 167.39 92.3301C162.53 91.1901 157.51 91.3901 152.55 91.5401C152.27 92.6701 152.01 93.8101 151.76 94.9601C151.2 99.1601 147.48 102.57 148.65 107.01C150.28 107.5 152.31 107.43 153.43 108.94C153.66 114.08 147.25 112.07 144.15 111.6C143.29 110.47 142.4 109.37 141.54 108.24C141.11 104.42 142.6 100.79 142.75 97.0201C142.2 94.4901 140.81 92.2401 140.15 89.7501C139.58 86.8001 140.82 83.5801 139.22 80.8501C138.17 79.2001 136.93 77.6901 135.89 76.0401C135.86 74.6101 135.86 73.1701 135.89 71.7401Z" fill="#282135"/>
<path opacity="0.52" d="M134.94 70.95C138.99 71.15 140.96 75.03 143.79 77.33C151.76 75.66 160 76.16 167.99 74.48C168.26 74.77 168.8 75.35 169.07 75.65C160.4 76.19 151.82 77.92 143.11 78.12C140.63 76.07 138.68 73.42 135.89 71.74C135.86 73.17 135.86 74.61 135.89 76.04C134.74 74.55 134.71 72.73 134.94 70.95Z" fill="#282135"/>
<path opacity="0.21" d="M101.67 74.77C102.38 75.76 103.8 76.53 103.51 77.97C103.63 87.66 103.42 97.36 103.55 107.06C103.65 108.13 103.57 109.69 104.83 110.15C107.62 111.06 110.71 111.57 113.55 110.59C113.35 110.8 112.95 111.21 112.75 111.42C108.59 112.15 104.39 111.44 100.22 111.73C101.13 109.95 101.97 108.07 101.83 106.01C101.73 95.59 101.96 85.18 101.67 74.77Z" fill="#282135"/>
<path opacity="0.21" d="M58.59 80.4401C59.51 80.4601 60.43 80.4901 61.36 80.5201C62.68 89.4101 62.72 98.4201 63.62 107.37C63.08 107.49 62.01 107.73 61.47 107.85C61.1 105.6 60.72 103.35 60.64 101.08C60.39 94.1601 58.76 87.3701 58.59 80.4401Z" fill="#282135"/>
<path d="M54.49 75.71C64.65 75.83 74.82 75.61 84.99 75.81C83.62 87.87 82.7 100.04 79.87 111.86C73.24 112.52 66.56 112.5 59.92 112.08C59.78 111.76 59.5 111.14 59.36 110.82C58.36 108.68 57.68 106.38 57.55 104.01C56.72 94.56 54.62 85.2 54.49 75.71ZM58.59 80.44C58.76 87.37 60.39 94.16 60.64 101.08C60.72 103.35 61.1 105.6 61.47 107.85C62.01 107.73 63.08 107.49 63.62 107.37C62.72 98.42 62.68 89.41 61.36 80.52C60.43 80.49 59.51 80.46 58.59 80.44ZM71.74 81.45C71.44 90.23 71.53 99.02 71.4 107.81C71.95 107.71 73.04 107.52 73.58 107.43C73.29 98.36 74.85 89.38 74.45 80.31C73.61 80.65 71.71 80.14 71.74 81.45ZM78.49 80.36C77.18 84.82 77.91 89.52 77.19 94.06C76.52 98.58 76.68 103.17 76.36 107.72C76.89 107.73 77.93 107.74 78.45 107.74C79.4 98.66 80.54 89.58 80.68 80.44C80.13 80.42 79.03 80.38 78.49 80.36ZM65.53 80.53C65.05 89.63 66.18 98.71 66.41 107.8C66.94 107.69 68.01 107.48 68.54 107.37C68.08 98.9 68.61 90.4 67.96 81.95C67.75 81.51 67.34 80.63 67.13 80.19L65.53 80.53Z" fill="#282135"/>
<path opacity="0.16" d="M71.74 81.4501C71.71 80.1401 73.61 80.6501 74.45 80.3101C74.85 89.3801 73.29 98.3601 73.58 107.43C73.04 107.52 71.95 107.71 71.4 107.81C71.53 99.0201 71.44 90.2301 71.74 81.4501Z" fill="#282135"/>
<path opacity="0.16" d="M65.53 80.5301L67.13 80.1901C67.34 80.6301 67.75 81.5101 67.96 81.9501C68.61 90.4001 68.08 98.9001 68.54 107.37C68.01 107.48 66.94 107.69 66.41 107.8C66.18 98.7101 65.05 89.6301 65.53 80.5301Z" fill="#282135"/>
<path opacity="0.19" d="M78.49 80.36C79.03 80.38 80.13 80.42 80.68 80.44C80.54 89.58 79.4 98.66 78.45 107.74C77.93 107.74 76.89 107.73 76.36 107.72C76.68 103.17 76.52 98.58 77.19 94.06C77.91 89.52 77.18 84.82 78.49 80.36Z" fill="#282135"/>
<path opacity="0.54" d="M139.22 80.85C140.82 83.58 139.58 86.8 140.15 89.75C140.81 92.24 142.2 94.49 142.75 97.02C142.6 100.79 141.11 104.42 141.54 108.24C138.75 104.97 141.69 100.89 141.59 97.21C141.03 94.37 139.49 91.82 138.97 88.97C138.9 86.26 139.32 83.56 139.22 80.85Z" fill="#080808"/>
<path opacity="0.53" d="M152.55 91.54C157.51 91.39 162.53 91.19 167.39 92.33C168.17 97.87 168.72 103.45 168.99 109.04C167.89 108.72 166.79 108.42 165.69 108.13C166.17 108.08 167.15 107.97 167.63 107.91C167.45 103.36 167.37 98.79 166.75 94.27C166.66 92.47 164.18 93.01 163 92.69C160 92.46 157 92.53 154.01 92.56C153.26 93.36 152.51 94.16 151.76 94.96C152.01 93.81 152.27 92.67 152.55 91.54Z" fill="#282135"/>
<path opacity="0.54" d="M173.49 105.96C173.61 100.86 173.47 95.36 176.08 90.79C175.59 94.9 174.66 98.97 174.43 103.11C174.76 103.75 175.43 105.03 175.77 105.67C175.74 106.31 175.68 107.6 175.65 108.24C174.99 107.46 173.31 107.23 173.49 105.96Z" fill="#282135"/>
<path d="M153.43 108.94C153.85 109.81 154.26 110.68 154.66 111.56C157.1 111.51 159.54 111.5 161.98 111.43C162.16 110.84 162.51 109.66 162.69 109.08C162.78 109.59 162.96 110.62 163.05 111.13C169.31 111.45 175.56 112.78 181.78 111.37C182.39 111.38 182.99 111.41 183.6 111.44C203.06 111.89 222.54 111.29 242 111.7V113H60.31L59.92 112.08C66.56 112.5 73.2401 112.52 79.8701 111.86C84.2501 111.52 88.6701 111.51 93.0501 111.91C95.4401 112.14 97.84 111.98 100.22 111.73C104.39 111.44 108.59 112.15 112.75 111.42C123.21 111.65 133.69 111.3 144.15 111.6C147.25 112.07 153.66 114.08 153.43 108.94Z" fill="#4E061F"/>
<path d="M59.36 110.82C59.5 111.14 59.78 111.76 59.92 112.08L60.31 113H0V111.5C18.36 111.53 36.71 111.44 55.07 111.54C56.54 111.59 57.96 111.23 59.36 110.82Z" fill="#59021F"/>
</g>
<defs>
<clipPath id="clip0_1_1238">
<rect width="242" height="113" fill="white"/>
</clipPath>
</defs>
</svg>
