<svg width="299" height="200" viewBox="0 0 299 200" fill="none" xmlns="http://www.w3.org/2000/svg">
<path d="M102.066 7.87689C104.784 6.62561 107.328 5.01535 110.2 4.12305C112.477 4.6051 114.682 5.43587 116.395 7.05638C111.83 4.06151 106.046 5.31279 102.087 8.67689C98.0048 4.90253 90.6099 3.641 86.8561 8.50253C83.9945 13.0666 85.8817 19.1282 89.7689 22.4923C88.1279 20.9436 86.2817 19.4564 85.4612 17.282C83.8714 14.2461 85.492 10.9538 86.3945 7.97946C88.6509 6.46151 90.8766 4.2051 93.8304 4.50253C97.0099 4.24612 99.2971 6.81023 102.066 7.87689Z" fill="#5A0220"/>
<path d="M113.44 65.8565C116.599 59.9078 118.169 53.0975 122.446 47.795C123.307 47.7642 125.04 47.6924 125.902 47.6616C126.384 48.0309 127.338 48.7796 127.82 49.1488C131.389 59.6616 133.717 70.5539 137.553 80.9847C146.076 80.6667 154.384 78.236 162.456 75.6514C163.881 75.436 165.317 75.2411 166.743 75.036C172.415 75.2411 177.697 78.9232 179.83 84.1744C182.733 91.2514 181.348 99.3539 178.24 106.113C174.21 115.087 166.497 122.174 157.543 126.082C155.799 126.615 154.066 127.19 152.353 127.795C152.64 131.036 153.328 134.226 154.24 137.344C154.487 137.908 154.979 139.026 155.225 139.59C161.646 141.118 167.461 144.4 173.758 146.236C176.456 147.415 178.179 144.78 179.205 142.739C182.794 136.051 182.015 127.918 179.584 120.974C179.933 120.349 180.63 119.118 180.979 118.492C181.769 118.523 183.369 118.595 184.169 118.626C190.876 124.964 194.374 134.964 191.779 143.99C191.194 147.354 189.215 150.431 189.071 153.846C190.969 162.482 193.225 171.036 195.492 179.59C195.923 182.39 196.671 185.128 197.656 187.785C198.61 191.6 199.317 195.498 199.133 199.456C198.138 199.498 196.158 199.59 195.164 199.631C190.384 194.923 185.143 190.728 180.302 186.103C176.056 185.303 171.748 185.036 167.43 184.933C163.225 189.405 159.328 194.164 154.948 198.472C153.564 198.4 152.179 198.318 150.794 198.236C150.384 193.251 150.63 188.246 150.876 183.262C150.24 182.995 148.958 182.462 148.323 182.195C145.523 182.082 142.733 181.98 139.943 181.949C136.569 188 132.876 193.877 129.092 199.672C127.287 199.59 125.481 199.498 123.687 199.374C120.907 193.518 118.138 187.641 114.805 182.072C111.246 182.092 107.676 182.072 104.107 182.144C100.712 186.739 97.0712 191.159 93.7276 195.795C92.343 197.313 91.0507 199.785 88.6917 199.621C86.4046 200.287 85.9225 197.415 86.1071 195.836C86.0148 158.246 86.7635 120.656 86.0046 83.0667C85.2969 74.5437 85.0097 65.9693 85.3687 57.4155C85.3584 54.6257 86.8764 51.795 89.6353 50.8821C92.1789 50.7693 94.2507 52.6155 95.6866 54.5334C98.6917 58.3693 101.666 62.236 104.487 66.2257C107.471 66.0924 110.456 65.9591 113.44 65.8565ZM123.379 50.8001C120.753 56.5744 118.446 62.4821 115.656 68.1642C113.102 68.2975 110.538 68.4103 108.025 68.8719C106.353 68.9232 104.692 69.1283 103.02 69.2719C100.189 65.4975 97.6558 61.4873 94.4251 58.0206C93.7789 55.5488 91.5328 54.5334 89.1328 54.3796C88.4456 73.118 89.4917 91.877 89.5533 110.615C89.3276 138.595 89.4097 166.585 89.143 194.564L90.9482 194.41C92.7225 192.041 94.661 189.805 96.4558 187.456C98.6917 184.728 100.435 181.58 103.092 179.221C107.902 178.708 112.805 178.759 117.564 179.682C119.205 184.718 122.281 189.139 124.343 194C124.661 194.718 125.297 196.133 125.615 196.851C127.328 196.574 128.692 195.467 129.543 194C132.261 188.78 135.42 183.815 138.364 178.728C149.953 178.462 161.287 181.303 172.805 182.072C175.758 182.215 178.681 182.708 181.594 183.231C186.066 187.231 190.487 191.313 195.276 194.954C195.061 187.867 192.292 181.262 190.876 174.4C189.471 167.815 187.656 161.323 186.271 154.739C175.174 149.733 163.564 146 152.271 141.477C151.42 137.077 149.789 132.892 148.446 128.636C140.21 130.267 131.594 130.195 123.574 127.539C117.84 126.41 113.523 122.246 108.24 120.082C107.523 122.154 105.133 125.764 103.41 122.256C105.307 116.585 110.261 111.159 116.538 110.81C116.384 113.61 114.22 114.974 111.861 115.939C111.81 116.656 111.758 117.385 111.707 118.103C115.635 120.533 119.492 123.241 123.953 124.585C130.487 126.472 137.41 127.077 144.148 126.072C152.887 125.682 161.266 121.723 167.707 115.908C173.523 109.426 178.23 101.395 178.62 92.4924C176.897 93.9796 175.143 95.4257 173.369 96.8514C173.42 100.595 173.492 104.339 173.174 108.072C170.128 105.313 171.769 100.862 171.276 97.2411C164.63 96.0103 157.789 93.4873 153.789 87.6924C151.984 86.0514 151.287 82.1539 148.271 82.6052C143.081 83.3539 138.005 84.9539 132.733 85.2411C132.158 85.0052 131.01 84.5334 130.425 84.2975C131.523 83.4052 132.63 82.5129 133.748 81.6411C133.061 74.6462 129.984 68.2257 128.312 61.4667C127.564 59.1488 127.42 56.3283 125.153 54.9026C126.497 53.7642 125.164 52.0514 125.133 50.6462C124.692 50.6873 123.81 50.7693 123.379 50.8001ZM184.651 125.313C184.333 130.728 185.574 136.564 182.958 141.61C182.015 143.918 180.292 146.021 180.24 148.605C181.964 150.123 184.364 150.154 186.497 150.595C188.446 146.133 189.697 141.292 189.656 136.41C189.01 132.38 188.487 127.672 184.651 125.313ZM153.194 183.015C153.194 187.169 153.071 191.313 152.856 195.457C153.307 195.405 154.21 195.282 154.661 195.231C157.533 191.539 160.579 188 163.523 184.38C160.117 183.713 156.692 182.995 153.194 183.015Z" fill="#5A0220"/>
<path d="M220.128 64.6973C223.061 60.7896 227.769 59.0666 231.892 56.7794C235.102 57.2819 238.425 55.9691 241.533 57.1896C243.81 57.9896 246.19 58.4922 248.425 59.405C241.195 56.7281 232.969 56.7178 226.005 60.164C218.754 65.2204 214.066 73.4871 212.456 82.1025C209.708 93.8871 211.184 106.041 212.651 117.897C213.256 124.061 214.764 130.072 216.292 136.061C226.497 136.113 236.672 135.467 246.856 134.902C236.467 136.831 225.728 137.323 215.225 136.205C213.472 122.605 209.923 109.19 209.974 95.405C210.713 84.605 213.225 73.323 220.128 64.6973Z" fill="#5A0220"/>
<path d="M252.138 70.677C254.886 74.677 255.184 79.5078 255.625 84.1744C256.948 88.318 261.984 86.5539 265.163 86.4924C269.071 85.8257 272.927 86.9437 276.281 88.9334C270.312 86.2667 263.697 87.6514 257.42 87.8052C252.63 83.2924 254.917 76.1642 252.138 70.677Z" fill="#5A0220"/>
<path d="M119.676 75.1077C120.764 75.2205 121.851 75.3333 122.948 75.4359C123.83 78.2974 124.107 81.2615 123.153 84.1333C118.62 83.8871 118.651 78.4 119.676 75.1077Z" fill="#5A0220"/>
<path d="M107.564 78.3077C110.558 77.4769 112.005 79.7128 113.133 82.1128C112.23 83.9384 111.194 85.7025 109.943 87.3231C108.005 84.6769 107.348 81.5282 107.564 78.3077Z" fill="#5A0220"/>
<path d="M156.004 5.4769C156.466 5.56921 157.409 5.74357 157.871 5.83588L158.004 4.66664C160.897 4.53331 163.799 4.46152 166.661 4.98459C169.84 6.49229 172.681 8.56408 174.815 11.3846C175.533 13.0564 176.24 14.7282 176.917 16.4205C178.671 16.0923 180.425 15.7231 182.076 15.0154C184.486 14.8205 186.897 14.8102 189.317 14.8923C190.62 15.5077 191.943 16.0718 193.276 16.6256C195.122 18.1231 196.804 19.8051 198.333 21.6205C198.835 22.9538 199.348 24.2872 199.912 25.6C200.015 28.0307 200.025 30.4718 199.943 32.9025C199.379 34.2051 198.856 35.5179 198.322 36.8307C196.804 38.7795 195.092 40.5436 193.327 42.2564C187.707 45.0154 181.666 46.759 176.004 49.4256C173.163 50.3384 170.333 51.3333 167.686 52.7487C167.327 52.7384 166.599 52.7077 166.23 52.6872L166.138 53.4974C164.897 53.9384 163.666 54.4102 162.456 54.9025C161.338 54.5333 160.22 54.1538 159.112 53.7743C158.599 52.5743 158.086 51.3743 157.604 50.1743C157.256 49.159 156.907 48.1538 156.568 47.1384C155.502 44.3897 154.527 41.6102 153.574 38.8307C153.204 37.8256 152.845 36.8205 152.486 35.8154C152.138 34.6769 151.82 33.5282 151.533 32.3795L151.03 32.2461C150.558 30.5538 150.004 28.8923 149.533 27.2L149.081 27.1282C148.681 25.9487 148.251 24.7795 147.799 23.6102C147.553 20.8102 147.584 18 147.717 15.1897C148.784 13.3538 149.871 11.5282 150.989 9.7128L151.42 9.62049C152.322 8.58459 153.256 7.57947 154.189 6.56408C154.609 6.63588 155.461 6.76921 155.881 6.841L156.004 5.4769Z" fill="#FF3B7F"/>
<path d="M86.856 8.50251C90.6099 3.64097 98.0047 4.90251 102.087 8.67687C106.046 5.31277 111.83 4.06149 116.394 7.05636C116.753 7.27174 117.471 7.70251 117.841 7.9179C119.123 11.5897 119.974 15.9794 117.441 19.3435C114.415 22.841 110.887 25.8666 107.851 29.3538C105.871 31.3538 104.2 34.123 101.184 34.5743C97.7073 30.2461 93.6253 26.4717 89.7688 22.4923C85.8817 19.1282 83.9945 13.0666 86.856 8.50251Z" fill="#FF3B7F"/>
<path d="M42.4248 32.5332C43.512 32.2153 44.5992 31.8666 45.6761 31.5076C47.3992 31.4768 49.1223 31.4768 50.8453 31.4871C51.9325 31.8563 53.0402 32.1948 54.1479 32.5127C56.7325 33.8871 59.4915 35.2307 61.3479 37.5691C63.2351 40.1435 64.1376 43.2409 65.4094 46.123C66.0248 51.6102 66.0966 57.1589 65.43 62.6461C64.9889 63.9999 64.6094 65.364 64.2505 66.7384C62.1992 74.4512 59.2453 81.9076 55.5838 89.005C54.9992 90.2871 54.4146 91.5691 53.8607 92.8615C51.112 92.482 48.4043 91.9179 45.7274 91.2102C44.671 90.882 43.6146 90.5538 42.5582 90.2153C38.6505 88.964 34.753 87.7025 30.8556 86.3999L30.6915 85.9897C26.0966 84.2973 21.7376 81.9999 17.6043 79.3948C14.8658 76.9845 12.312 74.3794 9.97354 71.5794C9.30688 70.5435 8.64021 69.4973 7.9838 68.4512C7.52226 67.5076 7.06072 66.5743 6.58893 65.6409C5.512 61.4871 5.75816 57.1179 7.28636 53.1076C9.67611 48.4512 14.0453 45.2922 18.9889 43.8153C21.4094 43.7332 23.83 43.7025 26.2505 43.7743C28.0146 44.4922 29.7889 45.1589 31.553 45.8461C31.7889 45.1794 32.2505 43.8358 32.4761 43.1691C33.8094 38.1845 37.7889 34.5025 42.4248 32.5332ZM41.1735 37.4461C38.8146 39.4461 37.2453 42.123 35.9735 44.9025C35.9633 45.5384 35.9428 46.7897 35.9223 47.4256C34.8556 48.3589 34.0966 50.1845 32.3941 49.9589C29.4505 50.2358 27.0402 48.1127 24.1992 47.7538C21.3582 47.2307 18.63 48.3999 15.9735 49.2512C14.3428 50.7589 12.8248 52.3897 11.471 54.164C10.2505 57.2307 10.0248 60.523 10.3838 63.7845C11.1325 65.1897 11.8607 66.605 12.5684 68.0307C13.912 69.7332 15.2966 71.4256 16.7017 73.0871C18.2915 74.3076 19.8402 75.5794 21.4402 76.7897L21.6043 77.1589C23.471 78.123 25.3171 79.1281 27.1325 80.1845C29.2659 81.0666 31.3992 81.9179 33.553 82.7486C36.6812 83.9076 39.8607 84.964 43.071 85.8768L43.153 86.3589C46.0146 86.8717 48.8146 87.723 51.7274 87.9076C52.8453 84.8102 54.3428 81.8666 55.7889 78.9127C59.2864 69.7743 63.1428 60.1948 61.7376 50.205C61.2659 44.5743 58.5376 38.2461 52.753 36.4102C48.9376 34.8409 44.8043 35.8973 41.1735 37.4461Z" fill="#FF3B7F"/>
<path d="M119.44 70.5539C120.301 65.0462 121.501 59.3128 125.153 54.9026C127.419 56.3282 127.563 59.1487 128.312 61.4667C129.983 68.2257 133.06 74.6462 133.748 81.6411C132.63 82.5128 131.522 83.4052 130.424 84.2975C131.009 84.5334 132.158 85.0052 132.732 85.2411C138.004 84.9539 143.081 83.3539 148.271 82.6052C151.286 82.1539 151.983 86.0513 153.789 87.6923C157.789 93.4872 164.63 96.0103 171.276 97.2411C171.768 100.862 170.127 105.313 173.173 108.072C173.491 104.338 173.419 100.595 173.368 96.8513C175.142 95.4257 176.896 93.9795 178.619 92.4923C178.23 101.395 173.522 109.426 167.706 115.908C161.265 121.723 152.886 125.682 144.148 126.072C137.409 127.077 130.486 126.472 123.953 124.585C119.491 123.241 115.635 120.533 111.706 118.103C111.758 117.385 111.809 116.656 111.86 115.938C114.219 114.974 116.383 113.61 116.537 110.81C110.26 111.159 105.306 116.585 103.409 122.256C105.132 125.764 107.522 122.154 108.24 120.082C113.522 122.246 117.84 126.41 123.573 127.538C131.594 130.195 140.209 130.267 148.445 128.636C149.789 132.892 151.419 137.077 152.271 141.477C163.563 146 175.173 149.733 186.271 154.738C187.655 161.323 189.471 167.815 190.876 174.4C192.291 181.262 195.06 187.867 195.276 194.954C190.486 191.313 186.065 187.231 181.594 183.231C178.681 182.708 175.758 182.215 172.804 182.072C161.286 181.303 149.953 178.462 138.363 178.728C135.419 183.815 132.26 188.78 129.542 194C128.804 189.58 127.286 185.18 124.681 181.497C123.06 179.241 120.055 178.769 117.563 179.682C112.804 178.759 107.901 178.708 103.091 179.221C100.435 181.58 98.6911 184.728 96.4552 187.456C96.8039 183.405 95.5834 179.456 95.5321 175.426C95.4091 162.749 95.4091 150.062 95.1321 137.385C93.9629 122.749 94.4962 108.041 94.0449 93.3744C93.1834 84.8411 93.6039 76.2564 93.3578 67.7026C93.2244 64.4308 93.8193 61.2103 94.4244 58.0205C97.6552 61.4872 100.189 65.4975 103.019 69.2718C104.691 69.1282 106.353 68.9231 108.024 68.8718C111.86 69.2 115.624 70.0308 119.44 70.5539ZM119.676 75.1077C118.65 78.4 118.619 83.8872 123.153 84.1334C124.106 81.2616 123.83 78.2975 122.948 75.4359C121.85 75.3334 120.763 75.2205 119.676 75.1077ZM107.563 78.3077C107.348 81.5282 108.004 84.6769 109.942 87.3231C111.194 85.7026 112.23 83.9385 113.132 82.1128C112.004 79.7128 110.558 77.4769 107.563 78.3077Z" fill="#FF3B7F"/>
<path d="M226.005 60.164C232.969 56.7178 241.194 56.7281 248.425 59.405C250.425 60.646 252.169 62.246 253.8 63.9486L254.425 64.0614L254.384 64.8614C254.733 65.1178 255.42 65.6101 255.759 65.8563C256.917 67.805 257.953 69.8153 258.989 71.8255C259.553 74.5127 259.83 77.2512 260.302 79.9486C260.323 80.4101 260.343 81.323 260.364 81.7845C268.035 79.6101 276.979 81.323 282.641 87.1383C285.779 89.8255 287.317 93.7537 289.061 97.3742C289.512 102.246 289.871 107.292 288.076 111.949C286.015 116.882 282.292 120.8 278.097 124.01L278.015 124.369C277.061 124.861 276.107 125.354 275.164 125.856C274.323 126.42 273.482 126.984 272.641 127.559C270.805 128.42 268.969 129.292 267.143 130.164C265.123 130.913 263.082 131.6 261.041 132.256C256.405 133.569 251.635 134.42 246.856 134.902C236.671 135.467 226.497 136.113 216.292 136.061C214.764 130.072 213.256 124.061 212.651 117.897C211.184 106.041 209.707 93.8871 212.456 82.1025C214.066 73.4871 218.753 65.2204 226.005 60.164ZM229.317 64.4204C225.882 66.6255 223.061 69.6409 221.297 73.3435L220.897 73.4665C220.261 75.2922 219.553 77.0871 218.815 78.8717C218.261 80.6768 217.676 82.4717 217.133 84.2768C215.143 97.1486 216.394 110.359 218.897 123.087C219.42 125.231 219.625 127.426 219.789 129.62L220.651 129.651L220.517 130.841C229.953 131.046 239.379 130.441 248.723 129.128C252.179 128.646 255.615 127.979 258.928 126.872C259.492 126.79 260.62 126.615 261.184 126.533C262.979 125.867 264.784 125.2 266.548 124.472C267.102 124.195 268.2 123.651 268.753 123.374L268.866 122.513C269.328 122.554 270.241 122.646 270.702 122.687L270.856 121.877C272.005 121.21 273.133 120.523 274.271 119.826C275.984 118.4 277.697 116.974 279.4 115.538L279.8 115.354C280.302 114.472 280.825 113.579 281.358 112.708C284.435 108.267 284.989 102.308 283 97.3127C281.594 93.9486 278.938 91.3332 276.282 88.9332C272.928 86.9435 269.071 85.8255 265.164 86.4922C261.984 86.5537 256.948 88.3178 255.625 84.1742C255.184 79.5076 254.887 74.6768 252.138 70.6768L251.861 69.8666C250.261 68.2973 248.682 66.7076 247 65.2512C245.83 64.7178 244.692 64.1742 243.553 63.6101C239.584 62.5537 235.235 62.3178 231.348 63.805C230.835 63.9589 229.83 64.2665 229.317 64.4204Z" fill="#FF3B7F"/>
<path d="M184.65 125.313C188.486 127.672 189.009 132.379 189.656 136.41C189.697 141.292 188.445 146.133 186.497 150.595C184.363 150.154 181.963 150.123 180.24 148.605C180.292 146.02 182.015 143.918 182.958 141.61C185.574 136.564 184.333 130.728 184.65 125.313Z" fill="#FF3B7F"/>
<path d="M153.194 183.015C156.691 182.995 160.117 183.713 163.522 184.379C160.579 188 157.532 191.538 154.661 195.231C154.209 195.282 153.307 195.405 152.855 195.456C153.071 191.313 153.194 187.169 153.194 183.015ZM154.025 184.01C153.912 187.415 153.779 190.831 153.84 194.246C157.891 192.359 156.702 187.59 157.163 184.031C156.107 184.02 155.061 184.01 154.025 184.01Z" fill="#FF3B7F"/>
<path d="M123.379 50.8001C123.81 50.7693 124.692 50.6873 125.133 50.6462C125.164 52.0514 126.497 53.7642 125.154 54.9026C121.502 59.3129 120.302 65.0462 119.441 70.5539C115.625 70.0309 111.861 69.2001 108.025 68.8719C110.538 68.4103 113.102 68.2975 115.656 68.1642C118.446 62.4821 120.754 56.5744 123.379 50.8001Z" fill="#FDFCFD"/>
<path d="M89.1333 54.3796C91.5333 54.5335 93.7795 55.5489 94.4256 58.0207C93.8205 61.2104 93.2256 64.4309 93.359 67.7027C93.6051 76.2566 93.1846 84.8412 94.0461 93.3745C94.4974 108.041 93.9641 122.749 95.1333 137.385C95.4102 150.062 95.4102 162.749 95.5333 175.426C95.5846 179.457 96.8051 183.405 96.4564 187.457C94.6615 189.805 92.7231 192.041 90.9487 194.41L89.1436 194.564C89.4102 166.585 89.3282 138.595 89.5538 110.616C89.4923 91.8771 88.4461 73.1181 89.1333 54.3796Z" fill="#FDFCFD"/>
<path d="M117.564 179.682C120.057 178.769 123.062 179.241 124.682 181.497C127.288 185.18 128.805 189.58 129.544 194C128.693 195.467 127.329 196.574 125.616 196.851C125.298 196.133 124.662 194.718 124.344 194C122.282 189.138 119.205 184.718 117.564 179.682Z" fill="#FDFCFD"/>
<path d="M154.025 184.01C155.061 184.01 156.107 184.02 157.164 184.031C156.702 187.59 157.892 192.359 153.841 194.246C153.779 190.831 153.913 187.415 154.025 184.01Z" fill="#FDFCFD"/>
</svg>
