<svg width="250" height="209" viewBox="0 0 250 209" fill="none" xmlns="http://www.w3.org/2000/svg">
<g clip-path="url(#clip0_29_3466)">
<path d="M183.49 4.75002C186.92 4.10002 191.18 3.44002 194.01 6.02002C198.82 9.28002 200.61 16.33 197.27 21.26C193.07 29.22 179.55 27.56 177.16 18.9C174.57 13.27 178.84 7.60002 183.49 4.75002ZM183.03 7.83002C177.53 11.6 178.22 21.55 184.88 23.55C190.65 26.12 197.62 20.21 196.51 14.13C195.97 7.86002 188.17 4.99002 183.03 7.83002Z" fill="#59021F"/>
<path d="M166.36 39.3701C169.42 38.5201 173.14 38.3301 175.95 40.1001C180.52 42.3301 182.66 48.2501 181.02 52.9701C179.18 60.2801 168.53 63.8001 163.28 57.8601C156.71 53.0901 159.1 42.1501 166.36 39.3701ZM164.16 44.1401C161.68 46.6701 162.36 50.4001 162.54 53.5801C164 55.0401 165.34 56.7601 167.31 57.5401C172.66 60.1201 180.12 55.0901 178.73 48.9601C179.02 41.7801 168.17 38.1701 164.16 44.1401Z" fill="#59021F"/>
<path d="M68.83 52.49C70.26 52.56 71.68 52.69 73.1 52.88C75.17 55.09 75.48 58.22 76.27 61.01C78.64 69.63 81.81 78.04 83.84 86.76C92.76 86.47 101.26 83.41 109.89 81.48C114.35 81.11 119.65 80.42 123.12 83.92C128.64 88.03 129.99 95.54 129.07 101.99C127.05 116.71 115.68 129.4 101.55 133.71C102.51 135.06 103.4 136.44 104.24 137.87C102.05 136.91 100.79 134.87 99.39 133.06C99.1 132.69 98.52 131.94 98.23 131.57C106.38 129.86 113.28 124.45 118.67 118.31C118.69 113.31 118.79 108.31 118.7 103.3C113.54 102.03 108.16 100.58 104.09 96.96C101.26 94.61 99.23 91.51 97.48 88.32C90.95 88.49 84.68 90.74 78.14 90.79C78.19 90.21 78.29 89.07 78.34 88.5C78.92 88.16 80.08 87.48 80.67 87.14C78.13 78.01 75.62 68.85 72.58 59.86C72.32 58.26 71.81 56.73 71.13 55.26C70.36 55.8 69.6 56.34 68.84 56.88C67.84 60.83 65.59 64.27 64.23 68.08C63.4 69.96 62.41 71.76 61.33 73.5C59.09 73.53 56.84 73.59 54.61 73.82L55.04 73C52.91 73.2 50.8 73.58 48.66 73.73C45.41 70.57 43.05 66.65 40.37 63.03C38.61 61.68 37.47 58.86 34.84 59.47C33.29 60.88 33.6 63.13 33.46 65.01C33.51 72.69 33.23 80.42 34.34 88.05C35.3 126.74 34.19 165.44 34.67 204.12C38.06 200.88 40.66 196.93 43.49 193.21C45.19 190.97 47.02 188.83 48.84 186.68C53.3 186.58 57.75 186.6 62.21 186.68C65.58 192.8 68.81 198.99 71.72 205.34C72.58 205.33 73.44 205.31 74.31 205.3C77.71 198.69 81.61 192.35 85.79 186.22C93.83 187.37 101.95 187.9 109.97 189.23C116.25 189.45 122.54 189.99 128.73 191.03C133.56 193.5 136.51 198.37 140.92 201.4C141.68 201.56 143.21 201.87 143.98 202.03C143.29 197.61 141.82 193.38 140.74 189.06C138.34 180 136.38 170.83 134.15 161.73C126.9 159.13 119.77 156.24 112.61 153.42C110.37 152.59 107.5 151.39 105.59 153.55C95.99 161.97 86.6 170.64 76.98 179.04C74.58 181.21 72.65 184.59 69.13 184.91C66.24 182.84 64.19 179.79 61.67 177.3C58.33 172.99 54.19 169.41 50.83 165.13C48.64 162.27 45.17 160.23 44.29 156.53C49.85 151 55.9 146 61.64 140.65C63.92 138.49 67.18 137.01 68.01 133.72C62.8 132.15 58.74 128.4 53.85 126.27C53.29 127.65 52.73 129.02 52.16 130.4C51.26 130.44 50.36 130.47 49.45 130.51C49.05 125.17 53.52 121.17 57.54 118.44C59.01 117.25 60.97 117.33 62.73 117.08C62.68 117.62 62.57 118.7 62.52 119.24C60.65 120.47 58.79 121.7 56.93 122.95C60.8 127.81 66.9 130.35 72.74 132C63.57 140.34 54.39 148.67 45.16 156.92C46.83 159.83 49.27 162.13 51.59 164.52C56.94 170.46 62.22 176.45 67.59 182.38C68.28 183.13 69.32 184.47 70.48 183.67C72.89 182.49 74.48 180.22 76.4 178.42C87.97 168.13 99.4 157.69 110.92 147.33C110.1 143.95 106.56 142.28 105.1 139.24C108.31 140.22 109.88 143.6 112.05 145.93C111.82 146.83 111.36 148.64 111.13 149.54C115.42 151.04 119.59 153.83 124.26 153.6C131.3 146.46 130.02 135.41 127.43 126.62C128.32 125.9 129.21 125.18 130.1 124.46C134.09 125.95 136.29 129.78 138.16 133.36C140.55 138.46 141.82 144.33 140.25 149.87C139.69 154.34 136.31 158.35 137.48 163C139.71 172.57 142.59 181.99 144.63 191.61C145.5 196.34 147.5 200.84 147.74 205.68C181.82 206.13 215.91 205.74 250 205.87V209H0V205.87C10.5 205.82 20.99 206 31.49 205.77C31.45 182.52 31.74 159.27 31.78 136.03C33.71 111.32 29.71 86.65 30.67 61.93C30.73 59.46 32.1 56.98 34.35 55.88C36.71 55.19 38.95 56.91 40.46 58.54C43.96 62.75 47.08 67.27 50.48 71.56C53.68 71.31 56.85 70.81 60.01 70.24C62.56 64.16 64.5 57.59 68.83 52.49ZM121.41 101.86C121.25 105.22 121.29 108.58 121.51 111.94C125.04 109.26 125.87 104.11 125.61 99.88C124.21 100.53 122.81 101.19 121.41 101.86ZM132.57 131.32C132.22 135.84 132.96 140.4 132.24 144.9C131.27 148.63 129.37 152.05 127.19 155.2C129.37 156.85 131.86 157.94 134.65 157.7C136.36 153.35 137.86 148.77 137.56 144.03C137.44 139.49 136.46 134.2 132.57 131.32ZM48.2 192.07C44.92 196.75 41.28 201.17 37.8 205.7C48.17 206 58.57 205.95 68.94 205.73C66.84 200.4 63.73 195.56 61.25 190.4C58.14 190.17 54.91 190.76 51.92 189.64C50.58 190.27 48.97 190.67 48.2 192.07ZM76.92 205.64C83.79 206.07 90.69 205.86 97.57 205.79C97.2 200.7 97.83 195.61 97.6 190.52C94.27 190.52 90.93 190.27 87.73 189.29C83.17 194.01 81.17 200.63 76.92 205.64ZM100.62 191.45C100.6 195.22 100.52 198.99 100.31 202.76C100.81 202.68 101.83 202.54 102.33 202.47C102.53 201.28 103.21 200.53 104.37 200.22L104.36 199.8C106.41 197.21 110.06 195.27 110.53 191.84C108.53 191.73 106.54 191.58 104.55 191.4C103.24 191.41 101.93 191.43 100.62 191.45ZM114.98 192.55C112.15 196.81 107.79 199.76 105.06 204.09C104.34 204.54 103.63 205 102.92 205.46C107.9 206.2 112.96 205.77 117.98 205.87C125.91 205.64 133.9 206.42 141.79 205.34C138.5 204.62 136.93 201.43 134.33 199.62C131.9 197.83 129.71 195.76 127.58 193.63C123.3 193.98 119.24 192.19 114.98 192.55Z" fill="#59021F"/>
<path d="M220.14 64.44C226.51 62.45 233.27 61.85 239.91 61.62C241.73 61.37 243.27 63.25 243.11 64.98C243.14 78.68 243.11 92.37 243.12 106.06C243.12 107.42 242.79 109.74 240.92 109.59C235.6 109.88 230.2 110.12 224.92 109.29C224.03 107.29 223.37 105.21 222.75 103.12C220.02 92.18 217.55 81.16 215.5 70.08C214.71 67.04 218.01 65.64 220.14 64.44ZM227.09 64.87L227.84 65.14C224.38 65.18 220.65 65.93 217.89 68.09C217.26 71.42 218.75 74.69 219.33 77.94C220.39 83.6 221.42 89.33 223.34 94.76C223.45 95.89 223.56 97.03 223.68 98.16C224.92 99.38 224.29 101.4 225.21 102.82C225.6 104.52 226.09 106.19 226.85 107.77C231.44 107.74 236.03 107.77 240.62 107.72C240.87 93.05 240.81 78.37 240.64 63.7C236.11 63.77 231.59 64.29 227.09 64.87Z" fill="#59021F"/>
<path d="M205.92 73.69C208.65 73.35 211.4 73.36 214.14 73.49C214.3 79.54 216.52 85.24 217.91 91.07C219.16 95.1 219.87 99.31 221.5 103.22C215.72 106.8 209.12 108.79 203.08 111.87C195.13 115.94 186.11 119.04 177.09 117.39C172.31 116.41 167.46 115.22 163.19 112.79C157.44 110.05 151.58 107.44 146.37 103.73C143.58 101.72 140.84 99.33 139.58 96.03C140.34 92.72 142.52 89.63 145.86 88.57C148.56 88 151.34 88.32 154.06 88.59C158.57 90.92 163.24 92.95 168.04 94.59C173.64 94.96 179.27 94.54 184.89 94.69C184.85 94.39 184.76 93.78 184.71 93.48C179.53 93.81 174.14 94.3 169.11 92.74C166.69 92.09 165.01 89.41 165.5 86.94C165.66 84.5 167.8 82.78 169.86 81.81C175.68 78.48 182.61 78.67 189.07 77.93C192.75 77.14 196.46 76.23 199.91 74.69C201.92 74.43 204.01 74.48 205.92 73.69ZM204.1 76.53C198.21 77.07 192.8 79.93 186.9 80.41C182.11 80.36 177.49 81.8 172.85 82.84C169.83 83.79 165.41 87.11 168.86 90.27C175.61 92.85 183.05 91.4 190.08 91.11C191.71 90.35 193.51 90.67 195.24 90.66C195.43 91.24 195.81 92.38 195.99 92.96C192.46 94.85 188.63 96.14 184.83 97.36C179.14 97.66 173.43 97.36 167.74 97.5C163.4 94.3 157.62 93.65 153.12 90.71C150.97 90.49 148.81 90.48 146.66 90.51C144.26 92.09 141.11 94.67 143.07 97.84C146.41 101.97 151.58 104.22 156.12 106.82C158.32 108.02 160.56 109.18 162.88 110.13C165 110.95 166.95 112.18 169.16 112.75C171.4 114.34 174.37 114.4 176.93 115.23C182.84 116.71 188.82 115.2 194.45 113.46L194.54 112.7C196.13 112.44 197.63 111.83 199.08 111.15C205.65 108.15 212.32 105.35 218.83 102.2C218.15 100.16 217.74 98.02 216.71 96.11C216.67 95.43 216.6 94.05 216.56 93.36C216.32 93.38 215.83 93.44 215.58 93.46C215.48 92.26 215.37 91.06 215.25 89.87C213.37 85.36 212.93 80.42 211.94 75.67C209.33 75.97 206.72 76.27 204.1 76.53Z" fill="#59021F"/>
<path d="M65.4005 81.43C66.7205 81.34 68.0405 81.34 69.3605 81.4C69.7205 83.33 70.4605 85.22 70.4305 87.2C69.7005 88.22 68.8905 89.18 68.0005 90.07C64.8905 88.15 65.2805 84.59 65.4005 81.43Z" fill="#59021F"/>
<path d="M54.7402 82.3201C58.4102 83.7701 58.9802 87.7901 58.3902 91.2501C57.2802 91.8001 56.1502 92.3301 54.9002 92.4201C53.2202 89.3001 52.6602 85.4101 54.7402 82.3201Z" fill="#59021F"/>
<path d="M183.029 7.82997C188.169 4.98997 195.969 7.85997 196.509 14.13C197.619 20.21 190.649 26.12 184.879 23.55C178.219 21.55 177.529 11.6 183.029 7.82997ZM184.079 18.88C187.989 18.96 190.319 14.88 191.699 11.73C191.019 11.57 189.639 11.25 188.959 11.09C186.899 13.38 183.879 15.43 184.079 18.88Z" fill="#FF3B7F"/>
<path d="M164.16 44.1399C168.17 38.1699 179.02 41.7799 178.73 48.9599C180.12 55.0899 172.66 60.1199 167.31 57.5399C165.34 56.7599 164 55.0399 162.54 53.5799C162.36 50.3999 161.68 46.6699 164.16 44.1399ZM169.78 44.7399C168.34 47.7299 168.4 51.2899 169.56 54.3599C170.09 54.4399 171.17 54.5899 171.7 54.6699C172.75 52.1999 172.32 49.4799 172.39 46.8799C172.09 46.3099 171.5 45.1599 171.21 44.5899C170.85 44.6199 170.14 44.6999 169.78 44.7399Z" fill="#FF3B7F"/>
<path d="M69.3197 62.67C69.9697 61.26 71.0597 60.33 72.5797 59.86C75.6197 68.85 78.1297 78.01 80.6697 87.14C80.0797 87.48 78.9197 88.16 78.3397 88.5C78.2897 89.07 78.1897 90.21 78.1397 90.79C84.6797 90.74 90.9497 88.49 97.4797 88.32C99.2297 91.51 101.26 94.61 104.09 96.96C108.16 100.58 113.54 102.03 118.7 103.3C118.79 108.31 118.69 113.31 118.67 118.31C113.28 124.45 106.38 129.86 98.2297 131.57C98.5197 131.94 99.0997 132.69 99.3897 133.06C96.8997 131.42 93.7497 132.64 91.0097 132.75C84.9297 134 78.7997 132.68 72.7397 132C66.8997 130.35 60.7997 127.81 56.9297 122.95C58.7897 121.7 60.6497 120.47 62.5197 119.24C62.5697 118.7 62.6797 117.62 62.7297 117.08C60.9697 117.33 59.0097 117.25 57.5397 118.44C53.5197 121.17 49.0497 125.17 49.4497 130.51C50.3597 130.47 51.2597 130.44 52.1597 130.4C52.7297 129.02 53.2897 127.65 53.8497 126.27C58.7397 128.4 62.7997 132.15 68.0097 133.72C67.1797 137.01 63.9197 138.49 61.6397 140.65C55.8997 146 49.8497 151 44.2897 156.53C45.1697 160.23 48.6397 162.27 50.8297 165.13C54.1897 169.41 58.3297 172.99 61.6697 177.3C64.1897 179.79 66.2397 182.84 69.1297 184.91C72.6497 184.59 74.5797 181.21 76.9797 179.04C86.5997 170.64 95.9897 161.97 105.59 153.55C107.5 151.39 110.37 152.59 112.61 153.42C119.77 156.24 126.9 159.13 134.15 161.73C136.38 170.83 138.34 180 140.74 189.06C141.82 193.38 143.29 197.61 143.98 202.03C143.21 201.87 141.68 201.56 140.92 201.4C136.51 198.37 133.56 193.5 128.73 191.03C122.54 189.99 116.25 189.45 109.97 189.23C101.95 187.9 93.8297 187.37 85.7897 186.22C81.6097 192.35 77.7097 198.69 74.3097 205.3C73.4397 205.31 72.5797 205.33 71.7197 205.34C68.8097 198.99 65.5797 192.8 62.2097 186.68C57.7497 186.6 53.2997 186.58 48.8397 186.68C47.0197 188.83 45.1897 190.97 43.4897 193.21C42.5997 191.96 41.4297 190.74 41.5497 189.08C41.2797 179.37 41.4097 169.65 41.2197 159.95C39.8897 151.03 40.6297 141.99 40.3097 133.01C39.0697 120.71 39.7897 108.31 39.3897 95.97C39.6297 86.28 38.0497 76.64 38.6397 66.95C38.8797 65.52 39.7497 64.31 40.3697 63.03C43.0497 66.65 45.4097 70.57 48.6597 73.73C50.7997 73.58 52.9097 73.2 55.0397 73L54.6097 73.82C52.3397 74.74 49.8797 74.56 47.5497 75.06C53.3497 76.7 59.4297 74.73 65.3697 75.69C66.3697 71.26 67.4097 66.8 69.3197 62.67ZM65.3997 81.43C65.2797 84.59 64.8897 88.15 67.9997 90.07C68.8897 89.18 69.6997 88.22 70.4297 87.2C70.4597 85.22 69.7197 83.33 69.3597 81.4C68.0397 81.34 66.7197 81.34 65.3997 81.43ZM54.7397 82.32C52.6597 85.41 53.2197 89.3 54.8997 92.42C56.1497 92.33 57.2797 91.8 58.3897 91.25C58.9797 87.79 58.4097 83.77 54.7397 82.32ZM64.1197 187.33C66.5997 193.43 69.5097 199.43 72.9497 205.08C74.0597 203.84 75.3997 202.68 75.8297 201.01C75.7797 198.76 74.2097 196.95 73.6897 194.81C72.8797 190.41 68.8397 186.42 64.1197 187.33Z" fill="#FF3B7F"/>
<path d="M217.89 68.09C220.65 65.93 224.38 65.18 227.84 65.14L228.31 65.29C224.89 65.74 220.64 65.96 218.42 68.91C218.28 71.95 218.85 74.96 219.33 77.94C218.75 74.69 217.26 71.42 217.89 68.09Z" fill="#FF3B7F"/>
<path d="M121.41 101.86C122.81 101.19 124.21 100.53 125.61 99.88C125.87 104.11 125.04 109.26 121.51 111.94C121.29 108.58 121.25 105.22 121.41 101.86Z" fill="#FF3B7F"/>
<path d="M132.569 131.32C136.459 134.2 137.439 139.49 137.559 144.03C137.859 148.77 136.359 153.35 134.649 157.7C131.859 157.94 129.369 156.85 127.189 155.2C129.369 152.05 131.269 148.63 132.239 144.9C132.959 140.4 132.219 135.84 132.569 131.32Z" fill="#FF3B7F"/>
<path d="M70.55 143.43C73.61 145.75 79.01 141.41 80.24 146.43C78.79 146.53 77.36 146.46 75.93 146.21C76.07 148.19 77.48 149.48 78.98 150.57C80.16 148.89 82.37 149.57 84.1 149.42C84.88 150.58 85.66 151.75 86.44 152.92C85.33 155.37 85.28 158.05 85.48 160.68C82.79 158.65 79.4 160.43 76.45 159.34L76.06 157.25C77.68 157.37 79.3 157.48 80.92 157.58C80.19 156.17 79.43 154.71 78.11 153.75C76.6 153.34 75.3 154.44 74.28 155.38L74.59 154.45C70.34 155.07 68.98 149.58 71.49 146.91C71.26 146.04 70.79 144.3 70.55 143.43ZM72.98 149.43C71.51 150.77 74.19 153.17 75.51 151.92C76.31 150.51 74.41 148.54 72.98 149.43ZM80.98 151.86C81.16 152.48 81.5 153.74 81.68 154.37C82.21 154.47 83.28 154.67 83.81 154.77C83.97 153.11 83.07 150.94 80.98 151.86Z" fill="#FF3B7F"/>
<path d="M69.4295 174.41C70.9995 173.11 72.5395 171.65 74.5795 171.16C74.5895 171.76 74.5994 172.97 74.5994 173.58C73.0094 175.03 71.3795 176.59 69.1895 177.01C69.2495 176.36 69.3695 175.06 69.4295 174.41Z" fill="#FF3B7F"/>
<path d="M104.549 191.4C106.539 191.58 108.529 191.73 110.529 191.84C110.059 195.27 106.409 197.21 104.359 199.8C104.269 197 104.359 194.2 104.549 191.4Z" fill="#FF3B7F"/>
<path d="M184.08 18.88C183.88 15.43 186.9 13.38 188.96 11.09C189.64 11.25 191.02 11.57 191.7 11.73C190.32 14.88 187.99 18.96 184.08 18.88Z" fill="#FEFEFF"/>
<path d="M169.78 44.74C170.14 44.7 170.85 44.62 171.21 44.59C171.5 45.16 172.09 46.31 172.39 46.88C172.32 49.48 172.75 52.2 171.7 54.67C171.17 54.59 170.09 54.44 169.56 54.36C168.4 51.29 168.34 47.73 169.78 44.74Z" fill="#FEFEFF"/>
<path d="M68.8398 56.88C69.5998 56.34 70.3598 55.8 71.1298 55.26C71.8098 56.73 72.3198 58.26 72.5798 59.86C71.0598 60.33 69.9698 61.26 69.3198 62.67C67.4098 66.8 66.3698 71.26 65.3698 75.69C59.4298 74.73 53.3498 76.7 47.5498 75.06C49.8798 74.56 52.3398 74.74 54.6098 73.82C56.8398 73.59 59.0898 73.53 61.3298 73.5C62.4098 71.76 63.3998 69.96 64.2298 68.08C65.5898 64.27 67.8398 60.83 68.8398 56.88Z" fill="#FEFEFF"/>
<path d="M33.46 65.01C33.6 63.13 33.29 60.88 34.84 59.47C37.47 58.86 38.61 61.6799 40.37 63.0299C39.75 64.3099 38.88 65.5199 38.64 66.9499C38.05 76.6399 39.63 86.28 39.39 95.97C39.79 108.31 39.07 120.71 40.31 133.01C40.63 141.99 39.89 151.03 41.22 159.95C41.41 169.65 41.28 179.37 41.55 189.08C41.43 190.74 42.6 191.96 43.49 193.21C40.66 196.93 38.06 200.88 34.67 204.12C34.19 165.44 35.3 126.74 34.34 88.05C33.23 80.42 33.51 72.69 33.46 65.01Z" fill="#FEFEFF"/>
<path d="M227.09 64.87C231.59 64.29 236.11 63.77 240.64 63.7C240.81 78.37 240.87 93.05 240.62 107.72C236.03 107.77 231.44 107.74 226.85 107.77C226.09 106.19 225.6 104.52 225.21 102.82C224.29 101.4 224.92 99.38 223.68 98.16C223.56 97.03 223.45 95.89 223.34 94.76C221.42 89.33 220.39 83.6 219.33 77.94C218.85 74.96 218.28 71.95 218.42 68.91C220.64 65.96 224.89 65.74 228.31 65.29L227.84 65.1399L227.09 64.87Z" fill="#FEFEFF"/>
<path d="M204.1 76.5299C206.72 76.2699 209.33 75.9699 211.94 75.6699C212.93 80.4199 213.37 85.3599 215.25 89.8699C215.37 91.0599 215.48 92.2599 215.58 93.4599C215.83 93.4399 216.32 93.3799 216.56 93.3599C216.6 94.0499 216.67 95.4299 216.71 96.1099C217.74 98.0199 218.15 100.16 218.83 102.2C212.32 105.35 205.65 108.15 199.08 111.15C197.63 111.83 196.13 112.44 194.54 112.7L194.45 113.46C188.82 115.2 182.84 116.71 176.93 115.23C174.37 114.4 171.4 114.34 169.16 112.75C166.95 112.18 165 110.95 162.88 110.13C160.56 109.18 158.32 108.02 156.12 106.82C151.58 104.22 146.41 101.97 143.07 97.8399C141.11 94.6699 144.26 92.0899 146.66 90.5099C148.81 90.4799 150.97 90.4899 153.12 90.7099C157.62 93.6499 163.4 94.2999 167.74 97.4999C173.43 97.3599 179.14 97.6599 184.83 97.3599C188.63 96.1399 192.46 94.8499 195.99 92.9599C195.81 92.3799 195.43 91.2399 195.24 90.6599C193.51 90.6699 191.71 90.3499 190.08 91.1099C183.05 91.3999 175.61 92.8499 168.86 90.2699C165.41 87.1099 169.83 83.7899 172.85 82.8399C177.49 81.7999 182.11 80.3599 186.9 80.4099C192.8 79.9299 198.21 77.0699 204.1 76.5299Z" fill="#FEFEFF"/>
<path d="M45.1602 156.92C54.3902 148.67 63.5702 140.34 72.7402 132C78.8002 132.68 84.9302 134 91.0102 132.75C93.7502 132.64 96.9002 131.42 99.3902 133.06C100.79 134.87 102.05 136.91 104.24 137.87C104.52 138.33 104.8 138.79 105.1 139.24C106.56 142.28 110.1 143.95 110.92 147.33C99.4002 157.69 87.9702 168.13 76.4002 178.42C74.4802 180.22 72.8902 182.49 70.4802 183.67C69.3202 184.47 68.2802 183.13 67.5902 182.38C62.2202 176.45 56.9402 170.46 51.5902 164.52C49.2702 162.13 46.8302 159.83 45.1602 156.92ZM70.5502 143.43C70.7902 144.3 71.2602 146.04 71.4902 146.91C68.9802 149.58 70.3402 155.07 74.5902 154.45L74.2802 155.38C75.3002 154.44 76.6002 153.34 78.1102 153.75C79.4302 154.71 80.1902 156.17 80.9202 157.58C79.3002 157.48 77.6802 157.37 76.0602 157.25L76.4502 159.34C79.4002 160.43 82.7902 158.65 85.4802 160.68C85.2802 158.05 85.3302 155.37 86.4402 152.92C85.6602 151.75 84.8802 150.58 84.1002 149.42C82.3702 149.57 80.1602 148.89 78.9802 150.57C77.4802 149.48 76.0702 148.19 75.9302 146.21C77.3602 146.46 78.7902 146.53 80.2402 146.43C79.0102 141.41 73.6102 145.75 70.5502 143.43ZM69.4302 174.41C69.3702 175.06 69.2502 176.36 69.1902 177.01C71.3802 176.59 73.0102 175.03 74.6002 173.58C74.6002 172.97 74.5902 171.76 74.5802 171.16C72.5402 171.65 71.0002 173.11 69.4302 174.41Z" fill="#FEFEFF"/>
<path d="M72.9801 149.43C74.4101 148.54 76.3101 150.51 75.5101 151.92C74.1901 153.17 71.5101 150.77 72.9801 149.43Z" fill="#FEFEFF"/>
<path d="M80.9795 151.86C83.0695 150.94 83.9695 153.11 83.8095 154.77C83.2795 154.67 82.2095 154.47 81.6795 154.37C81.4995 153.74 81.1595 152.48 80.9795 151.86Z" fill="#FEFEFF"/>
<path d="M64.1201 187.33C68.8401 186.42 72.8801 190.41 73.6901 194.81C74.2101 196.95 75.7801 198.76 75.8301 201.01C75.4001 202.68 74.0601 203.84 72.9501 205.08C69.5101 199.43 66.6001 193.43 64.1201 187.33Z" fill="#FEFEFF"/>
<path d="M100.62 191.45C101.93 191.43 103.24 191.41 104.55 191.4C104.36 194.2 104.27 197 104.36 199.8L104.37 200.22C103.21 200.53 102.53 201.28 102.33 202.47C101.83 202.54 100.81 202.68 100.31 202.76C100.52 198.99 100.6 195.22 100.62 191.45Z" fill="#FEFEFF"/>
</g>
<defs>
<clipPath id="clip0_29_3466">
<rect width="250" height="209" fill="white"/>
</clipPath>
</defs>
</svg>
