<svg width="250" height="212" viewBox="0 0 250 212" fill="none" xmlns="http://www.w3.org/2000/svg">
<g clip-path="url(#clip0_29_3501)">
<path d="M113 0H117.09C119.55 7.54 121.79 15.15 123.75 22.83C130.11 23.28 136.22 21.49 142.25 19.75C147.16 18.29 152.88 20.86 154.75 25.69C157.72 32.22 154.88 39.56 151.21 45.16C147.59 50.77 141.66 54.41 135.3 56.1C135.53 58.85 135.96 61.57 136.52 64.26C141.67 66.27 146.7 68.91 152.23 69.67C157.3 64.74 156.53 56.98 154.37 50.86C155.66 50.71 156.95 50.6 158.24 50.53C162.23 54.16 164.31 59.65 163.67 65.02C163.68 69.32 160.5 73.27 161.86 77.59C162.94 81.6 164.11 85.59 164.87 89.67C172.1 91.41 179.63 91.06 186.9 92.55C189.4 93 190.13 95.81 190.93 97.84C195.09 109.9 198.97 122.05 203.11 134.12C204.4 136.68 201.93 138.69 200.57 140.55C179.82 140.4 159.08 140.44 138.34 140.53C135.17 135.9 134.41 130.23 132.72 125C130.79 118.91 129.14 112.75 127.39 106.61C125.62 113.11 123.33 119.46 121.72 126.01C120.73 129.65 120.05 133.39 118.61 136.89C117.83 138.69 116.28 140.63 114.1 140.42C96.4104 140.59 78.7104 140.36 61.0204 140.51C58.7104 140.48 56.3704 140.61 54.1104 140.12C52.5104 138.96 50.9104 137.1 51.6704 134.99C53.3804 127.04 56.7204 119.57 59.1404 111.83C60.8604 106.61 62.2404 101.27 64.3404 96.18C65.0204 94.36 66.3804 92.68 68.4304 92.42C74.7304 91.25 81.1704 91.11 87.5304 90.36C87.6504 73.27 87.6104 56.19 87.6904 39.1C87.5804 26.86 87.0204 14.6 87.6504 2.37C89.2704 2.55 91.0504 2.23 92.5604 2.91C95.7904 5.56 97.5004 9.6 100.61 12.37C102.59 12.78 104.67 12.67 106.63 12.26C109.35 8.51 110.68 3.98 113 0ZM113.87 1.96C111.77 5.64 110.73 9.86 108.3 13.34C107.28 13.93 106.16 14.32 105.06 14.76C104.45 14.78 103.23 14.83 102.61 14.85C101.35 14.7 100.09 14.54 98.8304 14.37C97.4104 12.19 96.0104 9.79 93.4704 8.74C93.5204 7.97 93.5704 7.2 93.6204 6.43L92.3504 6.63L92.5904 5.37C91.5104 5.32 90.4404 5.27 89.3704 5.22C89.1804 16.65 89.6904 28.08 89.6704 39.5L90.4304 39.46C90.3404 47.16 90.2704 54.87 90.3804 62.58L89.6504 62.42C89.7304 71.57 89.6704 80.72 89.6004 89.87C90.1704 89.86 91.3104 89.84 91.8804 89.83C96.5204 90.05 101.01 88.5 105.64 88.37C115.08 87.73 124.47 84.67 133.96 86.37C143.28 87.68 152.64 88.72 162.01 89.74C161.27 84.93 160.52 80.01 158.66 75.49C151.75 71.98 144.26 69.59 136.89 67.2C136.18 66.5 135.48 65.81 134.78 65.11C134.01 62.54 133.21 59.98 132.41 57.41C126.19 57.53 119.85 57.84 113.81 56.08C110.39 54.93 107.31 53.01 104.11 51.38C102.74 51.97 101.37 52.54 100 53.1C100.72 48.26 105.27 44.47 110.1 44.35C109.13 45.76 107.97 47.03 106.53 47.97C106.47 48.79 106.41 49.6 106.35 50.42C109.91 52.68 113.9 54.08 117.99 55.01C128.78 56.77 141.04 54.26 148.38 45.62C148.86 42.92 149.35 40.2 149.67 37.47C149.92 38.02 150.43 39.11 150.68 39.66C151.05 39.66 151.79 39.66 152.16 39.66C152.62 37.41 153.09 35.16 153.51 32.91C152.04 33.69 150.66 34.63 149.21 35.45C143.02 33.87 136.48 30.71 133.81 24.48C129.71 24.66 125.57 26.38 121.49 25.1C121.77 24.77 122.34 24.11 122.62 23.78C119.83 18.26 119.47 11.84 116.23 6.5L118.33 4.31C117.27 4.46 116.31 4.92 115.37 5.39C115.48 4.32 115.58 3.24 115.68 2.17C115.19 2.31 114.21 2.61 113.71 2.75L113.87 1.96ZM158.83 55.33C158.56 59.05 158.22 62.77 157.41 66.42C156.68 67.25 155.94 68.08 155.21 68.9C155.39 69.97 155.55 71.04 155.83 72.08C156.71 72.27 158.46 72.65 159.34 72.84C161.78 67.31 162.94 60.4 158.83 55.33ZM83.1104 93.18C77.9604 93.3 72.9304 94.58 67.7804 94.66C67.1004 96.02 66.4404 97.39 65.7904 98.77C65.4404 99.83 65.0704 100.89 64.6704 101.94C64.5704 102.44 64.3604 103.44 64.2504 103.93C61.6004 110.07 60.1704 116.63 57.8204 122.88C57.5404 123.92 57.2404 124.96 56.9304 126C56.5004 126.95 56.0604 127.89 55.6104 128.84C54.7604 131.63 53.8204 134.41 53.3704 137.3C59.5104 138.5 65.8004 137.45 72.0004 137.8C83.3504 137.81 94.7104 137.67 106.06 137.86C109.45 138.34 112.85 138.03 116.21 137.41C116.32 136.79 116.56 135.55 116.68 134.94C117.14 133.6 117.54 132.25 117.93 130.9C120.38 123.72 121.78 116.25 124.13 109.04C124.27 108.49 124.53 107.37 124.66 106.81C125.27 105.26 125.81 103.68 126.37 102.11C126.62 100.71 126.87 99.31 127.14 97.91C128.75 102.15 129.61 106.62 130.94 110.95C131.37 112.23 131.8 113.53 132.27 114.8C132.38 115.38 132.61 116.55 132.72 117.14C135.14 123.82 136.52 130.81 138.69 137.57C145.78 138 152.89 137.7 159.98 137.79C173.61 137.62 187.27 138.13 200.88 137.51C200.72 135.35 200.47 133.19 199.78 131.14C197.55 125.97 196.39 120.45 194.45 115.18C192.1 108.85 190.02 102.42 188.09 95.94C187.61 95.6 186.64 94.94 186.15 94.6C181.05 94.6 176.08 93.37 171.01 93.08C161.42 91.5 151.68 91.06 142.04 89.86C135.31 89.36 128.58 87.72 121.82 88.83C108.96 90.6 95.9204 91.09 83.1104 93.18Z" fill="#5A021F"/>
<path d="M110.68 21.98C110.61 20.51 111.92 19.52 112.62 18.35C113.36 19.65 114.1 20.96 114.83 22.26C114.38 23.64 113.92 25.02 113.46 26.39C112.47 24.98 111.22 23.66 110.68 21.98Z" fill="#5A021F"/>
<path d="M102.21 23.2501C102.86 22.2701 103.52 21.2901 104.17 20.3101C106.07 22.1501 106.56 24.6401 106.4 27.1901C105.6 27.2201 104.8 27.2501 104.01 27.2801C103.41 25.9401 102.81 24.5901 102.21 23.2501Z" fill="#5A021F"/>
<path d="M74.2598 35.66C76.2498 29.76 79.4898 23.79 85.4598 21.15C85.7398 26.01 85.6098 30.87 85.6198 35.73C81.8298 35.75 78.0398 35.76 74.2598 35.66ZM77.9298 33.3C79.7598 33.37 81.5998 33.43 83.4398 33.48C83.4798 30.67 83.4898 27.85 83.4598 25.04C80.9798 27.32 78.9998 30.09 77.9298 33.3Z" fill="#5A021F"/>
<path d="M59.8896 35.5501C64.3996 29.4401 70.7496 24.8601 77.9196 22.4301C75.1496 26.5601 72.8696 31.0001 71.1396 35.6701C67.3896 35.7801 63.6396 35.7901 59.8896 35.5501ZM65.7396 33.3001C66.9696 33.3401 68.2097 33.3801 69.4397 33.4201C69.9997 31.6401 70.5397 29.8501 71.0397 28.0401C69.0597 29.5601 67.2596 31.3201 65.7396 33.3001Z" fill="#5A021F"/>
<path d="M58.0104 38.62C62.0104 38.48 66.0204 38.51 70.0304 38.5C69.4004 43.22 68.7604 47.96 68.5304 52.72C63.7504 52.78 58.9704 52.79 54.1904 52.69C54.4904 48.93 55.2804 45.21 56.7604 41.73C57.1904 40.7 57.6004 39.66 58.0104 38.62ZM57.2004 50.53C60.2704 50.55 63.3404 50.54 66.4204 50.53C66.7204 47.47 67.1404 44.42 67.5704 41.38C64.9004 41.33 62.2304 41.28 59.5604 41.22C58.2304 44.17 57.4404 47.31 57.2004 50.53Z" fill="#5A021F"/>
<path d="M71.3203 52.75C71.4303 47.91 72.3703 43.16 73.6003 38.49C77.6003 38.51 81.5903 38.51 85.5903 38.5C85.6503 43.25 85.6403 48 85.6203 52.75C80.8503 52.75 76.0803 52.76 71.3203 52.75ZM75.5003 40.63C74.6503 43.87 74.3203 47.2 74.3003 50.53C77.3603 50.54 80.4103 50.53 83.4603 50.52C83.5103 47.23 83.5103 43.95 83.4103 40.67C80.7703 40.66 78.1403 40.65 75.5003 40.63Z" fill="#5A021F"/>
<path d="M54.25 55.4701C58.98 55.4201 63.72 55.4401 68.45 55.4301C68.82 60.2401 69.19 65.0701 70.3 69.7901C66.29 69.7001 62.25 70.0501 58.26 69.5501C55.55 65.3801 54.5 60.3801 54.25 55.4701ZM57.2 57.5601C57.51 60.9601 57.9 64.4901 59.7 67.4701C62.31 67.9101 64.98 67.7001 67.62 67.6801C67.17 64.5401 66.77 61.4001 66.48 58.2401C63.41 57.7901 60.3 57.6101 57.2 57.5601Z" fill="#5A021F"/>
<path d="M71.3701 55.44C76.3301 55.44 81.2901 55.36 86.2401 55.59C86.2201 60.24 86.2201 64.89 86.2901 69.54C82.1701 70.04 77.6201 71.08 73.6601 69.53C71.9401 65.06 71.5101 60.19 71.3701 55.44ZM74.3001 58.31C74.0901 61.48 74.7001 64.61 75.2701 67.7C78.0101 67.71 80.7401 67.71 83.4801 67.7C83.5101 64.53 83.5301 61.37 83.5601 58.2C80.5201 57.99 77.1901 57.02 74.3001 58.31Z" fill="#5A021F"/>
<path d="M60.0801 72.78C63.7201 72.7 67.3501 72.71 70.9901 72.73C72.9301 77.25 75.0201 81.72 77.8601 85.75C70.6401 83.66 64.2401 79.06 60.0801 72.78ZM65.6201 75.46C67.2401 77.15 68.9501 78.75 70.7501 80.24C70.4701 78.58 70.1701 76.92 69.8401 75.27C68.4301 75.33 67.0301 75.39 65.6201 75.46Z" fill="#5A021F"/>
<path d="M74.5703 73.55C77.8503 71.81 81.9203 73.08 85.5103 72.72C85.6703 77.52 85.7203 82.33 85.4903 87.13C79.9103 84.59 76.2503 79.31 74.5703 73.55ZM77.7303 75.48C79.1803 78.38 80.9503 81.16 83.3903 83.34C83.5003 80.65 83.5403 77.95 83.5603 75.26C81.6203 75.32 79.6703 75.39 77.7303 75.48Z" fill="#5A021F"/>
<path d="M124.97 134.04C126.44 133.55 127.99 133.44 129.51 133.2C131.1 136.03 132.29 139.08 134.06 141.81C135.74 144.44 139.24 144.3 141.99 144.51C156.02 144.53 170.05 144.51 184.08 144.48C185.85 144.58 187.87 144.38 189.35 145.58C190.45 147.54 190.31 149.85 190.39 152.02C190.29 166.63 190.4 181.24 190.31 195.85C210.21 195.9 230.1 195.86 250 195.88V199.37C229.67 199.36 209.33 199.4 189 199.34C186.92 199.36 184.84 199.4 182.79 199.75C164.64 203.86 146.45 207.8 128.32 212H126.61C118.02 210.4 109.6 207.96 101.04 206.18C92.39 204.32 83.7 202.58 75.1 200.46C72.15 199.69 69.11 199.29 66.06 199.34C44.04 199.4 22.02 199.35 0 199.37V195.88C21.47 195.87 42.95 195.88 64.42 195.87C64.45 179.09 64.11 162.31 64.61 145.54C67.34 144.82 70.15 144.41 72.99 144.47C85.66 144.56 98.33 144.47 111 144.54C113.97 144.42 117.27 144.57 119.84 142.86C122.31 140.41 122.41 136.39 124.97 134.04ZM125.97 136.14C124.46 139.38 123.49 143.42 120.1 145.24C114.51 148.17 108.03 147.14 101.97 147.29C90.22 147.41 78.45 147.03 66.7 147.51C66.59 163.03 66.54 178.56 66.72 194.07C66.59 197.37 70.73 196.79 72.87 197.57C90.49 201.67 108.2 205.37 125.83 209.41C129.3 209.93 132.61 208.36 135.97 207.74C152.34 204.25 168.64 200.47 184.98 196.91C186.45 196.62 188.51 195.97 188.2 194.06C188.34 179.36 188.29 164.64 188.22 149.93C188.52 148.04 186.86 146.53 185.03 146.73C169.69 146.49 154.35 146.81 139.01 146.59C133.4 146.66 129.94 141.11 128.89 136.19C128.16 136.18 126.7 136.15 125.97 136.14Z" fill="#5A021F"/>
<path d="M126.56 149.57C127.11 149.44 128.22 149.18 128.77 149.04C128.7 166.63 128.82 184.21 128.69 201.79C128.17 201.67 127.11 201.44 126.59 201.32C126.56 184.07 126.66 166.82 126.56 149.57Z" fill="#5A021F"/>
<path d="M113.871 1.95996L113.711 2.74996C113.051 6.95996 111.211 10.83 109.251 14.57C107.851 14.64 106.461 14.7 105.061 14.76C106.161 14.32 107.281 13.93 108.301 13.34C110.731 9.85996 111.771 5.63996 113.871 1.95996Z" fill="#FF3B7F"/>
<path d="M115.37 5.38994C116.31 4.91994 117.27 4.45994 118.33 4.30994L116.23 6.49994C119.47 11.8399 119.83 18.2599 122.62 23.7799C122.34 24.1099 121.77 24.7699 121.49 25.0999C125.57 26.3799 129.71 24.6599 133.81 24.4799C136.48 30.7099 143.02 33.8699 149.21 35.4499C150.66 34.6299 152.04 33.6899 153.51 32.9099C153.09 35.1599 152.62 37.4099 152.16 39.6599C151.79 39.6599 151.05 39.6599 150.68 39.6599C150.43 39.1099 149.92 38.0199 149.67 37.4699C149.35 40.1999 148.86 42.9199 148.38 45.6199C141.04 54.2599 128.78 56.7699 117.99 55.0099C113.9 54.0799 109.91 52.6799 106.35 50.4199C106.41 49.5999 106.47 48.7899 106.53 47.9699C107.97 47.0299 109.13 45.7599 110.1 44.3499C105.27 44.4699 100.72 48.2599 99.9999 53.0999C101.37 52.5399 102.74 51.9699 104.11 51.3799C107.31 53.0099 110.39 54.9299 113.81 56.0799C119.85 57.8399 126.19 57.5299 132.41 57.4099C133.21 59.9799 134.01 62.5399 134.78 65.1099C135.48 65.8099 136.18 66.4999 136.89 67.1999C144.26 69.5899 151.75 71.9799 158.66 75.4899C160.52 80.0099 161.27 84.9299 162.01 89.7399C152.64 88.7199 143.28 87.68 133.96 86.3699C124.47 84.67 115.08 87.7299 105.64 88.3699C101.01 88.4999 96.5199 90.0499 91.8799 89.8299C92.4199 89.6499 93.4899 89.2699 94.0299 89.0899C94.1399 88.8699 94.3599 88.45 94.4699 88.2299C94.5799 79.8099 94.1899 71.3999 93.5599 63.0099C93.5899 44.9199 92.9499 26.8199 93.4699 8.73994C96.0099 9.78994 97.4099 12.1899 98.8299 14.3699C100.09 14.5399 101.35 14.6999 102.61 14.8499C105.5 15.2299 108.41 15.4699 111.32 15.6999C112.11 12.0899 112.5 8.03994 115.37 5.38994ZM110.68 21.9799C111.22 23.6599 112.47 24.9799 113.46 26.3899C113.92 25.0199 114.38 23.6399 114.83 22.2599C114.1 20.9599 113.36 19.6499 112.62 18.3499C111.92 19.5199 110.61 20.5099 110.68 21.9799ZM102.21 23.2499C102.81 24.5899 103.41 25.9399 104.01 27.2799C104.8 27.2499 105.6 27.2199 106.4 27.1899C106.56 24.6399 106.07 22.1499 104.17 20.3099C103.52 21.2899 102.86 22.2699 102.21 23.2499Z" fill="#FF3B7F"/>
<path d="M77.9307 33.2999C79.0007 30.0899 80.9807 27.3199 83.4607 25.0399C83.4907 27.8499 83.4807 30.6699 83.4407 33.4799C81.6007 33.4299 79.7607 33.3699 77.9307 33.2999Z" fill="#FF3B7F"/>
<path d="M65.7402 33.2999C67.2602 31.3199 69.0602 29.5599 71.0402 28.0399C70.5402 29.8499 70.0002 31.6399 69.4402 33.4199C68.2102 33.3799 66.9702 33.3399 65.7402 33.2999Z" fill="#FF3B7F"/>
<path d="M75.4998 40.63C78.1398 40.65 80.7698 40.66 83.4098 40.67C83.5098 43.95 83.5098 47.23 83.4598 50.52C80.4098 50.53 77.3598 50.54 74.2998 50.53C74.3198 47.2 74.6498 43.87 75.4998 40.63Z" fill="#FF3B7F"/>
<path d="M57.2002 50.53C57.4402 47.31 58.2302 44.17 59.5602 41.22C62.2302 41.28 64.9002 41.33 67.5702 41.38C67.1402 44.42 66.7202 47.47 66.4202 50.53C63.3402 50.54 60.2702 50.55 57.2002 50.53Z" fill="#FF3B7F"/>
<path d="M158.83 55.33C162.94 60.4 161.78 67.31 159.34 72.84C158.46 72.65 156.71 72.27 155.83 72.08C155.55 71.04 155.39 69.97 155.21 68.9C155.94 68.08 156.68 67.25 157.41 66.42C158.22 62.77 158.56 59.05 158.83 55.33Z" fill="#FF3B7F"/>
<path d="M57.2002 57.5599C60.3002 57.6099 63.4102 57.7899 66.4802 58.2399C66.7702 61.3999 67.1702 64.5399 67.6202 67.6799C64.9802 67.6999 62.3102 67.9099 59.7002 67.4699C57.9002 64.4899 57.5102 60.9599 57.2002 57.5599Z" fill="#FF3B7F"/>
<path d="M74.3002 58.3099C77.1902 57.0199 80.5202 57.9899 83.5602 58.1999C83.5302 61.3699 83.5102 64.5299 83.4802 67.6999C80.7402 67.7099 78.0102 67.7099 75.2702 67.6999C74.7002 64.6099 74.0902 61.4799 74.3002 58.3099Z" fill="#FF3B7F"/>
<path d="M65.6201 75.46C67.0301 75.39 68.4301 75.33 69.8401 75.27C70.1701 76.92 70.4701 78.58 70.7501 80.24C68.9501 78.75 67.2401 77.15 65.6201 75.46Z" fill="#FF3B7F"/>
<path d="M77.7305 75.48C79.6705 75.39 81.6205 75.32 83.5605 75.26C83.5405 77.95 83.5005 80.65 83.3905 83.34C80.9505 81.16 79.1805 78.38 77.7305 75.48Z" fill="#FF3B7F"/>
<path d="M125.971 136.14C126.701 136.15 128.161 136.18 128.891 136.19C129.941 141.11 133.401 146.66 139.011 146.59C154.351 146.81 169.691 146.49 185.031 146.73C186.861 146.53 188.521 148.04 188.221 149.93C188.291 164.64 188.341 179.36 188.201 194.06C188.511 195.97 186.451 196.62 184.981 196.91C168.641 200.47 152.341 204.25 135.971 207.74C132.611 208.36 129.301 209.93 125.831 209.41C108.201 205.37 90.4906 201.67 72.8706 197.57C70.7306 196.79 66.5906 197.37 66.7206 194.07C66.5406 178.56 66.5906 163.03 66.7006 147.51C78.4506 147.03 90.2206 147.41 101.971 147.29C108.031 147.14 114.511 148.17 120.101 145.24C123.491 143.42 124.461 139.38 125.971 136.14ZM126.561 149.57C126.661 166.82 126.561 184.07 126.591 201.32C127.111 201.44 128.171 201.67 128.691 201.79C128.821 184.21 128.701 166.63 128.771 149.04C128.221 149.18 127.111 149.44 126.561 149.57Z" fill="#FF3B7F"/>
<path d="M113.71 2.75004C114.21 2.61004 115.19 2.31004 115.68 2.17004C115.58 3.24004 115.48 4.32004 115.37 5.39004C112.5 8.04004 112.11 12.09 111.32 15.7C108.41 15.47 105.5 15.23 102.61 14.85C103.23 14.83 104.45 14.78 105.06 14.76C106.46 14.7 107.85 14.64 109.25 14.57C111.21 10.83 113.05 6.96004 113.71 2.75004Z" fill="white"/>
<path d="M89.3696 5.22009C90.4396 5.27009 91.5096 5.32009 92.5896 5.37009L92.3496 6.63009L93.6196 6.43009C93.5696 7.20009 93.5196 7.97009 93.4696 8.74009C92.9496 26.8201 93.5896 44.9201 93.5596 63.0101C94.1896 71.4001 94.5796 79.8101 94.4696 88.2301C94.3596 88.4501 94.1396 88.8701 94.0296 89.0901C93.4896 89.2701 92.4196 89.6501 91.8796 89.8301C91.3096 89.8401 90.1696 89.8601 89.5996 89.8701C89.6696 80.7201 89.7296 71.5701 89.6496 62.4201L90.3796 62.5801C90.2696 54.8701 90.3396 47.1601 90.4296 39.4601L89.6696 39.5001C89.6896 28.0801 89.1796 16.6501 89.3696 5.22009Z" fill="white"/>
<path d="M83.1101 93.18C95.9201 91.09 108.96 90.6 121.82 88.83C128.58 87.72 135.31 89.36 142.04 89.86C151.68 91.06 161.42 91.5 171.01 93.08C176.08 93.37 181.05 94.6 186.15 94.6C186.64 94.94 187.61 95.6 188.09 95.94C190.02 102.42 192.1 108.85 194.45 115.18C196.39 120.45 197.55 125.97 199.78 131.14C200.47 133.19 200.72 135.35 200.88 137.51C187.27 138.13 173.61 137.62 159.98 137.79C152.89 137.7 145.78 138 138.69 137.57C136.52 130.81 135.14 123.82 132.72 117.14C132.61 116.55 132.38 115.38 132.27 114.8C131.8 113.53 131.37 112.23 130.94 110.95C129.61 106.62 128.75 102.15 127.14 97.91C126.87 99.31 126.62 100.71 126.37 102.11C125.81 103.68 125.27 105.26 124.66 106.81C124.53 107.37 124.27 108.49 124.13 109.04C121.78 116.25 120.38 123.72 117.93 130.9C117.54 132.25 117.14 133.6 116.68 134.94C116.56 135.55 116.32 136.79 116.21 137.41C112.85 138.03 109.45 138.34 106.06 137.86C94.7101 137.67 83.3501 137.81 72.0001 137.8C65.8001 137.45 59.5101 138.5 53.3701 137.3C53.8201 134.41 54.7601 131.63 55.6101 128.84C56.0601 127.89 56.5001 126.95 56.9301 126C57.2401 124.96 57.5401 123.92 57.8201 122.88C60.1701 116.63 61.6001 110.07 64.2501 103.93C64.3601 103.44 64.5701 102.44 64.6701 101.94C65.0701 100.89 65.4401 99.83 65.7901 98.77C66.4401 97.39 67.1001 96.02 67.7801 94.66C72.9301 94.58 77.9601 93.3 83.1101 93.18Z" fill="white"/>
</g>
<defs>
<clipPath id="clip0_29_3501">
<rect width="250" height="212" fill="white"/>
</clipPath>
</defs>
</svg>
