<svg width="250" height="211" viewBox="0 0 250 211" fill="none" xmlns="http://www.w3.org/2000/svg">
<g clip-path="url(#clip0_29_3433)">
<path d="M106.78 0H108.33C135.74 8.23 163.14 16.56 190.58 24.72C193.05 25.38 195.64 27.06 195.42 29.99C195.68 51.35 195.19 72.73 195.67 94.09C202.66 93.55 209.23 100.01 208.8 107.01C208.84 110.87 209.1 114.85 208.05 118.6C205.84 124.09 203 129.49 198.55 133.5C195.79 136.44 191.62 137.93 189.65 141.59C188.43 143.75 186.84 145.78 186.13 148.18C186.42 150.85 188.24 153.16 189.89 155.2C194.44 157.75 199.57 159.14 204.51 160.77C207.09 157.33 209.64 153.51 209.62 149.03C210.26 144.05 208.09 139.31 208.3 134.34C213.8 133.35 216.08 139.37 218.26 143.25C220.58 149.88 220.03 157.49 217.29 163.94C216.62 165.43 216.24 167.09 216.83 168.68C218.7 175.3 219.99 182.06 221.77 188.7C223.4 194.86 225.46 200.95 226.02 207.34C234.01 207.68 242.01 207.42 250 207.5V211H0V207.5C39.9 207.48 79.79 207.52 119.69 207.48C119.7 203.63 119.71 199.78 119.69 195.93C115.68 197.29 111.74 198.86 107.77 200.36C100.06 197.27 91.95 195.13 84.75 190.9C77.89 188.2 71.91 183.89 65.53 180.29C49.67 169.53 33.81 157.21 24.82 139.83C22.04 133.6 19.98 126.9 20.32 120C20.43 88.97 20.06 57.94 20.51 26.93C25.62 23.7 31.71 22.89 37.38 21.08C60.45 13.85 83.72 7.28 106.78 0ZM103.83 3.23C91.79 7.05 79.56 10.29 67.56 14.24C62.3 15.72 56.97 17 51.87 18.98C44.59 21.13 37.25 23.11 30.04 25.48C27.59 26.46 24.12 26.13 22.76 28.83C22.3 31.19 22.51 33.63 22.47 36.02C22.48 63.67 22.48 91.32 22.48 118.97C22.4 126.12 23.79 133.45 27.55 139.63C31.67 147.91 37.76 155.05 44.63 161.18C51.32 168.02 59.49 173.07 67.12 178.75C78.73 185.85 90.91 192.13 103.82 196.55C105.5 197.04 107.26 198 109.04 197.34C112.89 196.25 116.66 194.86 120.29 193.19C120.62 178.6 120.47 164 120.6 149.4C108.17 151.66 94.51 151.26 83.3 144.87C75.41 141.28 69.09 135.02 63.63 128.42C53.54 115.47 50.9 97.79 54.71 82.04C57.93 69.09 66.66 58.07 77.34 50.33C83.29 46.16 90.27 43.77 97.24 41.91C104.13 41.12 111.14 41.31 118.06 41.79C128.37 44.54 138.7 48.96 146 57.03C148.97 59.67 151.5 62.73 153.49 66.18C154.31 68.27 156.79 68.07 158.61 68.55C161.57 77.69 164.38 86.89 166.98 96.13C167.38 97.34 167.72 98.66 168.73 99.52C176.99 98.15 185.2 96.36 193.25 94.03C193.53 74.03 193.26 54.01 193.37 34C193.27 31.8 193.98 28.86 191.53 27.65C187.42 25.76 182.95 24.76 178.66 23.33C168.24 20.62 158.13 16.87 147.7 14.2C134.93 9.99 121.93 6.57 109.13 2.47C107.34 1.93 105.55 2.78 103.83 3.23ZM87.18 47.42C81.62 50.2 76.32 53.55 71.75 57.8C65.91 63.56 60.88 70.29 58.33 78.17C57.33 79.57 57.49 81.41 56.66 82.88C56.46 84.28 56.31 85.68 56.13 87.09C54.9 92.87 54.97 99.09 56.15 104.87C56.33 106.28 56.51 107.69 56.71 109.1C58.4 113.95 60.11 118.87 62.81 123.26C70.36 134.53 81.72 143.7 95.13 146.75C97.29 147.8 99.76 147.52 102.08 147.82C105.57 148.75 109.36 148.83 112.84 147.81C115.35 147.62 117.86 147.48 120.36 147.26C121.01 134.75 120.64 122.19 120.47 109.67C119.87 101.94 119.18 94.22 119.44 86.45C120.15 81.4 118.53 75.88 121.81 71.47C123.87 71.72 125.9 72.16 127.87 72.82C128.52 73.77 129.15 74.74 129.75 75.73C132.73 73.69 134.73 70.21 138.35 69.19L138.51 70.58C138.91 70.54 139.73 70.47 140.14 70.43C142.05 72.34 143.98 74.25 145.61 76.42L144.37 76.15C142.31 73.28 139.47 70.51 135.64 71.26C134.1 72.86 132.55 74.44 130.97 76C132.32 79.8 135.5 82.43 137.94 85.51C139.74 85.13 141.54 84.7 143.34 84.33C143.74 84.02 144.53 83.41 144.93 83.1C145.23 83.6 145.83 84.61 146.14 85.12C146.33 83.6 146.39 82.08 146.43 80.56C147.29 80.03 148.15 79.51 149.03 79.01C149.85 76.67 150.72 74.35 151.49 71.99C151.78 71.49 152.35 70.5 152.64 70.01C152.06 67.1 149.76 65.08 148.31 62.62C143.17 56.57 136.74 51.9 129.75 48.2C120.83 43.9 110.64 43.1 100.88 43.87C96.26 44.84 91.47 45.29 87.18 47.42ZM153.93 71.57C153.57 73.49 153.05 75.39 152.07 77.1C151.15 79.02 150.94 81.33 149.42 82.91C149.46 83.3 149.55 84.07 149.59 84.45L148.27 84.5C148.38 84.98 148.61 85.92 148.72 86.4L147.37 86.35L147.49 87.49C145.46 87.52 143.42 87.57 141.4 87.69C139.72 87.14 138.08 87.82 136.64 88.68C133.41 85.21 130.91 81.1 127.59 77.74C127.61 77.51 127.66 77.04 127.68 76.81C126.55 74.99 124.67 74.27 122.59 74.25C121.21 81.33 122.11 88.5 122.5 95.62C121.8 104.7 122.76 113.89 123.37 122.97C123.14 132.65 123.77 142.36 122.72 151.99C122.74 170.28 122.31 188.56 122.53 206.84C124.78 205.71 126.31 203.64 127.36 201.4C128.33 200.27 129.18 199.04 129.81 197.68C132.75 196.48 133.33 192.46 135.9 190.57C139.94 190.53 143.98 190.53 148.02 190.63C148.69 191.46 148.94 193.24 150.4 192.71C150.56 193.28 150.88 194.44 151.05 195.01C153.25 199.36 154.06 205.38 158.61 207.91C162.22 202.22 165.4 196.27 168.84 190.47C175.97 190.2 183 191.63 190.06 192.41C196.48 192.34 202.7 194.32 209.12 194.49C212.33 197.07 215.5 199.72 218.48 202.57C219.7 203.73 221.02 204.98 222.87 204.94C220.32 195.33 218.48 185.55 215.65 176C214.46 172.53 215.06 166.91 210.29 166.25C203.61 164.72 197.77 160.17 190.76 160.11C189.23 164.8 184.02 165.78 180.33 168.18C174.26 172.22 167.62 175.27 161.53 179.28C157.85 180.89 153.64 185.37 149.59 182.2C146.13 178.65 143.97 174.03 141.72 169.66C140.24 166.82 138.04 164.41 136.74 161.48C136.11 159.59 135.87 157.02 137.6 155.64C142.11 151.54 148.19 149.88 153 146.22C154.54 145.57 156 144.85 155.93 142.9C150.25 141.69 145.77 137.83 140.75 135.34C140.17 136.59 139.58 137.84 138.99 139.09C138.64 139.22 137.93 139.48 137.57 139.61C135.16 137.28 137.64 134.27 139.13 132.22C141.67 129.35 145.21 126.07 149.38 127.66C147.35 129.54 145.16 131.23 143.04 133.01C148.31 136.87 154.3 140.39 160.98 140.73C168.31 142.3 176.08 141.35 183.14 139.15C183.13 141.06 183.21 142.97 183.31 144.88C183.76 144.77 184.67 144.57 185.13 144.46C185.93 143.3 186.82 142.2 187.76 141.14C187.14 141.35 185.89 141.78 185.27 141.99C185.09 141.25 184.73 139.77 184.55 139.03C190.93 136.72 196.35 132.52 200.45 127.14C200.36 123.73 200.58 120.31 200.33 116.91C200.15 115.66 199.65 113.91 198.13 113.81C190.29 112.93 183.71 107.27 180.09 100.49C174.2 101.06 168.45 102.72 162.58 103.41C161.29 101.45 163.64 100.51 164.8 99.58C163.15 91.09 160.15 82.93 157.46 74.73C157.41 73.64 157.36 72.56 157.31 71.47C156.18 71.49 155.06 71.52 153.93 71.57ZM201.65 113.97C201.89 116.75 200.52 120.37 203.09 122.37C205.16 118.72 206.59 114.56 206.38 110.31C204.87 111.62 203.32 112.87 201.65 113.97ZM211.57 138.11C212.12 142.73 212.91 147.42 212.03 152.05C211.4 155.77 209.11 158.89 207.97 162.45C210.16 163.69 212.66 163.91 215.09 163.34C215.32 159.78 217.11 156.56 217.4 153.02C217.41 147.57 215.2 142.16 211.57 138.11ZM161.9 143.41C158.65 142.84 156.47 146.13 153.38 146.55L153.59 147.31C149.47 149.31 145.62 151.82 141.44 153.7L141.47 154.69C141.09 154.61 140.31 154.45 139.92 154.37C136.3 156.41 136.96 160.94 138.92 163.93C142.14 167.99 144.48 172.77 146.62 177.45L147.4 177.44C147.78 178.65 148.32 179.8 148.82 180.97C150.49 181.75 152.25 182.34 154.1 182.48C156.44 180.86 158.98 179.56 161.56 178.37L161.6 177.37C162.08 177.45 163.03 177.6 163.5 177.68L163.49 176.34C163.87 176.37 164.64 176.44 165.02 176.48C167.98 173.67 172 172.31 175.51 170.3L175.62 169.36C176.08 169.44 177 169.62 177.46 169.7L177.44 168.69C181.16 166.72 184.95 164.78 188.52 162.55C191.31 159.05 188.17 154.89 186.27 151.78C185.73 150.97 185.21 150.15 184.69 149.33C183.53 147.03 182.28 144.78 180.99 142.56C174.68 143.48 168.27 144.16 161.9 143.41ZM170.16 192.83C168.35 198.11 164.7 202.49 162.12 207.4C168.21 207.56 174.3 207.54 180.38 207.42C180.33 202.87 180.65 198.32 180.46 193.78C178.58 193.72 176.71 193.63 174.85 193.49C173.39 192.71 171.76 192.7 170.16 192.83ZM136.96 193.62C133.38 198.21 129.63 202.68 126.2 207.4C135.43 207.59 144.66 207.5 153.89 207.45C151.88 202.66 149.77 197.82 146.77 193.56C143.5 193.6 140.23 193.56 136.96 193.62ZM182.91 194.68C182.92 198.35 182.72 202.02 182.51 205.68C183.04 205.64 184.12 205.55 184.65 205.51C186.84 202.78 188.82 199.85 191.43 197.48C191.53 197.02 191.73 196.09 191.84 195.63C188.85 195.33 185.95 193.85 182.91 194.68ZM196.95 195.86C193.2 199.57 189.57 203.42 185.99 207.31C197.01 207.67 208.04 207.51 219.06 207.41C215.86 203.3 211.4 200.33 207.56 196.87C204.02 196.6 200.46 196.16 196.95 195.86Z" fill="#5A0220"/>
<path d="M150.44 95.85C151.25 94.81 152.13 93.83 153.09 92.92C155.19 95.23 156.87 99.11 154.24 101.67C150.85 102.25 151.29 97.89 150.44 95.85Z" fill="#5A0220"/>
<path d="M139.63 99.07C139.5 97.39 141.21 96.44 142.07 95.23C145.05 97.37 144.81 101.04 144.21 104.26C143.42 104.26 142.63 104.27 141.84 104.29C140.89 102.66 139.36 101.12 139.63 99.07Z" fill="#5A0220"/>
<path d="M103.83 3.22995C105.55 2.77995 107.34 1.92995 109.13 2.46995C121.93 6.56995 134.93 9.98995 147.7 14.1999C158.13 16.8699 168.24 20.6199 178.66 23.3299C182.95 24.7599 187.42 25.7599 191.53 27.6499C193.98 28.8599 193.27 31.7999 193.37 33.9999C193.26 54.01 193.53 74.03 193.25 94.03C185.2 96.36 176.99 98.15 168.73 99.52C167.72 98.66 167.38 97.34 166.98 96.13C164.38 86.89 161.57 77.69 158.61 68.55C156.79 68.07 154.31 68.27 153.49 66.18C151.5 62.73 148.97 59.67 146 57.03C138.7 48.9599 128.37 44.54 118.06 41.79C111.14 41.31 104.13 41.1199 97.2401 41.91C90.2701 43.77 83.2901 46.16 77.3401 50.33C66.6601 58.07 57.9301 69.09 54.7101 82.04C50.9001 97.79 53.5401 115.47 63.6301 128.42C69.0901 135.02 75.4101 141.28 83.3001 144.87C94.5101 151.26 108.17 151.66 120.6 149.4C120.47 164 120.62 178.6 120.29 193.19C116.66 194.86 112.89 196.25 109.04 197.34C107.26 198 105.5 197.04 103.82 196.55C90.9101 192.13 78.7301 185.85 67.1201 178.75C59.4901 173.07 51.3201 168.02 44.6301 161.18C37.7601 155.05 31.6701 147.91 27.5501 139.63C23.7901 133.45 22.4001 126.12 22.4801 118.97C22.4801 91.32 22.4801 63.67 22.4701 36.02C22.5101 33.63 22.3001 31.1899 22.7601 28.8299C24.1201 26.1299 27.5901 26.4599 30.0401 25.4799C37.2501 23.1099 44.5901 21.1299 51.8701 18.9799C56.9701 16.9999 62.3001 15.7199 67.5601 14.2399C79.5601 10.2899 91.7901 7.04995 103.83 3.22995Z" fill="#FF3B7F"/>
<path d="M119.64 73.2299C121.77 70.4599 125.64 69.6499 127.87 72.8199C125.9 72.1599 123.87 71.7199 121.81 71.4699C118.53 75.8799 120.15 81.3999 119.44 86.4499C119.18 94.2199 119.87 101.94 120.47 109.67C112.52 116.19 106.57 125.05 97.7601 130.49C95.9101 129.33 93.9801 128.22 92.4201 126.67C86.0201 120.05 79.4201 113.63 72.9701 107.07C70.7201 104.76 67.5101 102.69 67.3301 99.1399C68.9301 95.4099 72.1801 92.6499 75.3001 90.1799C77.5601 88.2899 80.4501 90.0199 82.1201 91.8199C87.3501 97.0399 92.3801 102.47 97.8901 107.41C104.76 100.57 111.75 93.8399 118.38 86.7899C119.01 82.3099 118.68 77.6999 119.64 73.2299Z" fill="#FF3B7F"/>
<path d="M135.64 71.26C139.47 70.51 142.31 73.28 144.37 76.15L145.61 76.42C148.92 78.08 150.19 74.26 151.49 71.99C150.72 74.35 149.85 76.67 149.03 79.01C148.15 79.51 147.29 80.03 146.43 80.56C146.39 82.08 146.33 83.6 146.14 85.12C145.83 84.61 145.23 83.6 144.93 83.1C144.53 83.41 143.74 84.02 143.34 84.33C141.54 84.7 139.74 85.13 137.94 85.51C135.5 82.43 132.32 79.8 130.97 76C132.55 74.44 134.1 72.86 135.64 71.26Z" fill="#FF3B7F"/>
<path d="M154.46 77.55C154.9 76.1 156.19 75.35 157.46 74.73C160.15 82.93 163.15 91.09 164.8 99.58C163.64 100.51 161.29 101.45 162.58 103.41C168.45 102.72 174.2 101.06 180.09 100.49C183.71 107.27 190.29 112.93 198.13 113.81C199.65 113.91 200.15 115.66 200.33 116.91C200.58 120.31 200.36 123.73 200.45 127.14C196.35 132.52 190.93 136.72 184.55 139.03C184.73 139.77 185.09 141.25 185.27 141.99C185.89 141.78 187.14 141.35 187.76 141.14C186.82 142.2 185.93 143.3 185.13 144.46C184.67 144.57 183.76 144.77 183.31 144.88C183.21 142.97 183.13 141.06 183.14 139.15C176.08 141.35 168.31 142.3 160.98 140.73C154.3 140.39 148.31 136.87 143.04 133.01C145.16 131.23 147.35 129.54 149.38 127.66C145.21 126.07 141.67 129.35 139.13 132.22C137.64 134.27 135.16 137.28 137.57 139.61C137.93 139.48 138.64 139.22 138.99 139.09C139.58 137.84 140.17 136.59 140.75 135.34C145.77 137.83 150.25 141.69 155.93 142.9C156 144.85 154.54 145.57 153 146.22C148.19 149.88 142.11 151.54 137.6 155.64C135.87 157.02 136.11 159.59 136.74 161.48C138.04 164.41 140.24 166.82 141.72 169.66C143.97 174.03 146.13 178.65 149.59 182.2C153.64 185.37 157.85 180.89 161.53 179.28C167.62 175.27 174.26 172.22 180.33 168.18C184.02 165.78 189.23 164.8 190.76 160.11C197.77 160.17 203.61 164.72 210.29 166.25C215.06 166.91 214.46 172.53 215.65 176C218.48 185.55 220.32 195.33 222.87 204.94C221.02 204.98 219.7 203.73 218.48 202.57C215.5 199.72 212.33 197.07 209.12 194.49C202.7 194.32 196.48 192.34 190.06 192.41C183 191.63 175.97 190.2 168.84 190.47C165.4 196.27 162.22 202.22 158.61 207.91C154.06 205.38 153.25 199.36 151.05 195.01C153.42 199.1 155.54 203.33 158.01 207.36C158.86 205.73 161.24 204.22 160.26 202.13C159.2 199.18 158.28 196.11 156.62 193.44C155.19 191.34 152.51 191.3 150.27 190.99L150.4 192.71C148.94 193.24 148.69 191.46 148.02 190.63C143.98 190.53 139.94 190.53 135.9 190.57C133.33 192.46 132.75 196.48 129.81 197.68C129.29 192.47 128.41 187.27 128.69 182.01C128.39 168 128.71 153.97 127.72 139.99C127.72 121.95 127.3 103.92 127.15 85.89C127.12 83.16 127.3 80.44 127.59 77.74C130.91 81.1 133.41 85.21 136.64 88.68C138.08 87.82 139.72 87.14 141.4 87.69C144.59 88.44 147.84 88.91 151.05 89.62C151.71 85.49 152.65 81.35 154.46 77.55ZM150.44 95.85C151.29 97.89 150.85 102.25 154.24 101.67C156.87 99.11 155.19 95.23 153.09 92.92C152.13 93.83 151.25 94.81 150.44 95.85ZM139.63 99.07C139.36 101.12 140.89 102.66 141.84 104.29C142.63 104.27 143.42 104.26 144.21 104.26C144.81 101.04 145.05 97.37 142.07 95.23C141.21 96.44 139.5 97.39 139.63 99.07Z" fill="#FF3B7F"/>
<path d="M122.5 95.62C122.85 100.07 123 104.53 123.38 108.98C123.51 140.99 123.37 173 123.36 205C124.66 203.77 125.89 202.44 127.36 201.4C126.31 203.64 124.78 205.71 122.53 206.84C122.31 188.56 122.74 170.28 122.72 151.99C123.77 142.36 123.14 132.65 123.37 122.97C122.76 113.89 121.8 104.7 122.5 95.62Z" fill="#FF3B7F"/>
<path d="M201.65 113.97C203.32 112.87 204.87 111.62 206.38 110.31C206.59 114.56 205.16 118.72 203.09 122.37C200.52 120.37 201.89 116.75 201.65 113.97Z" fill="#FF3B7F"/>
<path d="M211.57 138.11C215.2 142.16 217.41 147.57 217.4 153.02C217.11 156.56 215.32 159.78 215.09 163.34C212.66 163.91 210.16 163.69 207.97 162.45C209.11 158.89 211.4 155.77 212.03 152.05C212.91 147.42 212.12 142.73 211.57 138.11Z" fill="#FF3B7F"/>
<path d="M176.79 153.61C178.09 153.53 179.4 153.47 180.71 153.4C181.94 155.03 183.06 157.07 182.26 159.15C179.68 160.95 176.99 163.84 173.59 163.37C172.39 162.09 171.61 160.5 170.68 159.04C172.19 156.69 174.57 155.2 176.79 153.61ZM176.66 155.65C176.6 156.5 176.53 157.35 176.47 158.21C177.15 158.56 178.53 159.27 179.21 159.63C179.52 159.21 180.13 158.37 180.43 157.95C181.38 155.21 178.35 155.42 176.66 155.65ZM174.32 161.37C176 162.11 176.18 159.41 175.29 158.6C173.24 156.5 172.15 160.64 174.32 161.37Z" fill="#FF3B7F"/>
<path d="M161.061 159.66C161.851 157.05 164.411 155.92 166.981 156.35C165.611 158.3 163.431 159.5 161.061 159.66Z" fill="#FF3B7F"/>
<path d="M154.56 161.72C156.22 160.75 158.02 160.1 159.98 160.33C158.51 162.08 156.75 163.66 154.37 163.89C154.42 163.35 154.51 162.26 154.56 161.72Z" fill="#FF3B7F"/>
<path d="M147.15 167.65C147.86 165.38 150.41 163.73 152.77 164.35C152.24 166.68 149.19 167.23 147.15 167.65Z" fill="#FF3B7F"/>
<path d="M158.99 171.03C162.48 169.07 165.67 166.48 169.56 165.32C169.42 166.19 169.27 167.06 169.13 167.94C162.92 169.48 158.47 175.61 151.89 175.73C153.76 173.5 156.58 172.53 158.99 171.03Z" fill="#FF3B7F"/>
<path d="M150.061 172.64C152.101 169.62 155.601 168.01 158.951 166.89C158.821 167.44 158.561 168.56 158.441 169.12C155.621 170.19 153.271 173.01 150.061 172.64Z" fill="#FF3B7F"/>
<path d="M182.91 194.68C185.95 193.85 188.85 195.33 191.84 195.63C191.73 196.09 191.53 197.02 191.43 197.48C188.82 199.85 186.84 202.78 184.65 205.51C184.12 205.55 183.04 205.64 182.51 205.68C182.72 202.02 182.92 198.35 182.91 194.68ZM183.63 195.6C183.55 198.74 183.45 201.88 183.49 205.02C187.07 203.12 186.32 198.73 186.64 195.38C185.64 195.45 184.63 195.52 183.63 195.6Z" fill="#FF3B7F"/>
<path d="M87.1804 47.42C91.4704 45.29 96.2604 44.84 100.88 43.87C110.64 43.1 120.83 43.9 129.75 48.2C136.74 51.9 143.17 56.57 148.31 62.62C149.76 65.08 152.06 67.1 152.64 70.01C152.35 70.5 151.78 71.49 151.49 71.99C150.19 74.26 148.92 78.08 145.61 76.42C143.98 74.25 142.05 72.34 140.14 70.43C139.73 70.47 138.91 70.54 138.51 70.58L138.35 69.19C134.73 70.21 132.73 73.69 129.75 75.73C129.15 74.74 128.52 73.77 127.87 72.82C125.64 69.65 121.77 70.46 119.64 73.23C118.68 77.7 119.01 82.31 118.38 86.79C111.75 93.84 104.76 100.57 97.8904 107.41C92.3804 102.47 87.3504 97.04 82.1204 91.82C80.4504 90.02 77.5604 88.29 75.3004 90.18C72.1804 92.65 68.9304 95.41 67.3304 99.14C67.5104 102.69 70.7204 104.76 72.9704 107.07C79.4204 113.63 86.0204 120.05 92.4204 126.67C93.9804 128.22 95.9104 129.33 97.7604 130.49C106.57 125.05 112.52 116.19 120.47 109.67C120.64 122.19 121.01 134.75 120.36 147.26C117.86 147.48 115.35 147.62 112.84 147.81C109.36 148.83 105.57 148.75 102.08 147.82C99.7604 147.52 97.2904 147.8 95.1304 146.75C81.7204 143.7 70.3604 134.53 62.8104 123.26C60.1104 118.87 58.4004 113.95 56.7104 109.1C56.5104 107.69 56.3304 106.28 56.1504 104.87C54.9704 99.09 54.9004 92.87 56.1304 87.09C56.3104 85.68 56.4604 84.28 56.6604 82.88C57.4904 81.41 57.3304 79.57 58.3304 78.17C60.8804 70.29 65.9104 63.56 71.7504 57.8C76.3204 53.55 81.6204 50.2 87.1804 47.42Z" fill="white"/>
<path d="M153.93 71.57C155.06 71.52 156.18 71.49 157.31 71.47C157.36 72.56 157.41 73.64 157.46 74.73C156.19 75.35 154.9 76.1 154.46 77.55C152.65 81.35 151.71 85.49 151.05 89.62C147.84 88.91 144.59 88.44 141.4 87.69C143.42 87.57 145.46 87.52 147.49 87.49L147.37 86.35L148.72 86.4C148.61 85.92 148.38 84.98 148.27 84.5L149.59 84.45C149.55 84.07 149.46 83.3 149.42 82.91C150.94 81.33 151.15 79.02 152.07 77.1C153.05 75.39 153.57 73.49 153.93 71.57Z" fill="white"/>
<path d="M122.501 95.62C122.111 88.5 121.211 81.33 122.591 74.25C124.671 74.27 126.551 74.99 127.681 76.81C127.661 77.04 127.611 77.51 127.591 77.74C127.301 80.44 127.121 83.16 127.151 85.89C127.301 103.92 127.721 121.95 127.721 139.99C128.711 153.97 128.391 168 128.691 182.01C128.411 187.27 129.291 192.47 129.811 197.68C129.181 199.04 128.331 200.27 127.361 201.4C125.891 202.44 124.661 203.77 123.361 205C123.371 173 123.511 140.99 123.381 108.98C123.001 104.53 122.851 100.07 122.501 95.62Z" fill="white"/>
<path d="M161.901 143.41C168.271 144.16 174.681 143.48 180.991 142.56C182.281 144.78 183.531 147.03 184.691 149.33C185.211 150.15 185.731 150.97 186.271 151.78C188.171 154.89 191.311 159.05 188.521 162.55C184.951 164.78 181.161 166.72 177.441 168.69L177.461 169.7C177.001 169.62 176.081 169.44 175.621 169.36L175.511 170.3C172.001 172.31 167.981 173.67 165.021 176.48C164.641 176.44 163.871 176.37 163.491 176.34L163.501 177.68C163.031 177.6 162.081 177.45 161.601 177.37L161.561 178.37C158.981 179.56 156.441 180.86 154.101 182.48C152.251 182.34 150.491 181.75 148.821 180.97C148.321 179.8 147.781 178.65 147.401 177.44L146.621 177.45C144.481 172.77 142.141 167.99 138.921 163.93C136.961 160.94 136.301 156.41 139.921 154.37C140.311 154.45 141.091 154.61 141.471 154.69L141.441 153.7C145.621 151.82 149.471 149.31 153.591 147.31L153.381 146.55C156.471 146.13 158.651 142.84 161.901 143.41ZM176.791 153.61C174.571 155.2 172.191 156.69 170.681 159.04C171.611 160.5 172.391 162.09 173.591 163.37C176.991 163.84 179.681 160.95 182.261 159.15C183.061 157.07 181.941 155.03 180.711 153.4C179.401 153.47 178.091 153.53 176.791 153.61ZM161.061 159.66C163.431 159.5 165.611 158.3 166.981 156.35C164.411 155.92 161.851 157.05 161.061 159.66ZM154.561 161.72C154.511 162.26 154.421 163.35 154.371 163.89C156.751 163.66 158.511 162.08 159.981 160.33C158.021 160.1 156.221 160.75 154.561 161.72ZM147.151 167.65C149.191 167.23 152.241 166.68 152.771 164.35C150.411 163.73 147.861 165.38 147.151 167.65ZM158.991 171.03C156.581 172.53 153.761 173.5 151.891 175.73C158.471 175.61 162.921 169.48 169.131 167.94C169.271 167.06 169.421 166.19 169.561 165.32C165.671 166.48 162.481 169.07 158.991 171.03ZM150.061 172.64C153.271 173.01 155.621 170.19 158.441 169.12C158.561 168.56 158.821 167.44 158.951 166.89C155.601 168.01 152.101 169.62 150.061 172.64Z" fill="white"/>
<path d="M176.661 155.65C178.351 155.42 181.381 155.21 180.431 157.95C180.131 158.37 179.521 159.21 179.211 159.63C178.531 159.27 177.151 158.56 176.471 158.21C176.531 157.35 176.601 156.5 176.661 155.65Z" fill="white"/>
<path d="M174.321 161.37C172.151 160.64 173.241 156.5 175.291 158.6C176.181 159.41 176.001 162.11 174.321 161.37Z" fill="white"/>
<path d="M150.271 190.99C152.511 191.3 155.19 191.34 156.62 193.44C158.28 196.11 159.2 199.18 160.26 202.13C161.24 204.22 158.86 205.73 158.01 207.36C155.54 203.33 153.421 199.1 151.051 195.01C150.881 194.44 150.56 193.28 150.4 192.71L150.271 190.99Z" fill="white"/>
<path d="M183.631 195.6C184.631 195.52 185.641 195.45 186.641 195.38C186.321 198.73 187.071 203.12 183.491 205.02C183.451 201.88 183.551 198.74 183.631 195.6Z" fill="white"/>
</g>
<defs>
<clipPath id="clip0_29_3433">
<rect width="250" height="211" fill="white"/>
</clipPath>
</defs>
</svg>
