<svg width="495" height="414" viewBox="0 0 495 414" fill="none" xmlns="http://www.w3.org/2000/svg">
<g clip-path="url(#clip0_1_5936)">
<path d="M288.968 28.002C297.462 23.793 306.946 22.9037 316.094 20.9869C335.178 19.4843 355.092 21.0073 372.595 29.2289C376.971 30.4565 380.771 33.3338 384.975 35.0574C398.28 43.4104 409.243 54.6745 418.464 67.3066C429.404 83.5451 433.842 103.252 435.082 122.558C434.482 131.868 434.95 141.363 431.983 150.353C428.101 162.01 423.028 173.319 415.986 183.452C406.343 196.494 394.57 208.225 379.844 215.428C377.382 217.777 373.731 217.982 371.084 220.018C368.396 220.803 365.695 221.49 362.982 222.238C359.145 223.647 355.158 224.76 351.097 225.583C346.015 226.613 340.817 227.188 335.652 227.32C331.329 228.041 326.866 227.988 322.537 227.274C321.586 227.284 320.634 227.29 319.682 227.291L319.57 227.27C317.467 226.861 315.358 226.45 313.251 226.019C310.312 225.854 307.39 225.586 304.709 224.286C278.157 218.259 255.664 200.138 240.715 177.868C235.389 169.225 232.009 159.543 228.675 149.994L228.637 149.886C228.241 147.1 227.885 144.314 227.529 141.528L227.529 141.528C225.192 130.106 225.054 117.815 227.489 106.393C227.845 103.607 228.142 100.84 228.538 98.0737C230.182 95.1689 229.865 91.5329 231.845 88.7664C236.894 73.1949 246.853 59.8959 258.417 48.5137C267.465 40.1154 277.959 33.4955 288.968 28.002Z" fill="white"/>
<path fill-rule="evenodd" clip-rule="evenodd" d="M410.667 57.4781C403.201 48.8479 394.716 41.1726 384.975 35.0574C383.245 34.3481 381.584 33.4433 379.922 32.5385C377.767 31.3652 375.613 30.192 373.309 29.4449L373.305 29.4436C373.07 29.3674 372.834 29.2957 372.596 29.2289C371.513 28.7202 370.421 28.2372 369.32 27.7789C368.943 27.6218 368.564 27.4677 368.185 27.3164C367.743 27.1399 367.299 26.9674 366.855 26.7987C350.808 20.7141 333.121 19.6463 316.095 20.9869C313.924 21.4417 311.735 21.8387 309.544 22.2359C302.502 23.5126 295.447 24.7917 288.969 28.002C277.96 33.4955 267.466 40.1154 258.417 48.5137C246.854 59.8959 236.895 73.1949 231.846 88.7664C230.777 90.2598 230.377 92.0066 229.977 93.755C229.636 95.2454 229.295 96.737 228.539 98.0737C228.288 99.8291 228.076 101.585 227.864 103.345C227.742 104.359 227.62 105.375 227.49 106.393C226.987 108.749 226.594 111.142 226.308 113.557C225.739 118.35 225.588 123.229 225.831 128.073C225.838 128.225 225.846 128.377 225.855 128.529C226.097 132.922 226.661 137.285 227.529 141.528C227.886 144.314 228.242 147.1 228.638 149.886L228.675 149.994C228.685 150.021 228.694 150.048 228.704 150.076C228.739 150.175 228.773 150.275 228.808 150.374C230.318 154.697 231.842 159.044 233.557 163.307C233.604 163.423 233.651 163.539 233.698 163.655C235.687 168.565 237.937 173.358 240.716 177.868C252.833 195.92 269.907 211.245 290.082 219.613L290.092 219.617C294.804 221.571 299.684 223.145 304.71 224.286C307.39 225.586 310.312 225.854 313.251 226.019C314.936 226.364 316.621 226.695 318.304 227.023C318.332 227.029 318.36 227.034 318.388 227.039C318.782 227.116 319.177 227.193 319.571 227.27L319.682 227.291C320.635 227.29 321.586 227.284 322.538 227.274C324.373 227.577 326.232 227.761 328.094 227.817C328.109 227.818 328.125 227.818 328.14 227.818C330.656 227.892 333.177 227.733 335.653 227.32C337.044 227.285 338.438 227.217 339.831 227.117C339.884 227.113 339.936 227.109 339.988 227.105C343.715 226.831 347.436 226.325 351.098 225.583C352.279 225.343 353.454 225.079 354.621 224.791C357.465 224.087 360.262 223.237 362.982 222.238C363.974 221.965 364.964 221.7 365.952 221.435C367.668 220.975 369.379 220.516 371.084 220.018C372.302 219.081 373.733 218.532 375.163 217.983C376.84 217.339 378.516 216.696 379.845 215.428C394.57 208.225 406.343 196.494 415.987 183.452C423.029 173.319 428.102 162.01 431.984 150.353C434.246 143.496 434.511 136.345 434.776 129.207C434.858 126.987 434.94 124.767 435.082 122.558C433.842 103.252 429.404 83.5451 418.464 67.3066C415.994 63.9224 413.399 60.6363 410.667 57.4781ZM383.173 220.398C381.192 222.011 379.042 222.842 377.7 223.36L377.678 223.369C375.83 224.083 375.201 224.336 374.711 224.713L373.825 225.395L372.752 225.708C370.995 226.221 369.154 226.715 367.387 227.189C366.498 227.427 365.627 227.661 364.796 227.889C360.735 229.365 356.537 230.53 352.28 231.392C346.983 232.466 341.58 233.076 336.211 233.235C331.506 233.971 326.716 233.917 322.094 233.207C321.296 233.214 320.496 233.218 319.693 233.22L319.114 233.221L318.434 233.088L318.426 233.087C316.469 232.706 314.478 232.319 312.482 231.913C309.765 231.752 306.241 231.439 302.781 229.925C274.706 223.355 251.263 204.232 235.781 181.167L235.717 181.071L235.656 180.973C229.991 171.781 226.433 161.587 223.163 152.22L223.066 151.944L222.838 151.291L222.757 150.719C222.364 147.958 222.011 145.204 221.665 142.494C219.237 130.48 219.079 117.541 221.628 105.405C221.736 104.552 221.843 103.659 221.953 102.746C222.172 100.933 222.4 99.0443 222.659 97.2353L222.817 96.1307L223.366 95.159C223.671 94.6208 223.833 93.9631 224.278 92.0364L224.283 92.0138C224.606 90.6145 225.124 88.3714 226.443 86.1858C231.96 69.7245 242.469 55.8853 254.246 44.293L254.308 44.2319L254.372 44.1726C263.951 35.2817 274.961 28.3637 286.312 22.6996L286.327 22.6922C293.64 19.0683 301.861 17.5857 309.036 16.2915C311.082 15.9225 313.043 15.5688 314.874 15.1852L315.247 15.107L315.627 15.0771C335.115 13.5426 356.017 15.0155 374.702 23.6679C377.364 24.4777 379.727 25.694 381.669 26.739C382.09 26.9656 382.489 27.1824 382.87 27.3897C384.511 28.2818 385.831 28.9992 387.233 29.5741L387.705 29.7679L388.138 30.0395C402.237 38.8909 413.724 50.744 423.265 63.8161L423.331 63.9062L423.394 63.9988C435.145 81.4417 439.735 102.317 441.01 122.179L441.035 122.559L441.01 122.939C440.89 124.802 440.818 126.789 440.743 128.863C440.481 136.136 440.18 144.467 437.626 152.207L437.621 152.223C433.618 164.242 428.323 176.103 420.868 186.831L420.818 186.902L420.766 186.972C410.945 200.255 398.714 212.606 383.173 220.398Z" fill="#59021F"/>
<path fill-rule="evenodd" clip-rule="evenodd" d="M369.756 101.898C368.658 87.9524 367.559 74.0149 368.029 59.9951L365.931 60.667C356.121 71.077 345.914 81.1339 335.705 91.1923C332.252 94.5947 328.799 97.9972 325.36 101.414C317.692 94.5518 310.492 87.2116 303.295 79.8733C300.253 76.7719 297.212 73.671 294.136 70.6067C290.829 67.0497 285.107 63.6311 280.632 67.3659C274.455 72.2468 268.02 77.7008 264.852 85.0715C265.134 90.6246 269.175 94.345 273.057 97.9188C274.079 98.8597 275.09 99.7905 276.019 100.742C281.386 106.19 286.806 111.589 292.227 116.99C299.704 124.438 307.184 131.889 314.53 139.473C317.219 142.139 320.462 144.147 323.674 146.134C324.151 146.429 324.629 146.725 325.103 147.022C335.417 140.665 343.751 131.947 352.095 123.218C357.863 117.184 363.635 111.146 370.069 105.88C369.966 104.552 369.861 103.225 369.756 101.898Z" fill="#59021F"/>
<path fill-rule="evenodd" clip-rule="evenodd" d="M288.923 142.664C290.022 156.61 291.12 170.547 290.65 184.567L292.749 183.895C302.558 173.485 312.766 163.428 322.974 153.37C326.428 149.967 329.881 146.565 333.319 143.148C340.988 150.01 348.187 157.35 355.385 164.689C358.426 167.79 361.468 170.891 364.544 173.955C367.851 177.512 373.573 180.931 378.048 177.196C384.225 172.315 390.66 166.861 393.828 159.49C393.546 153.937 389.505 150.217 385.623 146.643C384.6 145.702 383.589 144.772 382.661 143.82C377.293 138.372 371.874 132.973 366.453 127.572C358.975 120.124 351.496 112.673 344.15 105.089C341.461 102.423 338.217 100.415 335.006 98.4282C334.528 98.1326 334.051 97.8373 333.577 97.5405C323.263 103.897 314.928 112.615 306.585 121.344C300.817 127.378 295.045 133.416 288.611 138.682C288.714 140.01 288.819 141.337 288.923 142.664Z" fill="#59021F"/>
<path fill-rule="evenodd" clip-rule="evenodd" d="M286.943 95.9695C288.042 82.0242 289.14 68.0867 288.67 54.0669L290.769 54.7388C300.578 65.1488 310.785 75.2057 320.994 85.264C324.447 88.6664 327.901 92.069 331.339 95.4855C339.008 88.6236 346.207 81.2833 353.404 73.945C356.446 70.8437 359.487 67.7428 362.563 64.6784C365.87 61.1215 371.592 57.7029 376.067 61.4377C382.245 66.3186 388.68 71.7725 391.848 79.1433C391.566 84.6964 387.524 88.4168 383.642 91.9906C382.62 92.9315 381.609 93.8622 380.68 94.8136C375.313 100.262 369.893 105.661 364.472 111.061C356.995 118.51 349.516 125.961 342.169 133.545C339.481 136.211 336.237 138.218 333.026 140.206C332.548 140.501 332.071 140.796 331.596 141.093C321.282 134.737 312.948 126.018 304.604 117.29C298.836 111.256 293.064 105.217 286.63 99.9514C286.734 98.624 286.838 97.2967 286.943 95.9695Z" fill="#59021F"/>
<path fill-rule="evenodd" clip-rule="evenodd" d="M371.737 148.592C370.638 162.538 369.54 176.475 370.01 190.495L367.911 189.823C358.102 179.413 347.895 169.356 337.686 159.298C334.233 155.896 330.779 152.493 327.341 149.077C319.672 155.938 312.473 163.279 305.276 170.617C302.234 173.718 299.193 176.819 296.116 179.884C292.81 183.441 287.087 186.859 282.613 183.124C276.435 178.243 270 172.789 266.832 165.419C267.114 159.866 271.156 156.145 275.038 152.571C276.06 151.631 277.071 150.7 277.999 149.748C283.367 144.3 288.787 138.901 294.207 133.501C301.685 126.052 309.164 118.601 316.51 111.017C319.199 108.351 322.443 106.344 325.654 104.356C326.132 104.061 326.609 103.766 327.083 103.469C337.398 109.825 345.732 118.544 354.076 127.272C359.843 133.306 365.615 139.345 372.049 144.611C371.946 145.938 371.841 147.265 371.737 148.592Z" fill="#59021F"/>
<path d="M141.949 238.612C157.596 237.191 172.565 232.177 187.164 226.616C191.454 231.494 195.664 236.467 199.686 241.612C201.375 243.391 203.064 245.17 204.795 246.914C211.026 253.699 220.794 262.466 216.016 272.651C208.683 280.067 200.666 286.873 192.833 293.717L193.428 296.229C192.284 296.267 189.985 296.294 188.841 296.332L189.088 298.736C181.779 305.572 172.898 311.048 167.338 319.597C166.408 319.694 164.527 319.917 163.602 320.039L164.352 323.381C163.184 323.424 160.83 323.541 159.638 323.589L160.084 326.107C154.556 330.414 149.183 334.975 144.463 340.231C139.96 340.838 135.429 340.275 131.011 339.19C129.18 336.526 127.265 333.933 125.7 331.108L123.839 331.536C116.182 320.954 107.992 310.225 98.0874 301.749C91.7772 295.295 87.7427 284.322 95.2984 277.354C96.2749 277.352 98.2279 277.349 99.1805 277.352L98.5721 274.895C107.554 268.037 115.406 259.777 124.179 252.651L123.265 250.861C130.431 248.214 133.864 238.869 141.949 238.612Z" fill="#59021F"/>
<path d="M141.949 238.612C157.596 237.191 172.565 232.177 187.164 226.616C191.454 231.494 195.664 236.467 199.686 241.612C201.375 243.391 203.064 245.17 204.795 246.914C211.026 253.699 220.794 262.466 216.016 272.651C208.683 280.067 200.666 286.873 192.833 293.717L193.428 296.229C192.284 296.267 189.985 296.294 188.841 296.332L189.088 298.736C181.779 305.572 172.898 311.048 167.338 319.597C166.408 319.694 164.527 319.917 163.602 320.039L164.352 323.381C163.184 323.424 160.83 323.541 159.638 323.589L160.084 326.107C154.556 330.414 149.183 334.975 144.463 340.231C139.96 340.838 135.429 340.275 131.011 339.19C129.18 336.526 127.265 333.933 125.7 331.108L123.839 331.536C116.182 320.954 107.992 310.225 98.0874 301.749C91.7772 295.295 87.7427 284.322 95.2984 277.354C96.2749 277.352 98.2279 277.349 99.1805 277.352L98.5721 274.895C107.554 268.037 115.406 259.777 124.179 252.651L123.265 250.861C130.431 248.214 133.864 238.869 141.949 238.612ZM183.104 256.388C178.654 261.507 173.767 266.46 171.428 273.11C174.445 276.276 177.173 279.844 180.738 282.42C189.127 281.836 193.997 273.226 199.195 267.396C199.981 261.787 196.196 257.271 192.369 253.836C189.273 254.688 186.171 255.516 183.104 256.388ZM148.747 279.634C154.331 278.009 158.896 273.884 161.117 268.305C154.735 268.56 149.222 272.707 148.747 279.634ZM134.311 288.141C134.484 289.516 134.859 292.285 135.032 293.659C140.602 291.854 143.957 286.997 146.526 281.866C141.711 282.305 137.757 284.86 134.311 288.141ZM119.795 306.785C124.449 304.68 131.448 301.729 131.454 295.636C125.471 295.308 120.264 300.748 119.795 306.785ZM149.957 309.103C145.003 314.096 138.782 317.978 135.516 324.515C151.195 320.812 158.52 303.199 172.543 296.141C172.401 293.871 172.289 291.62 172.152 289.375C163.473 294.284 157.245 302.403 149.957 309.103ZM129.463 317.743C137.344 317.007 141.438 308.748 147.605 304.617C147.589 303.156 147.604 300.225 147.617 298.784C140.209 303.314 132.707 309.145 129.463 317.743Z" fill="white"/>
<path d="M129.492 137.912C129.254 144.156 128.482 151.191 134.64 154.985C136.402 153.226 138.006 151.329 139.451 149.314C139.511 145.401 138.046 141.666 137.333 137.852C134.719 137.734 132.106 137.734 129.492 137.912ZM108.385 139.67C104.267 145.776 105.376 153.463 108.702 159.629C111.177 159.451 113.414 158.403 115.612 157.317C116.78 150.479 115.652 142.536 108.385 139.67ZM126.958 347.178C131.868 359.232 137.63 371.089 144.441 382.253C146.639 379.803 149.292 377.511 150.143 374.211C150.044 369.765 146.936 366.188 145.906 361.959C144.302 353.264 136.303 345.38 126.958 347.178Z" fill="#FF3B7F"/>
<path fill-rule="evenodd" clip-rule="evenodd" d="M137.254 100.84C138.541 98.0541 140.699 96.2164 143.708 95.2876C149.728 113.053 154.697 131.153 159.727 149.195C158.558 149.867 156.262 151.211 155.113 151.882C155.014 153.009 154.816 155.262 154.717 156.408C167.666 156.309 180.081 151.863 193.01 151.527C196.475 157.83 200.495 163.956 206.098 168.6C214.157 175.753 224.809 178.619 235.026 181.128C235.204 191.029 235.006 200.909 234.967 210.789C224.294 222.922 210.632 233.613 194.495 236.992C195.07 237.723 196.218 239.205 196.792 239.936C191.862 236.696 185.625 239.106 180.2 239.324C168.161 241.794 156.024 239.186 144.025 237.842L87.6943 286.315C89.4367 293.626 96.3073 297.658 100.643 303.309C107.296 311.767 115.493 318.841 122.107 327.358C127.096 332.279 131.155 338.306 136.877 342.396C143.847 341.764 147.668 335.085 152.42 330.796C171.468 314.197 190.06 297.065 209.068 280.426C212.85 276.158 218.533 278.529 222.968 280.169C237.145 285.742 251.262 291.453 265.617 296.591C270.032 314.573 273.913 332.693 278.665 350.597C280.804 359.133 283.714 367.492 285.08 376.226C283.556 375.91 280.526 375.298 279.022 374.982C270.29 368.994 264.449 359.371 254.885 354.49C242.629 352.434 230.175 351.367 217.741 350.933C201.861 348.304 185.783 347.257 169.864 344.985C161.588 357.098 153.866 369.626 147.134 382.688C145.411 382.708 143.708 382.747 142.006 382.767C136.244 370.219 129.848 357.987 123.176 345.894C114.345 345.736 105.534 345.696 96.7033 345.894C93.0997 350.142 89.4763 354.371 86.1103 358.797C84.3481 356.327 82.0315 353.917 82.2691 350.636C81.7345 331.449 81.9919 312.241 81.6157 293.073C78.9823 275.447 80.4475 257.583 79.8139 239.838C77.3587 215.532 78.7843 191.029 77.9923 166.644C78.4675 147.496 75.3391 128.446 76.5073 109.298C76.9825 106.472 78.7051 104.081 79.9327 101.552C85.2391 108.705 89.9119 116.451 96.3469 122.696C100.584 122.399 104.762 121.648 108.979 121.253L108.128 122.874C103.633 124.692 98.7625 124.336 94.1491 125.324C105.633 128.565 117.671 124.672 129.433 126.569C131.413 117.815 133.472 109.002 137.254 100.84ZM134.64 154.985C128.482 151.191 129.254 144.156 129.492 137.912C132.106 137.734 134.719 137.734 137.333 137.852C138.046 141.666 139.511 145.401 139.451 149.314C138.006 151.329 136.402 153.226 134.64 154.985ZM108.702 159.629C105.376 153.463 104.267 145.776 108.385 139.67C115.652 142.536 116.78 150.479 115.612 157.317C113.414 158.403 111.177 159.451 108.702 159.629ZM144.441 382.253C137.63 371.089 131.868 359.232 126.958 347.178C136.303 345.38 144.302 353.264 145.906 361.959C146.936 366.188 150.044 369.765 150.143 374.211C149.292 377.511 146.639 379.803 144.441 382.253Z" fill="#FF3B7F"/>
<path d="M240.392 178.283C243.164 176.959 245.936 175.655 248.708 174.371C249.223 182.729 247.579 192.906 240.59 198.202C240.154 191.562 240.075 184.923 240.392 178.283Z" fill="#FF3B7F"/>
<path d="M262.488 236.498C270.191 242.189 272.131 252.643 272.369 261.614C272.963 270.981 269.993 280.031 266.607 288.627C261.083 289.101 256.152 286.947 251.836 283.687C256.152 277.462 259.914 270.704 261.835 263.333C263.261 254.441 261.795 245.43 262.488 236.498Z" fill="#FF3B7F"/>
<path d="M207.008 355.221C210.948 355.576 214.889 355.873 218.849 356.09C217.918 362.868 210.691 366.702 206.632 371.82C206.454 366.287 206.632 360.754 207.008 355.221Z" fill="#FF3B7F"/>
<path d="M136.283 80.7241C139.115 80.8624 141.926 81.1193 144.738 81.4948C148.837 85.8619 149.45 92.047 151.015 97.5603C155.707 114.594 161.984 131.213 166.003 148.444C183.665 147.871 200.495 141.824 217.582 138.011C226.413 137.279 236.907 135.916 243.778 142.832C254.707 150.954 257.38 165.794 255.559 178.54C251.559 207.628 229.046 232.704 201.069 241.221C202.97 243.889 204.732 246.616 206.395 249.442C202.059 247.544 199.564 243.513 196.792 239.937C196.218 239.205 195.07 237.723 194.495 236.992C210.632 233.613 224.294 222.923 234.967 210.789C235.006 200.909 235.204 191.029 235.026 181.129C224.809 178.619 214.157 175.754 206.098 168.6C200.495 163.956 196.475 157.831 193.01 151.527C180.081 151.863 167.666 156.309 154.717 156.408C154.816 155.262 155.014 153.009 155.113 151.883C156.262 151.211 158.558 149.867 159.727 149.195C154.697 131.154 149.728 113.053 143.708 95.2878C143.194 92.1261 142.184 89.1027 140.837 86.1978C139.313 87.2649 137.808 88.332 136.303 89.3991C134.323 97.2046 129.868 104.002 127.175 111.531C125.532 115.246 123.572 118.803 121.433 122.241C116.998 122.301 112.543 122.419 108.128 122.874L108.979 121.253C104.762 121.649 100.584 122.4 96.3468 122.696C89.9118 116.452 85.239 108.705 79.9326 101.552C76.4478 98.8843 74.1906 93.3117 68.9832 94.5171C65.9142 97.3034 66.528 101.75 66.2508 105.465C66.3498 120.641 65.7954 135.916 67.9932 150.993C69.894 227.448 67.6962 303.922 68.6466 380.357C75.3588 373.954 80.5068 366.149 86.1102 358.798C89.4762 354.371 93.0996 350.142 96.7032 345.894C105.534 345.696 114.345 345.736 123.176 345.894C129.848 357.987 136.244 370.219 142.006 382.767C143.708 382.748 145.411 382.708 147.134 382.688C153.866 369.627 161.588 357.098 169.864 344.985C185.783 347.257 201.861 348.305 217.741 350.933C230.175 351.368 242.629 352.435 254.885 354.49C264.449 359.371 270.29 368.994 279.022 374.982C280.526 375.298 283.556 375.91 285.08 376.227C283.714 367.492 280.804 359.134 278.665 350.597C273.913 332.694 270.032 314.573 265.617 296.591C251.262 291.453 237.145 285.742 222.968 280.17C218.533 278.529 212.85 276.158 209.068 280.426C190.06 297.065 171.468 314.198 152.42 330.797C147.668 335.085 143.847 341.764 136.877 342.396C131.155 338.306 127.096 332.279 122.107 327.358C115.493 318.841 107.296 311.767 100.643 303.309C96.3072 297.658 89.4366 293.627 87.6942 286.315C98.703 275.387 110.682 265.507 122.047 254.935C126.562 250.667 133.016 247.742 134.66 241.241C123.75 236.854 103.95 237.15 94.05 243.079C94.05 246.043 94.05 247.031 97.02 250.983C95.04 252.959 93.8718 254.856 92.07 254.935C88.11 249.995 82.0116 237.802 87.0606 231.598C90.0306 227.948 93.951 227.151 97.4358 226.657C97.3368 227.724 97.119 229.859 97.02 230.926C93.0006 231.598 92.07 233.593 92.07 237.842C105.93 229.938 130.68 230.926 144.025 237.842C125.869 254.322 107.692 270.783 89.4168 287.086C92.7234 292.836 97.5546 297.381 102.148 302.104C112.741 313.842 123.196 325.679 133.828 337.397C135.194 338.879 137.254 341.527 139.55 339.946C144.322 337.614 147.47 333.128 151.272 329.571C174.181 309.238 196.812 288.607 219.622 268.135C217.998 261.456 210.989 258.156 208.098 252.149C214.454 254.085 217.562 260.764 221.859 265.369C221.404 267.147 220.493 270.724 220.037 272.502C228.532 275.466 236.788 280.98 246.035 280.525C259.974 266.416 257.44 244.58 252.311 227.211C254.074 225.788 255.836 224.365 257.598 222.942C265.498 225.887 269.854 233.455 273.557 240.529C278.289 250.607 280.804 262.207 277.695 273.154C276.586 281.988 269.894 289.912 272.21 299.1C276.626 318.011 282.328 336.626 286.367 355.636C288.09 364.983 292.05 373.875 292.525 383.439C360.004 384.329 427.502 383.558 495 383.815V390H0V383.815C20.79 383.716 41.5602 384.072 62.3502 383.617C62.271 337.673 62.8452 291.73 62.9244 245.806C66.7458 196.977 58.8258 148.227 60.7266 99.3783C60.8454 94.4974 63.558 89.5967 68.013 87.423C72.6858 86.0595 77.121 89.4584 80.1108 92.6794C87.0408 100.999 93.2184 109.931 99.9504 118.408C106.286 117.914 112.563 116.926 118.82 115.799C123.869 103.785 127.71 90.8021 136.283 80.7241ZM240.392 178.283C240.075 184.923 240.154 191.562 240.59 198.202C247.579 192.906 249.223 182.729 248.708 174.37C245.936 175.655 243.164 176.959 240.392 178.283ZM262.489 236.498C261.796 245.43 263.261 254.441 261.835 263.333C259.915 270.704 256.153 277.462 251.836 283.687C256.153 286.947 261.083 289.101 266.607 288.627C269.993 280.031 272.963 270.981 272.369 261.614C272.131 252.643 270.191 242.189 262.489 236.498ZM95.436 356.545C88.9416 365.793 81.7344 374.527 74.844 383.479C95.3766 384.072 115.969 383.973 136.501 383.538C132.343 373.006 126.185 363.441 121.275 353.245C115.117 352.79 108.722 353.956 102.802 351.743C100.148 352.988 96.9606 353.778 95.436 356.545ZM152.302 383.36C165.904 384.21 179.566 383.795 193.189 383.657C192.456 373.598 193.703 363.54 193.248 353.482C186.655 353.482 180.041 352.988 173.705 351.051C164.677 360.378 160.717 373.46 152.302 383.36ZM199.228 355.32C199.188 362.77 199.03 370.219 198.614 377.669C199.604 377.511 201.623 377.234 202.613 377.096C203.009 374.745 204.356 373.263 206.653 372.65L206.633 371.82C210.692 366.702 217.919 362.868 218.849 356.09C214.889 355.873 210.949 355.577 207.009 355.221C204.415 355.241 201.821 355.28 199.228 355.32ZM227.66 357.493C222.057 365.911 213.424 371.741 208.019 380.297C206.593 381.187 205.187 382.096 203.782 383.005C213.642 384.467 223.661 383.617 233.6 383.815C249.302 383.36 265.122 384.902 280.744 382.767C274.23 381.345 271.121 375.041 265.973 371.464C261.162 367.927 256.826 363.837 252.608 359.628C244.134 360.319 236.095 356.782 227.66 357.493Z" fill="#59021F"/>
<path d="M136.303 89.3995C137.807 88.3324 139.312 87.2653 140.837 86.1982C142.183 89.1031 143.193 92.1265 143.708 95.2882C140.698 96.217 138.54 98.0547 137.253 100.841C133.471 109.002 131.412 117.815 129.432 126.569C117.671 124.672 105.632 128.565 94.1484 125.325C98.7618 124.337 103.633 124.692 108.127 122.874C112.543 122.42 116.998 122.301 121.433 122.242C123.571 118.804 125.531 115.247 127.175 111.532C129.868 104.003 134.323 97.205 136.303 89.3995Z" fill="#FEFEFF"/>
<path d="M66.25 105.465C66.5272 101.75 65.9134 97.3037 68.9824 94.5175C74.1898 93.312 76.447 98.8846 79.9318 101.552C78.7042 104.082 76.9816 106.473 76.5064 109.298C75.3382 128.447 78.4666 147.496 77.9914 166.644C78.7834 191.029 77.3578 215.532 79.813 239.838C80.4466 257.583 78.9814 275.447 81.6148 293.074C81.991 312.242 81.7336 331.449 82.2682 350.637C82.0306 353.917 84.3472 356.328 86.1094 358.798C80.506 366.149 75.358 373.954 68.6458 380.357C67.6954 303.922 69.8932 227.448 67.9924 150.994C65.7946 135.916 66.349 120.641 66.25 105.465Z" fill="#FEFEFF"/>
<path d="M126.957 347.178C136.303 345.38 144.302 353.265 145.906 361.96C146.935 366.188 150.044 369.765 150.143 374.211C149.291 377.511 146.638 379.804 144.44 382.254C137.629 371.089 131.867 359.233 126.957 347.178Z" fill="#FEFEFF"/>
<path d="M199.227 355.32C201.821 355.28 204.415 355.241 207.008 355.221C206.632 360.754 206.454 366.287 206.632 371.82L206.652 372.65C204.355 373.263 203.009 374.745 202.613 377.096C201.623 377.235 199.603 377.511 198.613 377.669C199.029 370.22 199.187 362.77 199.227 355.32Z" fill="#FEFEFF"/>
<path d="M116.874 160.159C114.295 160.612 111.697 160.889 109.086 161.047C107.971 157.33 106.117 153.77 105.76 149.873C106.982 147.716 108.374 145.66 109.939 143.725C116.464 146.847 116.445 153.924 116.874 160.159Z" fill="#59021F"/>
<path d="M137.676 156.175C130.147 154.094 128.18 146.313 128.613 139.39C130.682 138.077 132.794 136.799 135.235 136.361C139.198 142.14 141.119 149.668 137.676 156.175Z" fill="#59021F"/>
</g>
<defs>
<clipPath id="clip0_1_5936">
<rect width="495" height="413" fill="white" transform="translate(0 0.5)"/>
</clipPath>
</defs>
</svg>
