<svg width="1368" height="265" viewBox="0 0 1368 265" fill="none" xmlns="http://www.w3.org/2000/svg">
<path d="M24.5436 264.536C19.4016 255.232 20.9738 246.724 27.9285 238.549C30.4625 235.571 30.9064 230.836 30.9249 226.211C27.4661 230.262 24.0072 234.313 19.4756 239.64C29.8151 213.467 34.7722 210.563 56.5425 210.138C78.8863 209.694 101.193 207.345 123.537 205.958C130.399 205.532 133.506 200.446 132.508 195.433C129.844 182.06 136.466 174.532 146.62 168.354H157.718C170.666 173.903 183.613 179.452 196.561 185.001V186.851C192.436 192.548 186.924 194.62 179.877 194.453C173.588 194.305 167.262 195.433 160.345 196.062C159.383 203.942 157.108 211.322 157.94 218.35C159.328 230.207 153.964 237.605 145.27 243.876C139.111 248.333 139.111 252.218 144.752 257.286C146.972 259.283 148.489 262.095 150.32 264.536H133.673C131.657 260.689 128.975 257.045 127.772 252.957C126.496 248.592 124.998 246.41 119.948 245.966C101.97 244.357 83.8988 242.951 66.1977 239.695C57.6708 238.142 53.2317 243.672 46.9429 245.984C34.6242 250.534 42.7442 256.897 45.4262 262.816C45.6111 263.223 45.0747 263.944 44.8898 264.518H24.5436V264.536Z" fill="#FF3B7F"/>
<path d="M403.76 135.079V138.779C394.919 141.757 386.226 145.327 377.199 147.546C370.8 149.118 368.783 152.059 370.929 157.886C378.217 177.603 374.092 195.711 363.715 213.116C359.165 220.737 360.719 228.561 367.544 234.646C373.63 240.066 373.944 249.499 368.746 256.176C366.915 258.525 366.157 261.743 364.918 264.555H355.669C354.301 263.334 353.061 261.891 351.526 260.948C336.137 251.496 335.323 246.909 346.736 232.704C350.213 228.376 348.049 221.292 343.314 219.312C334.676 215.687 325.927 212.08 317.9 207.345C310.113 202.758 303.01 198.171 295.038 204.367C294.095 212.154 295.038 220.311 291.82 226.212C288.546 232.26 286.825 236.866 287.047 244.061C287.232 250.017 281.332 256.416 277.207 261.928C276.615 262.705 270.863 259.246 267.349 258.285C260.154 256.305 263.095 261.447 263.187 264.555H257.638C252.089 259.616 246.54 254.696 240.991 249.758C240.991 246.669 240.991 243.598 240.991 240.509C246.614 233.222 252.422 226.6 263.187 231.15C264.204 231.576 267.127 230.096 267.571 228.912C269.328 224.288 271.492 219.442 271.566 214.651C271.751 202.962 266.757 191.031 274.951 178.417C270.234 176.105 266.331 173.275 262.003 172.276C254.216 170.482 249.167 165.506 249.888 158.404C250.406 153.262 254.475 147.084 258.822 144.05C264.741 139.907 271.251 143.107 276.005 148.341C281.184 154.038 280.296 160.142 276.504 166.117C275.099 168.318 273.175 170.186 269.938 174.052C275.117 175.605 278.817 177.621 282.534 177.621C292.966 177.658 303.417 177.011 313.849 176.364C337.931 174.902 351.008 151.245 339.651 129.789C334.361 119.783 336.378 111.478 345.996 105.43C349.584 103.173 353.69 101.749 357.556 99.9362C361.255 99.9362 364.955 99.9362 368.654 99.9362C369.69 100.547 370.67 101.323 371.78 101.749C388.778 108.297 390.369 116.25 377.125 128.606C376.755 128.939 376.792 129.716 376.275 131.621C385.578 132.786 394.697 133.933 403.797 135.079H403.76Z" fill="#FF3B7F"/>
<path d="M616.449 264.537C606.812 253.309 606.22 239.326 605.277 225.731C604.482 214.43 605.11 203.054 605.11 192.308C589.943 186.666 575.498 180.544 560.534 176.271C556.964 175.254 550.62 179.453 547.272 182.93C537.321 193.251 528.165 204.349 518.861 215.28C517.659 216.686 516.457 219.535 517.086 220.792C521.099 228.616 525.724 236.126 529.922 243.839C531.439 246.613 532.345 249.721 533.548 252.68C529.774 252.44 523.448 253.457 522.635 251.792C516.087 238.272 505.969 226.082 504.638 209.306C495.112 213.597 483.921 215.835 481.295 229.504C479.575 238.42 471.973 246.669 479.057 256.472C479.519 257.119 476.597 261.707 475.654 261.577C472.065 261.059 468.107 260.042 465.425 257.822C464.001 256.639 464.278 252.495 464.852 249.943C467.423 238.235 470.29 226.582 473.305 214.984C473.804 213.061 475.21 211.082 476.726 209.75C488.509 199.447 493.521 185.742 496.24 170.963C498.33 159.551 499.958 148.064 501.919 135.894C483.348 132.564 466.183 125.166 456.103 106.706C472.38 124.5 493.281 127.404 515.791 126.183C528.646 125.48 541.594 126.183 554.467 125.776C572.575 125.221 590.683 124.389 608.754 123.26C611.473 123.094 614.544 121.189 616.597 119.191C622.775 113.18 628.934 107.076 634.261 100.325C636.555 97.4208 636.462 92.7412 637.997 89.1159C639.403 85.805 640.92 81.9948 643.565 79.8677C648.244 76.1129 653.83 73.4679 659.028 70.3605C665.187 70.3605 671.365 70.3605 677.524 70.3605C682.426 73.061 687.494 75.521 692.21 78.5544C696.613 81.3844 700.33 85.4166 704.918 87.8212C710.263 90.6326 716.237 92.2603 721.934 94.4059V98.1052C714.776 108.722 705.528 112.052 693.561 106.41C691.933 105.633 689.843 104.856 688.252 105.245C685.552 105.892 683.055 107.483 680.484 108.667C682.167 110.479 683.628 112.606 685.607 114.049C688.826 116.417 692.932 117.804 695.595 120.597C698.499 123.667 700.201 127.885 702.421 131.584L699.628 133.212C698.629 131.658 696.983 128.643 696.724 128.772C687.087 132.99 681.963 124.463 675.305 121.022C668.442 117.49 664.947 119.339 661.247 125.554C642.658 156.739 634.15 190.625 633.928 226.619C633.873 236.477 634.132 246.854 643.75 254.049C645.932 255.677 645.377 260.967 646.099 264.555H616.486L616.449 264.537ZM620.537 214.652C614.396 227.396 616.671 245.541 625.346 250.831C623.718 238.641 622.109 226.526 620.537 214.652Z" fill="#FF3B7F"/>
<path d="M775.575 264.537C773.985 260.856 771.414 257.305 770.97 253.495C769.268 239.067 770.97 226.175 781.365 213.857C791.501 201.871 796.18 186.389 797.383 170.094C797.993 161.808 801.027 153.688 803.191 144.624C803.191 144.624 802.136 144.014 801.452 143.089C800.157 141.369 799.084 139.501 797.938 137.688C799.861 137.096 801.785 136.005 803.69 136.005C833.192 136.079 862.638 134.729 890.864 125.425C900.889 122.133 910.563 116.602 919.108 110.332C923.843 106.855 925.97 99.7889 929.152 94.2584C937.013 80.6265 944.541 66.7912 952.846 53.4552C954.381 50.9952 958.95 50.4403 962.704 48.7571C963.222 52.6598 963.222 56.1002 964.24 59.2076C964.998 61.5197 966.663 64.4421 968.679 65.2744C974.024 67.5125 981.034 67.0686 980.757 76.0024C980.72 76.9827 985.363 78.1665 987.878 79.1838C992.928 81.1999 998.014 83.1605 1003.08 85.1397V88.839C997.94 99.0305 992.78 109.222 986.361 121.911C978.87 113.569 973.192 107.224 967.014 100.325C958.783 113.365 954.066 126.091 957.821 141.498C959.393 147.954 959.708 156.203 957.026 161.974C946.594 184.355 946.039 208.4 943.431 232.076C942.414 241.287 943.671 250.387 952.753 256.473C954.51 257.656 954.288 261.781 954.991 264.537H929.096C923.547 256.158 912.801 251.053 912.967 239.03C913.115 228.783 912.727 218.499 913.559 208.308C913.966 203.332 913.411 199.762 908.713 198.024C895.636 193.122 882.67 187.666 869.242 183.966C853.057 179.49 846.121 182.986 837.52 197.21C829.345 210.731 820.984 223.179 804.578 229.209C790.761 234.277 789.355 243.692 796.495 257.083C797.494 258.951 796.162 262.04 795.922 264.556H775.575V264.537Z" fill="#FF3B7F"/>
<path d="M1367.48 60.9278V70.176C1362.56 74.5967 1357.79 79.2208 1352.67 83.3825C1345.12 89.5234 1339.66 82.4022 1333.43 80.0162C1312.86 72.2291 1292.65 83.9744 1290.02 105.726C1287.93 122.947 1286.41 140.148 1274.52 154.169C1273.8 155.019 1273.52 156.425 1273.39 157.627C1270.73 180.877 1267.49 204.091 1265.77 227.415C1265.05 237.366 1266.99 247.502 1277.53 253.643C1279.86 254.993 1279.62 260.764 1280.57 264.5H1247.27C1244.89 261.393 1241.52 258.618 1240.3 255.085C1235.45 241.102 1232.44 226.971 1233.59 211.748C1234.84 194.99 1233.86 178.048 1233.86 161.586C1214.31 157.498 1194.98 153.836 1175.88 149.267C1167.07 147.158 1162.06 150.395 1157.6 157.35C1145.32 176.512 1133.3 195.934 1115.52 210.823C1113.91 212.174 1112.14 213.968 1111.6 215.891C1109.07 224.955 1106.02 234.036 1105.13 243.303C1104.78 246.947 1110.4 250.831 1111.84 255.085C1112.75 257.749 1110.95 261.356 1110.38 264.519H1093.73C1092.07 259.876 1088.87 255.178 1089.02 250.609C1089.5 236.404 1091.26 222.236 1092.5 208.326C1076.4 214.042 1069.91 227.711 1066.19 243.137C1065.58 245.652 1067.34 249.869 1069.41 251.645C1074.13 255.677 1074.24 259.673 1071.52 264.519H1047.47C1047.47 259.58 1047.47 254.641 1047.47 249.703C1049.82 241.49 1051.86 233.186 1054.65 225.14C1056.63 219.443 1058.5 213.08 1062.36 208.789C1080.88 188.313 1088.48 164.009 1089.72 139.871C1085.69 135.469 1083.14 132.694 1080.58 129.92C1083.34 127.423 1085.76 124.408 1088.91 122.577C1093.66 119.821 1098.88 117.897 1103.91 115.64C1119.28 108.741 1134.08 99.419 1150.19 95.5347C1176.8 89.1164 1203.92 85.3062 1228.07 70.9714C1234.23 67.3091 1242.58 67.2166 1248.57 63.3878C1264.07 53.4737 1278.64 42.1354 1293.9 31.8328C1305.67 23.8978 1321.74 21.5488 1327.55 5.32736C1328.23 7.99085 1328.94 10.6358 1329.92 14.4461C1332.84 10.9688 1334.91 8.52725 1338.07 4.77246C1338.61 9.67403 1338.67 13.0404 1339.4 16.2403C1340.4 20.6055 1341.66 24.9706 1343.31 29.1508C1345.27 34.1264 1347.56 39.0095 1350.11 43.7261C1351.37 46.0566 1353.59 49.7189 1355.24 49.6634C1363.52 49.312 1365.3 55.1384 1367.45 60.9463L1367.48 60.9278Z" fill="#FF3B7F"/>
</svg>
