<svg width="64" height="64" viewBox="0 0 64 64" fill="none" xmlns="http://www.w3.org/2000/svg">
<path fill-rule="evenodd" clip-rule="evenodd" d="M32.0562 64.0001C30.819 64.0001 29.5442 63.9251 28.2695 63.7752C21.6332 62.9878 15.2595 60.0634 10.3854 55.5643C10.048 55.3018 10.048 54.8144 10.3105 54.5145C10.6104 54.2145 11.0603 54.177 11.3977 54.477C21.2208 63.5127 35.6555 65.0874 47.2407 58.4137C58.826 51.7025 64.6748 38.4301 61.7504 25.3827C61.6754 24.9702 61.9379 24.5953 62.3128 24.4828C62.7252 24.4078 63.1376 24.6703 63.2126 25.0452C64.6748 31.5689 64 38.5051 61.3755 44.6539C58.6385 51.0276 53.9894 56.2391 47.9906 59.6885C43.0791 62.5379 37.6426 64.0001 32.0562 64.0001ZM1.49968 39.5174C1.16225 39.5174 0.824813 39.2924 0.749828 38.9175C-0.674894 32.4313 -0.0375186 25.4576 2.62446 19.3088C5.36143 12.9726 9.97303 7.7611 16.0093 4.31177C22.0082 0.824952 28.8318 -0.599769 35.693 0.22507C42.3667 1.01242 48.703 3.89935 53.6145 8.39847C53.9144 8.69841 53.9519 9.18582 53.652 9.48576C53.3895 9.7857 52.9021 9.7857 52.6022 9.52325C42.7416 0.487518 28.3444 -1.08717 16.7592 5.58652C5.17396 12.2977 -0.674894 25.5701 2.21204 38.6176C2.32452 38.9925 2.06207 39.4049 1.64965 39.5174H1.49968Z" fill="#282135" fill-opacity="0.6"/>
<path fill-rule="evenodd" clip-rule="evenodd" d="M11.7352 62.5002C11.3603 62.5002 11.0229 62.2378 10.9854 61.8629L10.123 55.1142C10.123 54.9267 10.1605 54.7018 10.273 54.5518C10.423 54.4018 10.573 54.2893 10.7979 54.2893L17.5091 53.427C17.9215 53.3895 18.2965 53.6895 18.3714 54.0644C18.4089 54.4768 18.109 54.8517 17.6966 54.9267L11.6977 55.6766L12.4476 61.6754C12.5226 62.0878 12.2226 62.4627 11.8102 62.5002H11.7352ZM46.3785 10.7603C46.041 10.7603 45.7036 10.4979 45.6661 10.123C45.5911 9.71054 45.8536 9.33562 46.266 9.26063L52.2648 8.36081L51.3275 2.36198C51.2525 1.94956 51.5525 1.57463 51.9649 1.49965C52.3398 1.46215 52.7522 1.7246 52.7897 2.13702L53.8395 8.84821C53.877 9.03567 53.8395 9.26063 53.727 9.4106C53.6146 9.56057 53.4271 9.67305 53.2396 9.71054L46.5284 10.7603H46.3785ZM34.1559 50.69C31.0815 50.69 28.6069 48.7029 26.3199 44.4663C26.2074 44.2413 26.2074 44.0163 26.3199 43.7914C28.6444 39.0673 31.8313 36.7053 35.8055 36.7053C43.3416 36.7053 50.9151 45.2911 51.5899 46.0784C51.7024 46.1909 51.7774 46.3784 51.7774 46.6033C51.7774 47.0158 51.4775 47.3532 51.0651 47.3532C50.9901 47.3532 50.9151 47.3532 50.8401 47.3157C49.9403 47.0907 48.9655 46.9408 48.0281 46.9408C45.2537 46.9408 42.7417 47.9906 40.3421 48.9654C38.2051 49.8652 36.1805 50.69 34.1559 50.69ZM27.8571 44.0913C30.3316 48.6279 32.5062 49.1903 34.1559 49.1903C35.8805 49.1903 37.7551 48.403 39.7423 47.5781C42.1793 46.6033 44.9537 45.4411 48.0281 45.4411C48.3281 45.4411 48.6655 45.4786 48.9655 45.4786C46.3785 42.9291 40.942 38.205 35.8055 38.205C32.5437 38.205 29.8442 40.1921 27.8571 44.0913Z" fill="#282135" fill-opacity="0.6"/>
<path fill-rule="evenodd" clip-rule="evenodd" d="M22.1957 45.1786C21.8207 45.1786 21.4833 44.8786 21.4458 44.4662C21.4083 44.0538 21.7457 43.7164 22.1582 43.6789L26.9572 43.3789L35.3931 42.929C35.8055 42.929 36.1429 43.229 36.1804 43.6414C36.1804 44.0538 35.8805 44.4287 35.4681 44.4287L27.0322 44.8786L22.2331 45.1786H22.1957ZM17.2841 44.0538C17.0217 44.0538 16.7967 43.9413 16.6467 43.7164C16.3468 43.2664 9.22319 32.2811 12.4101 24.82C13.7973 21.6332 16.8342 19.6086 21.4833 18.7837C21.7083 18.7462 21.9707 18.8212 22.1207 19.0087C28.9818 25.6824 25.8699 29.5816 22.5706 33.7058C20.396 36.4053 18.109 39.2547 18.034 43.3414C18.034 43.6789 17.809 43.9413 17.5091 44.0538H17.2841ZM21.3708 20.3209C17.4716 21.1083 14.9221 22.7954 13.7973 25.4199C11.6602 30.4065 14.9596 37.605 16.7967 41.0169C17.5091 37.605 19.5712 35.0555 21.4083 32.7685C24.5577 28.7943 26.8822 25.8698 21.3708 20.3209ZM42.6292 31.1188C38.1675 31.1188 36.4429 27.8195 34.6057 24.2951C32.9561 21.2207 31.2689 17.9964 27.5571 16.3092C27.2572 16.1592 27.1072 15.8593 27.1447 15.5219C27.1822 15.1844 27.4446 14.922 27.7446 14.8845C27.857 14.847 30.3691 14.4346 33.7059 14.4346C38.205 14.4346 44.2039 15.2594 47.2783 19.1212C49.2279 21.6332 49.7153 25.045 48.6655 29.2817C48.628 29.5066 48.478 29.6941 48.2531 29.7691C46.041 30.6689 44.2414 31.1188 42.6292 31.1188ZM30.1816 16.0842C33.031 18.1089 34.5307 20.9958 35.918 23.6203C37.6801 26.9571 39.0674 29.6191 42.6292 29.6191C43.9414 29.6191 45.4786 29.2442 47.3158 28.5318C48.1031 24.97 47.6907 22.1206 46.0785 20.0585C43.4165 16.6466 37.8676 15.9343 33.7059 15.9343C32.3562 15.9343 31.1564 16.0093 30.1816 16.0842Z" fill="#282135" fill-opacity="0.6"/>
<path fill-rule="evenodd" clip-rule="evenodd" d="M18.9713 27.1825C18.8964 27.1825 18.7839 27.1825 18.7089 27.145C18.334 26.995 18.1465 26.5826 18.259 26.1702L21.2959 18.2967L22.9081 13.7601C23.058 13.3852 23.508 13.1977 23.8829 13.3477C24.2578 13.4601 24.4828 13.9101 24.3328 14.285L22.6831 18.8216L19.6837 26.6951C19.5712 26.995 19.2713 27.1825 18.9713 27.1825ZM51.6275 33.3688C51.44 33.3688 51.2525 33.2938 51.1401 33.1438L47.6532 29.8444L41.6169 23.9206C41.317 23.6207 41.317 23.1708 41.5794 22.8708C41.8794 22.5709 42.3668 22.5709 42.6667 22.8333L48.703 28.7572L52.1524 32.0565C52.4523 32.3565 52.4523 32.8439 52.1898 33.1438C52.0399 33.2938 51.8524 33.3688 51.6275 33.3688Z" fill="#282135" fill-opacity="0.6"/>
</svg>
