<svg width="62" height="62" viewBox="0 0 62 62" fill="none" xmlns="http://www.w3.org/2000/svg">
<path d="M31 0C13.906 0 0 13.907 0 31C0 48.015 13.826 62 31 62C48.094 62 62 48.093 62 31C62 13.873 48.06 0 31 0ZM31 2C38.636 2 45.588 4.972 50.772 9.813L20.807 39.779C19.845 39.404 18.913 39.158 18 39.059V38.292C18 38.0268 17.8946 37.7724 17.7071 37.5849C17.5196 37.3974 17.2652 37.292 17 37.292C16.7348 37.292 16.4804 37.3974 16.2929 37.5849C16.1054 37.7724 16 38.0268 16 38.292V39.113C14.42 39.45 13.332 40.588 13.068 42.212H12.541C12.2758 42.212 12.0214 42.3174 11.8339 42.5049C11.6464 42.6924 11.541 42.9468 11.541 43.212C11.541 43.4772 11.6464 43.7316 11.8339 43.9191C12.0214 44.1066 12.2758 44.212 12.541 44.212H13.124C13.274 45.008 13.577 45.804 14.007 46.579L9.813 50.773C4.972 45.588 2 38.636 2 31C2 15.009 15.01 2 31 2ZM15.494 45.093C14.183 42.159 15.247 40.18 19.236 41.351L15.494 45.093ZM31 60C23.364 60 16.412 57.028 11.228 52.187L52.187 11.227C57.028 16.412 60 23.364 60 31C60 46.991 46.99 60 31 60Z" fill="#282135" fill-opacity="0.6"/>
<path d="M9.29302 27.6871L10.137 27.5071C10.418 29.4551 11.295 31.5171 14 31.9231V33.0001C14 34.3231 16 34.3241 16 33.0001V31.9051C17.394 31.6551 18.492 30.8991 19.403 29.9271L20.186 30.5951C21.176 31.4431 22.497 29.9361 21.483 29.0741L20.641 28.3561C21.08 27.7081 21.475 27.0391 21.847 26.4091C22.355 25.5471 22.841 24.7341 23.337 24.1271L24.188 24.9341C25.14 25.8381 26.525 24.3961 25.565 23.4841L24.899 22.8521C25.619 22.4331 26.487 22.0301 27.388 21.6141C28.185 21.2461 29.009 20.8641 29.795 20.4411L30.44 21.3361C31.217 22.4091 32.835 21.2391 32.063 20.1661L31.496 19.3801C32.95 18.3071 34 16.9431 34 15.0001C34 14.7251 33.976 14.4611 33.934 14.2071L34.941 13.9211C36.214 13.5601 35.668 11.6361 34.394 11.9971L33.182 12.3411C32.308 11.0491 30.846 10.1661 29.354 9.63307L29.902 8.08307C29.9903 7.83297 29.9757 7.55803 29.8613 7.31873C29.7469 7.07944 29.5421 6.89539 29.292 6.80707C29.0419 6.71875 28.767 6.7334 28.5277 6.8478C28.2884 6.9622 28.1043 7.16697 28.016 7.41707L27.411 9.12907C26.9449 9.04874 26.473 9.00561 26 9.00007C24.658 9.00007 23.42 9.17107 22.27 9.46707L21.78 8.04807C21.344 6.79507 19.458 7.45407 19.889 8.70107L20.373 10.1011C18.7891 10.7715 17.3355 11.7155 16.079 12.8901L15.2 12.0331C14.252 11.1091 12.857 12.5431 13.804 13.4661L14.692 14.3321C13.488 15.7391 12.543 17.2761 11.826 18.7561L10.361 18.1921C9.12402 17.7181 8.40902 19.5831 9.64202 20.0581L11.033 20.5941C10.321 22.4741 10 24.1001 10 25.0001C10 25.1531 10 25.3181 10.002 25.4901L8.87502 25.7301C7.58302 26.0061 7.99902 27.9651 9.29302 27.6871ZM32 15.0001C32 17.2811 29.229 18.5601 26.549 19.7971C22.354 21.7351 21.931 22.3251 20.123 25.3921C18.788 27.6581 17.408 30.0001 15 30.0001C12.968 30.0001 12 29.2521 12 25.0001C12 22.5291 15.647 11.0001 26 11.0001C27.766 11.0001 32 12.1511 32 15.0001ZM40.5 14.0001C42.43 14.0001 44 12.4301 44 10.5001C44 8.57007 42.43 7.00007 40.5 7.00007C38.57 7.00007 37 8.57007 37 10.5001C37 12.4301 38.57 14.0001 40.5 14.0001ZM40.5 9.00007C41.327 9.00007 42 9.67307 42 10.5001C42 11.3271 41.327 12.0001 40.5 12.0001C39.673 12.0001 39 11.3271 39 10.5001C39 9.67307 39.673 9.00007 40.5 9.00007ZM43.5 47.0001C41.57 47.0001 40 48.5701 40 50.5001C40 52.4301 41.57 54.0001 43.5 54.0001C45.43 54.0001 47 52.4301 47 50.5001C47 48.5701 45.43 47.0001 43.5 47.0001ZM43.5 52.0001C42.673 52.0001 42 51.3271 42 50.5001C42 49.6731 42.673 49.0001 43.5 49.0001C44.327 49.0001 45 49.6731 45 50.5001C45 51.3271 44.327 52.0001 43.5 52.0001Z" fill="#282135" fill-opacity="0.6"/>
<path d="M52 22C53.1046 22 54 21.1046 54 20C54 18.8954 53.1046 18 52 18C50.8954 18 50 18.8954 50 20C50 21.1046 50.8954 22 52 22Z" fill="#282135" fill-opacity="0.6"/>
<path d="M28.5 17C29.3284 17 30 16.3284 30 15.5C30 14.6716 29.3284 14 28.5 14C27.6716 14 27 14.6716 27 15.5C27 16.3284 27.6716 17 28.5 17Z" fill="#282135" fill-opacity="0.6"/>
<path d="M48.5 39C49.3284 39 50 38.3284 50 37.5C50 36.6716 49.3284 36 48.5 36C47.6716 36 47 36.6716 47 37.5C47 38.3284 47.6716 39 48.5 39Z" fill="#282135" fill-opacity="0.6"/>
<path d="M18.5 19C19.3284 19 20 18.3284 20 17.5C20 16.6716 19.3284 16 18.5 16C17.6716 16 17 16.6716 17 17.5C17 18.3284 17.6716 19 18.5 19Z" fill="#282135" fill-opacity="0.6"/>
<path d="M14.5 27C15.3284 27 16 26.3284 16 25.5C16 24.6716 15.3284 24 14.5 24C13.6716 24 13 24.6716 13 25.5C13 26.3284 13.6716 27 14.5 27Z" fill="#282135" fill-opacity="0.6"/>
<path d="M19 24C19.5523 24 20 23.5523 20 23C20 22.4477 19.5523 22 19 22C18.4477 22 18 22.4477 18 23C18 23.5523 18.4477 24 19 24Z" fill="#282135" fill-opacity="0.6"/>
<path d="M23 16C23.5523 16 24 15.5523 24 15C24 14.4477 23.5523 14 23 14C22.4477 14 22 14.4477 22 15C22 15.5523 22.4477 16 23 16Z" fill="#282135" fill-opacity="0.6"/>
<path d="M49 33C49.5523 33 50 32.5523 50 32C50 31.4477 49.5523 31 49 31C48.4477 31 48 31.4477 48 32C48 32.5523 48.4477 33 49 33Z" fill="#282135" fill-opacity="0.6"/>
<path d="M28 50C28.5523 50 29 49.5523 29 49C29 48.4477 28.5523 48 28 48C27.4477 48 27 48.4477 27 49C27 49.5523 27.4477 50 28 50Z" fill="#282135" fill-opacity="0.6"/>
<path d="M22 48.25C22.6904 48.25 23.25 47.6904 23.25 47C23.25 46.3096 22.6904 45.75 22 45.75C21.3096 45.75 20.75 46.3096 20.75 47C20.75 47.6904 21.3096 48.25 22 48.25Z" fill="#282135" fill-opacity="0.6"/>
<path d="M43.3759 33.9172C43.0889 34.0831 42.8793 34.3561 42.7933 34.6763C42.7072 34.9965 42.7517 35.3378 42.9169 35.6252C43.0405 35.8393 43.2247 36.012 43.4464 36.1214C43.668 36.2308 43.9171 36.272 44.1622 36.2399C44.4073 36.2077 44.6373 36.1037 44.8232 35.9408C45.0092 35.7779 45.1427 35.5636 45.2068 35.3249C45.271 35.0862 45.2629 34.8338 45.1836 34.5997C45.1044 34.3656 44.9575 34.1602 44.7616 34.0095C44.5656 33.8589 44.3294 33.7697 44.0827 33.7533C43.8361 33.7368 43.5902 33.7939 43.3759 33.9172Z" fill="#282135" fill-opacity="0.6"/>
<path d="M8 39C9.10457 39 10 38.1046 10 37C10 35.8954 9.10457 35 8 35C6.89543 35 6 35.8954 6 37C6 38.1046 6.89543 39 8 39Z" fill="#282135" fill-opacity="0.6"/>
<path d="M57.001 34H54.931C54.7521 32.5789 54.1927 31.2325 53.312 30.103L54.779 28.637C54.8719 28.5442 54.9456 28.4339 54.9959 28.3126C55.0462 28.1913 55.0722 28.0612 55.0722 27.9299C55.0723 27.7985 55.0464 27.6684 54.9962 27.5471C54.946 27.4257 54.8724 27.3154 54.7795 27.2225C54.6867 27.1296 54.5764 27.0559 54.4551 27.0056C54.3338 26.9553 54.2037 26.9293 54.0724 26.9293C53.941 26.9293 53.8109 26.9551 53.6896 27.0053C53.5682 27.0555 53.4579 27.1292 53.365 27.222L51.897 28.689C50.7675 27.8083 49.4211 27.2489 48 27.07V25C48 24.7348 47.8946 24.4804 47.7071 24.2929C47.5196 24.1054 47.2652 24 47 24C46.7348 24 46.4804 24.1054 46.2929 24.2929C46.1054 24.4804 46 24.7348 46 25V27.069C44.5786 27.2477 43.2318 27.8071 42.102 28.688L40.636 27.222C40.5432 27.1292 40.4329 27.0555 40.3116 27.0053C40.1903 26.955 40.0603 26.9292 39.929 26.9292C39.7977 26.9292 39.6677 26.955 39.5464 27.0053C39.4251 27.0555 39.3148 27.1292 39.222 27.222C39.1292 27.3148 39.0555 27.4251 39.0053 27.5464C38.955 27.6677 38.9292 27.7977 38.9292 27.929C38.9292 28.0603 38.955 28.1903 39.0053 28.3116C39.0555 28.4329 39.1292 28.5432 39.222 28.636L40.688 30.102C39.8071 31.2318 39.2477 32.5786 39.069 34H37.001C36.7358 34 36.4814 34.1054 36.2939 34.2929C36.1064 34.4804 36.001 34.7348 36.001 35C36.001 35.2652 36.1064 35.5196 36.2939 35.7071C36.4814 35.8946 36.7358 36 37.001 36H39.07C39.2487 37.4214 39.8081 38.7682 40.689 39.898L39.224 41.364C38.276 42.312 39.716 43.7 40.638 42.778L42.103 41.312C43.2325 42.1927 44.5789 42.7521 46 42.931V45C46 46.323 48 46.324 48 45V42.931C49.4214 42.7523 50.7682 42.1929 51.898 41.312L53.364 42.779C54.292 43.707 55.715 42.302 54.778 41.365L53.312 39.898C54.1929 38.7682 54.7523 37.4214 54.931 36H57.001C58.322 36 58.325 34 57.001 34ZM47 41C43.691 41 41 38.309 41 35C41 31.691 43.691 29 47 29C50.309 29 53 31.691 53 35C53 38.309 50.309 41 47 41ZM36.411 47.223L35.531 47.376C35.03 46.595 34.172 46.031 33.165 45.585L33.349 45.112C33.825 43.88 31.965 43.152 31.484 44.388L31.287 44.897C30.9112 44.7794 30.5346 44.6647 30.157 44.553C29.267 44.289 28.372 44.014 27.613 43.699L27.849 43.322C28.552 42.198 26.853 41.142 26.154 42.26L25.88 42.698C25.798 42.641 25.729 42.595 25.645 42.535C25.3642 42.3367 25.0822 42.14 24.799 41.945C24.6909 41.869 24.5687 41.8152 24.4396 41.7868C24.3106 41.7583 24.1771 41.7557 24.0471 41.7791C23.917 41.8025 23.7928 41.8515 23.6818 41.9232C23.5708 41.9949 23.475 42.0878 23.4002 42.1968C23.3253 42.3057 23.2727 42.4283 23.2456 42.5577C23.2184 42.687 23.2171 42.8205 23.2418 42.9503C23.2666 43.0802 23.3168 43.2038 23.3896 43.3141C23.4624 43.4244 23.5563 43.5192 23.666 43.593C25.838 45.083 25.929 45.381 29.588 46.469C31.756 47.116 34 47.783 34 49C34 50.822 31.645 52 28 52C24.661 52 20.947 50.675 18.309 48.542C18.2069 48.4594 18.0895 48.3977 17.9636 48.3605C17.8376 48.3232 17.7056 48.3112 17.575 48.325C17.4444 48.3387 17.3178 48.3781 17.2024 48.4408C17.087 48.5036 16.9851 48.5884 16.9025 48.6905C16.8199 48.7926 16.7582 48.91 16.721 49.0359C16.6837 49.1619 16.6717 49.2939 16.6855 49.4245C16.7133 49.6883 16.8448 49.9302 17.051 50.097C17.509 50.467 17.998 50.806 18.5 51.129L18.367 51.455C17.867 52.68 19.719 53.435 20.219 52.21L20.257 52.116C21.5496 52.7538 22.9126 53.2378 24.318 53.558V54.416C24.318 55.739 26.318 55.74 26.318 54.416V53.9C26.881 53.96 27.443 54 28 54C29.014 54 29.908 53.916 30.706 53.772L30.966 54.336C31.52 55.535 33.339 54.704 32.782 53.498L32.656 53.226C34.883 52.328 35.854 50.783 35.98 49.329L36.754 49.194C38.049 48.967 37.727 47.004 36.411 47.223Z" fill="#282135" fill-opacity="0.6"/>
</svg>
