<svg width="24" height="24" viewBox="0 0 24 24" fill="none" xmlns="http://www.w3.org/2000/svg">
<g opacity="0.7">
<path d="M21.0009 5.97998C17.6709 5.64998 14.3209 5.47998 10.9809 5.47998C9.00085 5.47998 7.02085 5.57998 5.04085 5.77998L3.00085 5.97998" stroke="#282135" stroke-width="1.5" stroke-linecap="round" stroke-linejoin="round"/>
<path d="M8.50085 4.97L8.72085 3.66C8.88085 2.71 9.00085 2 10.6909 2H13.3109C15.0009 2 15.1309 2.75 15.2809 3.67L15.5009 4.97" stroke="#282135" stroke-width="1.5" stroke-linecap="round" stroke-linejoin="round"/>
<path d="M18.8509 9.14014L18.2009 19.2101C18.0909 20.7801 18.0009 22.0001 15.2109 22.0001H8.79088C6.00088 22.0001 5.91088 20.7801 5.80088 19.2101L5.15088 9.14014" stroke="#282135" stroke-width="1.5" stroke-linecap="round" stroke-linejoin="round"/>
<path d="M10.3309 16.5H13.6609" stroke="#282135" stroke-width="1.5" stroke-linecap="round" stroke-linejoin="round"/>
<path d="M9.50085 12.5H14.5009" stroke="#282135" stroke-width="1.5" stroke-linecap="round" stroke-linejoin="round"/>
</g>
</svg>
