<svg width="47" height="31" viewBox="0 0 47 31" fill="none" xmlns="http://www.w3.org/2000/svg">
<g clip-path="url(#clip0_1_2205)">
<path d="M0 3.875C0 1.7349 1.7349 0 3.875 0H42.625C44.7651 0 46.5 1.7349 46.5 3.875V27.125C46.5 29.2651 44.7651 31 42.625 31H3.875C1.7349 31 0 29.2651 0 27.125V3.875Z" fill="#D8E3F3"/>
<path d="M40.0193 9.72119H37.5833C36.8468 9.72119 36.2803 9.9478 35.9404 10.6843L31.2949 21.2782H34.5807C34.5807 21.2782 35.1473 19.8619 35.2606 19.522C35.6005 19.522 38.8296 19.522 39.2829 19.522C39.3962 19.9186 39.6794 21.2216 39.6794 21.2216H42.6253L40.0193 9.72119ZM36.167 17.1426C36.4503 16.4628 37.4133 13.9134 37.4133 13.9134C37.4133 13.9701 37.6966 13.2336 37.8099 12.8371L38.0365 13.8568C38.0365 13.8568 38.6597 16.6327 38.773 17.1993H36.167V17.1426Z" fill="#3362AB"/>
<path d="M31.5218 17.4826C31.5218 19.8619 29.3691 21.4482 26.0266 21.4482C24.6103 21.4482 23.2506 21.1649 22.5142 20.825L22.9674 18.219L23.3639 18.389C24.3837 18.8422 25.0635 19.0122 26.3098 19.0122C27.2163 19.0122 28.1794 18.6722 28.1794 17.8791C28.1794 17.3693 27.7828 17.0293 26.5365 16.4628C25.3468 15.8963 23.7605 14.9899 23.7605 13.347C23.7605 11.0809 25.9699 9.55127 29.0858 9.55127C30.2755 9.55127 31.2952 9.77788 31.9184 10.0611L31.4652 12.5538L31.2386 12.3272C30.6721 12.1006 29.9356 11.874 28.8592 11.874C27.6695 11.9307 27.103 12.4405 27.103 12.8937C27.103 13.4036 27.7828 13.8002 28.8592 14.31C30.6721 15.1598 31.5218 16.1229 31.5218 17.4826Z" fill="#3362AB"/>
<path d="M3.875 9.83452L3.93165 9.60791H8.80373C9.48355 9.60791 9.99342 9.83452 10.1634 10.571L11.2398 15.6697C10.1634 12.9504 7.67069 10.741 3.875 9.83452Z" fill="#F9B50B"/>
<path d="M18.095 9.72169L13.1663 21.2221H9.82381L6.99121 11.5912C9.03068 12.8942 10.7302 14.9337 11.3534 16.35L11.6933 17.5397L14.7525 9.66504H18.095V9.72169Z" fill="#3362AB"/>
<path d="M19.3979 9.66504H22.5137L20.5309 21.2221H17.415L19.3979 9.66504Z" fill="#3362AB"/>
</g>
<defs>
<clipPath id="clip0_1_2205">
<rect width="46.5" height="31" fill="white"/>
</clipPath>
</defs>
</svg>
